{"glyphs":{"0":{"ha":817,"x_min":79,"x_max":738,"o":"m 97 296 q 88 340 97 296 q 79 488 79 383 q 97 679 79 592 q 151 839 114 767 q 253 951 188 911 q 408 992 319 992 q 563 951 497 992 q 666 839 629 911 q 720 679 703 767 q 738 488 738 592 q 720 296 738 383 q 666 138 703 208 q 563 26 629 67 q 408 -14 497 -14 q 253 26 319 -14 q 151 138 188 67 q 97 296 114 208 m 196 488 q 251 187 196 315 q 408 58 307 58 q 526 122 476 58 q 621 488 621 244 q 526 853 621 726 q 408 919 476 919 q 290 853 340 919 q 196 488 196 725 z "},"1":{"ha":588,"x_min":50,"x_max":589,"o":"m 333 11 l 72 0 q 67 24 67 4 q 78 50 67 43 q 222 75 179 50 q 265 176 264 100 l 269 710 q 229 811 271 792 q 54 831 188 831 q 50 853 50 835 q 60 881 50 872 q 314 976 238 892 q 338 982 319 982 q 364 976 356 982 l 393 176 q 437 74 396 99 q 578 50 478 50 q 589 24 589 42 q 583 0 589 6 l 333 11 z "},"2":{"ha":719,"x_min":44,"x_max":667,"o":"m 51 0 q 44 14 44 1 q 56 79 44 43 q 116 176 68 115 q 224 304 164 236 q 342 447 283 372 q 441 603 401 521 q 481 760 481 685 q 434 877 481 836 q 324 918 388 918 q 221 900 260 918 q 182 853 182 882 q 199 826 182 844 q 215 785 215 807 q 147 738 215 738 q 97 756 115 738 q 79 806 79 774 q 119 908 79 865 q 343 990 196 990 q 526 933 453 990 q 600 763 600 876 q 551 583 600 676 q 442 403 494 474 q 362 298 389 332 q 278 194 335 264 q 206 106 222 125 q 190 75 190 86 q 250 74 190 74 l 349 74 q 447 74 414 74 q 512 83 479 75 q 556 101 544 92 q 579 137 568 111 q 593 191 590 163 q 597 272 596 219 q 623 276 601 276 q 667 258 644 276 l 626 -14 q 299 -1 517 -1 l 51 0 z "},"3":{"ha":675,"x_min":68,"x_max":607,"o":"m 210 475 q 194 494 204 475 q 185 522 185 514 q 186 532 185 531 q 365 619 294 563 q 436 755 436 676 q 398 876 436 833 q 303 918 360 918 q 212 898 247 918 q 176 851 176 878 q 192 821 176 839 q 208 775 208 803 q 140 728 208 728 q 90 746 108 728 q 72 796 72 764 q 149 935 72 879 q 322 990 226 990 q 485 927 418 990 q 553 756 553 864 q 497 624 553 678 q 363 544 442 571 q 537 460 467 532 q 607 276 607 389 q 513 74 607 163 q 296 -14 419 -14 q 138 30 208 -14 q 68 157 68 74 q 87 207 68 189 q 136 225 106 225 q 204 178 204 225 q 188 137 204 156 q 171 110 171 118 q 210 72 171 88 q 289 56 250 56 q 435 117 379 56 q 490 276 490 178 q 441 438 490 374 q 314 503 392 503 q 211 475 263 503 l 210 475 z "},"4":{"ha":703,"x_min":19,"x_max":663,"o":"m 482 6 l 306 0 q 301 23 301 4 q 310 50 301 42 q 390 66 365 50 q 417 121 415 82 l 414 268 l 26 268 q 19 305 19 272 q 26 344 19 338 l 447 976 q 471 982 453 982 q 497 976 489 982 l 519 344 l 656 344 q 663 301 663 324 q 651 268 663 279 l 522 268 l 528 121 q 553 66 529 82 q 633 50 578 50 q 640 23 640 43 q 638 0 640 3 l 482 6 m 417 822 q 136 347 136 349 q 140 344 136 344 l 404 344 q 414 354 414 344 l 424 821 q 421 825 424 825 q 417 822 418 825 z "},"5":{"ha":646,"x_min":64,"x_max":592,"o":"m 263 535 q 174 520 214 535 q 133 506 135 506 q 118 528 126 506 q 110 567 110 550 l 121 951 q 146 976 121 976 l 364 976 q 457 988 433 976 q 499 1050 481 1000 q 519 1053 501 1053 q 549 1043 536 1053 l 501 900 l 214 900 q 199 876 199 900 l 178 586 q 276 599 233 599 q 503 515 414 599 q 592 315 592 431 q 512 81 592 176 q 290 -14 432 -14 q 134 31 204 -14 q 64 157 64 75 q 82 207 64 189 q 132 225 100 225 q 200 178 200 225 q 183 137 200 156 q 167 110 167 118 q 206 72 167 88 q 283 56 246 56 q 425 127 374 56 q 476 303 476 199 q 417 472 476 408 q 263 535 357 535 z "},"6":{"ha":747,"x_min":74,"x_max":685,"o":"m 396 56 q 525 127 481 56 q 569 306 569 199 q 511 475 569 414 q 383 536 453 536 q 264 494 314 536 q 188 394 214 451 q 396 56 190 56 m 536 881 q 508 917 536 904 q 440 931 479 931 q 238 765 310 931 q 209 660 222 729 q 186 490 196 592 q 414 597 269 597 q 605 507 525 597 q 685 300 685 417 q 605 71 685 156 q 387 -14 525 -14 q 161 103 249 -14 q 74 377 74 221 q 113 672 74 533 q 235 901 153 811 q 421 990 318 990 q 581 952 524 990 q 639 840 639 914 q 621 790 639 808 q 571 772 603 772 q 503 819 503 772 q 519 858 503 839 q 536 881 536 876 z "},"7":{"ha":633,"x_min":21,"x_max":615,"o":"m 75 990 q 372 972 256 972 q 604 976 488 972 q 615 938 615 964 l 610 897 l 290 0 q 225 -6 285 -6 q 161 0 165 -6 l 518 857 l 519 879 q 479 889 514 889 l 178 889 q 106 865 132 889 q 71 772 79 842 q 48 769 68 769 q 21 779 28 769 l 75 990 z "},"8":{"ha":747,"x_min":71,"x_max":681,"o":"m 184 928 q 220 959 184 928 q 371 990 256 990 q 557 929 486 990 q 628 758 628 868 q 461 535 628 635 q 614 423 547 494 q 681 246 681 351 q 588 63 681 140 q 377 -14 496 -14 q 165 58 258 -14 q 71 233 71 131 q 131 411 71 336 q 268 522 190 486 q 163 619 213 556 q 113 756 113 682 q 184 928 113 865 m 383 58 q 423 58 383 58 q 513 108 463 58 q 564 242 564 158 q 512 380 564 326 q 338 475 460 433 q 224 382 260 436 q 188 244 188 328 q 245 109 188 160 q 383 58 303 58 m 367 918 q 337 918 367 918 q 268 883 307 918 q 229 783 229 849 q 271 658 229 718 q 389 575 313 599 q 511 792 511 644 q 469 883 511 849 q 367 918 426 918 z "},"9":{"ha":725,"x_min":63,"x_max":646,"o":"m 338 921 q 219 853 260 921 q 178 679 178 786 q 228 510 178 572 q 342 447 278 447 q 456 488 406 447 q 532 582 506 528 q 338 921 529 921 m 204 96 q 234 59 204 72 q 307 46 264 46 q 533 486 533 46 q 306 386 450 386 q 134 473 206 386 q 63 677 63 560 q 138 892 63 794 q 340 990 214 990 q 586 861 518 990 q 646 549 646 743 q 579 172 646 338 q 477 37 544 88 q 321 -14 410 -14 q 170 22 232 -14 q 108 129 108 58 q 125 184 108 164 q 169 204 142 204 q 238 157 238 204 q 221 119 238 138 q 204 96 204 100 z "}," ":{"ha":328,"x_min":0,"x_max":0,"o":""},"!":{"ha":344,"x_min":100,"x_max":257,"o":"m 113 1051 q 179 1069 135 1069 q 239 1049 224 1069 q 213 838 218 1010 q 206 267 208 657 q 162 260 176 260 q 147 263 147 260 q 136 381 146 265 q 108 878 108 710 q 113 1051 108 1047 m 257 76 q 257 58 257 76 q 235 20 257 40 q 177 0 213 0 q 121 22 142 0 q 100 78 100 44 q 121 135 100 113 q 175 158 142 158 q 233 135 208 158 q 257 76 257 111 z "},"\"":{"ha":392,"x_min":47,"x_max":338,"o":"m 260 1069 q 273 1069 260 1069 q 307 1063 286 1069 q 333 1052 328 1057 q 338 1022 338 1047 q 299 769 338 964 q 285 764 293 764 l 254 774 q 250 856 250 788 q 221 1049 250 1026 q 260 1069 235 1069 m 87 1069 q 100 1069 87 1069 q 133 1063 113 1069 q 159 1052 154 1057 q 164 1022 164 1047 q 125 769 164 964 q 111 764 119 764 l 81 774 q 76 856 76 788 q 47 1049 76 1026 q 87 1069 61 1069 z "},"#":{"ha":757,"x_min":60,"x_max":696,"o":"m 685 615 l 543 617 q 532 390 538 543 q 689 393 647 390 q 696 342 696 368 q 685 306 696 317 q 529 308 676 306 q 518 0 519 35 q 462 -14 504 -14 q 408 8 419 -14 q 443 308 429 111 l 313 308 q 301 0 303 35 q 245 -14 288 -14 q 192 8 203 -14 q 226 308 213 111 q 72 306 79 306 q 60 360 60 336 q 68 393 60 383 q 231 390 89 390 q 240 618 235 460 q 72 615 79 615 q 60 669 60 646 q 68 703 60 693 q 243 700 90 700 q 256 976 251 929 q 312 990 269 990 q 365 968 354 990 q 332 700 343 865 l 460 700 q 472 976 468 929 q 528 990 486 990 q 582 968 571 990 q 549 700 560 865 q 689 703 650 700 q 696 652 696 678 q 685 615 696 626 m 326 617 q 315 389 321 544 l 447 389 q 457 617 451 458 l 326 617 z "},"$":{"ha":740,"x_min":71,"x_max":678,"o":"m 71 276 q 96 282 76 282 q 124 276 115 282 q 191 141 135 194 q 329 72 247 88 q 344 417 336 178 q 119 614 161 513 q 99 719 99 663 q 178 917 99 843 q 363 992 257 992 l 367 1061 q 405 1069 378 1069 q 442 1056 432 1069 q 435 985 436 1013 q 503 960 472 978 q 539 942 533 942 q 546 954 544 942 l 550 985 q 575 990 556 990 q 603 985 594 990 l 622 700 q 595 694 617 694 q 569 700 574 694 q 551 797 563 760 q 510 865 540 833 q 429 906 479 897 q 411 547 417 710 q 622 397 574 460 q 678 244 678 325 q 631 104 678 163 q 394 -12 549 0 l 390 -117 q 351 -125 378 -125 q 315 -111 325 -125 l 324 -12 q 164 32 235 -6 q 153 35 158 35 q 147 22 149 35 l 143 -8 q 116 -14 138 -14 q 90 -8 94 -14 l 71 276 m 554 228 q 517 310 554 275 q 407 383 479 344 q 397 68 406 340 q 507 115 460 72 q 554 228 554 157 m 358 906 q 258 851 296 897 q 219 751 219 804 q 253 660 219 699 q 349 583 286 622 l 358 906 z "},"%":{"ha":1032,"x_min":47,"x_max":985,"o":"m 258 600 q 211 600 258 600 q 106 672 164 600 q 47 834 47 744 q 106 1001 47 924 q 258 1079 164 1079 q 408 1001 351 1079 q 465 834 465 924 q 408 672 465 744 q 258 600 351 600 m 263 1025 q 231 1025 263 1025 q 165 969 199 1025 q 131 838 131 913 q 165 709 131 764 q 260 654 200 654 q 351 708 321 654 q 382 839 382 761 q 354 971 382 917 q 263 1025 326 1025 m 777 0 q 730 0 777 0 q 625 72 683 0 q 567 234 567 144 q 625 401 567 324 q 777 479 683 479 q 928 401 871 479 q 985 234 985 324 q 928 72 985 144 q 777 0 871 0 m 782 425 q 750 425 782 425 q 684 369 718 425 q 650 238 650 313 q 685 109 650 164 q 780 54 719 54 q 871 108 840 54 q 901 239 901 161 q 874 371 901 317 q 782 425 846 425 m 903 1044 q 553 522 800 901 q 221 -1 306 143 q 136 46 150 3 q 489 574 239 192 q 824 1099 739 956 q 872 1083 846 1099 q 903 1044 899 1067 z "},"&":{"ha":1082,"x_min":86,"x_max":1067,"o":"m 358 510 q 242 390 281 453 q 203 244 203 328 q 260 109 203 160 q 399 58 318 58 q 535 101 479 58 q 643 219 592 144 l 358 510 m 521 783 q 487 878 521 838 q 396 918 453 918 q 307 881 339 918 q 275 792 275 844 q 386 622 275 713 q 521 783 521 714 m 879 582 l 1018 596 q 1021 574 1021 593 q 1010 543 1021 554 l 994 543 q 881 478 918 543 l 736 233 l 794 168 q 894 75 860 96 q 976 54 929 54 q 1056 79 1024 54 q 1067 46 1067 67 q 1034 6 1067 25 q 963 -14 1001 -14 q 771 89 876 -14 l 694 167 q 559 31 629 76 q 381 -14 489 -14 q 180 58 274 -14 q 86 242 86 131 q 158 431 86 344 q 296 565 218 501 q 161 782 161 668 q 231 931 161 871 q 393 990 300 990 q 545 938 486 990 q 604 807 604 886 q 565 675 604 728 q 446 567 526 622 l 685 292 l 790 478 q 800 508 800 496 q 706 543 800 543 q 696 572 696 550 q 699 596 696 593 l 879 582 z "},"'":{"ha":218,"x_min":47,"x_max":164,"o":"m 87 1069 q 100 1069 87 1069 q 133 1063 113 1069 q 159 1052 154 1057 q 164 1022 164 1047 q 125 769 164 964 q 111 764 119 764 l 81 774 q 76 856 76 788 q 47 1049 76 1026 q 87 1069 61 1069 z "},"(":{"ha":460,"x_min":49,"x_max":458,"o":"m 458 1044 q 174 333 174 771 q 458 -378 174 -104 q 411 -403 456 -397 q 148 -100 247 -299 q 49 333 49 99 q 148 766 49 567 q 411 1069 247 965 q 456 1050 450 1064 l 458 1044 z "},")":{"ha":460,"x_min":1,"x_max":411,"o":"m 1 -378 q 286 333 286 -104 q 1 1044 286 771 q 49 1069 4 1064 q 312 766 213 965 q 411 333 411 567 q 312 -100 411 99 q 49 -403 213 -299 q 3 -383 10 -397 l 1 -378 z "},"*":{"ha":606,"x_min":69,"x_max":529,"o":"m 475 624 q 324 731 443 624 q 322 661 322 708 q 346 538 322 558 q 304 517 333 517 q 236 556 236 517 q 265 742 236 607 q 126 633 133 671 q 89 660 107 633 q 71 708 71 688 q 88 739 71 728 q 247 801 133 768 q 118 872 146 865 q 76 875 90 878 q 71 897 71 886 q 78 919 71 908 q 128 969 107 969 q 275 858 150 969 q 276 929 276 881 q 254 1051 276 1031 q 298 1069 265 1069 q 348 1058 331 1069 q 365 1033 365 1047 q 333 847 365 992 q 474 956 467 915 q 512 933 496 956 q 528 884 528 910 q 514 851 528 858 q 351 786 461 822 q 378 770 360 782 q 403 753 396 758 q 429 739 411 749 q 455 726 447 729 q 480 717 463 724 q 503 713 497 711 q 525 715 510 715 q 529 688 529 707 q 511 647 529 669 q 475 624 493 624 z "},"+":{"ha":656,"x_min":51,"x_max":604,"o":"m 368 389 q 597 392 569 389 q 604 341 604 367 q 593 304 604 315 q 368 307 538 307 q 371 75 368 101 q 316 63 340 63 q 283 71 292 63 q 286 307 286 124 q 64 304 114 307 q 51 358 51 335 q 60 392 51 382 q 286 389 85 389 q 283 604 286 551 q 338 617 314 617 q 371 608 363 617 q 368 389 368 582 z "},",":{"ha":313,"x_min":72,"x_max":240,"o":"m 151 158 q 169 158 151 158 q 214 131 188 158 q 240 44 240 103 q 215 -72 240 -15 q 114 -190 164 -190 q 97 -179 110 -190 q 76 -135 63 -149 q 161 -43 154 -68 q 164 -21 164 -33 q 141 1 164 -8 q 95 27 118 10 q 72 78 72 44 q 94 135 72 113 q 151 158 115 158 z "},"-":{"ha":628,"x_min":100,"x_max":528,"o":"m 517 304 q 313 307 464 307 q 113 304 163 307 q 100 358 100 335 q 108 392 100 382 q 314 389 133 389 q 521 392 494 389 q 528 341 528 367 q 517 304 528 315 z "},".":{"ha":300,"x_min":72,"x_max":229,"o":"m 229 76 q 229 58 229 76 q 207 20 229 40 q 149 0 185 0 q 93 22 114 0 q 72 78 72 44 q 93 135 72 113 q 147 158 114 158 q 205 135 181 158 q 229 76 229 111 z "},"/":{"ha":550,"x_min":49,"x_max":501,"o":"m 501 1067 q 313 525 444 918 q 142 -14 182 132 q 49 11 67 -14 q 236 554 104 157 q 410 1099 368 951 q 501 1067 485 1099 z "},":":{"ha":344,"x_min":94,"x_max":251,"o":"m 251 584 q 251 566 251 584 q 229 528 251 549 q 172 508 207 508 q 115 531 136 508 q 94 587 94 553 q 115 644 94 621 q 169 667 136 667 q 227 643 203 667 q 251 584 251 619 m 251 76 q 251 58 251 76 q 229 20 251 40 q 172 0 207 0 q 115 22 136 0 q 94 78 94 44 q 115 135 94 113 q 169 158 136 158 q 227 135 203 158 q 251 76 251 111 z "},";":{"ha":350,"x_min":92,"x_max":256,"o":"m 251 584 q 251 566 251 584 q 229 528 251 549 q 172 508 207 508 q 115 531 136 508 q 94 587 94 553 q 115 644 94 621 q 169 667 136 667 q 227 643 203 667 q 251 584 251 619 m 171 150 q 188 150 171 150 q 230 124 204 150 q 256 42 256 99 q 231 -72 256 -15 q 129 -190 179 -190 q 113 -178 125 -190 q 97 -158 101 -167 q 92 -144 92 -149 q 99 -133 92 -139 q 122 -112 106 -126 q 146 -91 139 -97 q 163 -75 153 -85 q 178 -58 174 -65 q 188 -22 188 -35 q 165 1 188 -8 q 119 27 142 10 q 96 76 96 44 q 117 129 96 108 q 171 150 138 150 z "},"<":{"ha":643,"x_min":43,"x_max":565,"o":"m 49 307 q 43 331 43 311 q 49 357 43 351 l 558 646 q 565 595 565 621 q 554 558 565 569 l 185 332 l 558 106 q 565 55 565 81 q 554 18 565 29 l 49 307 z "},"=":{"ha":789,"x_min":118,"x_max":671,"o":"m 660 393 q 394 396 599 396 q 131 393 189 396 q 118 447 118 424 q 126 481 118 471 q 394 478 156 478 q 664 481 633 478 q 671 430 671 456 q 660 393 671 404 m 660 215 q 394 218 599 218 q 131 215 189 218 q 118 269 118 246 q 126 303 118 293 q 394 300 156 300 q 664 303 633 300 q 671 252 671 278 q 660 215 671 226 z "},">":{"ha":643,"x_min":78,"x_max":600,"o":"m 594 357 q 600 331 600 349 q 594 307 600 313 l 89 18 q 78 57 78 29 l 85 106 l 458 332 l 89 558 q 78 597 78 569 l 85 646 l 594 357 z "},"?":{"ha":593,"x_min":46,"x_max":543,"o":"m 346 76 q 346 58 346 76 q 324 20 346 40 q 266 0 301 0 q 210 22 231 0 q 189 78 189 44 q 210 135 189 113 q 264 158 231 158 q 322 135 297 158 q 346 76 346 111 m 219 286 q 217 295 219 286 q 210 346 215 304 q 206 425 206 388 q 210 483 206 463 q 233 526 215 503 q 260 560 251 550 q 301 599 268 569 q 342 638 333 629 q 426 831 426 719 q 381 952 426 906 q 276 999 335 999 q 150 946 150 999 q 166 918 150 938 q 182 876 182 899 q 117 829 182 829 q 65 847 85 829 q 46 893 46 864 q 120 1021 46 972 q 296 1069 194 1069 q 470 998 397 1069 q 543 806 543 926 q 444 613 543 706 q 383 559 424 592 q 332 513 343 526 q 292 381 296 468 l 285 269 q 241 263 256 263 q 225 265 226 263 q 219 286 224 268 z "},"@":{"ha":1038,"x_min":71,"x_max":988,"o":"m 451 244 q 437 235 451 244 q 424 190 424 225 q 443 134 424 156 q 503 113 463 113 q 615 150 543 113 l 613 299 q 451 244 478 264 m 988 388 q 919 153 988 254 q 732 51 851 51 q 615 108 643 51 q 465 51 550 51 q 369 89 408 51 q 329 183 329 126 q 378 279 329 240 q 539 339 426 318 l 611 353 q 611 376 611 365 q 590 480 611 442 q 497 518 569 518 q 425 486 425 518 q 438 466 425 481 q 451 435 451 451 q 399 400 451 400 q 362 414 376 400 q 347 450 347 428 q 399 538 347 504 q 511 572 450 572 q 651 531 610 572 q 693 422 693 490 q 688 200 693 421 q 764 114 686 114 q 854 185 818 114 q 890 379 890 257 q 792 631 890 543 q 531 719 693 719 q 337 653 422 719 q 210 492 251 586 q 168 299 168 397 q 287 -6 168 110 q 594 -122 406 -122 q 810 -74 694 -122 q 822 -101 822 -79 l 821 -114 q 553 -185 708 -185 q 210 -47 349 -185 q 71 289 71 92 q 208 631 71 486 q 535 776 344 776 q 857 672 726 776 q 988 388 988 567 z "},"A":{"ha":932,"x_min":-7,"x_max":972,"o":"m 158 10 l -4 0 q -7 22 -7 1 q 3 53 -7 43 q 75 85 54 53 q 118 174 92 107 l 433 976 q 472 993 447 993 q 488 990 476 993 l 815 174 q 872 81 840 110 q 963 53 903 53 q 972 22 972 40 q 969 0 972 3 l 779 10 l 576 0 q 574 22 574 1 q 583 53 574 43 q 689 118 689 53 q 676 174 689 136 l 622 319 l 271 319 l 217 174 q 201 111 201 135 q 321 53 201 53 q 331 22 331 40 q 328 0 331 3 l 158 10 m 450 829 l 300 397 l 593 397 l 450 829 z "},"B":{"ha":817,"x_min":58,"x_max":753,"o":"m 203 968 l 397 976 q 608 915 526 976 q 689 747 689 854 q 485 526 689 589 q 676 456 599 526 q 753 274 753 385 q 397 0 753 0 l 229 8 l 63 0 q 58 24 58 4 q 67 53 58 44 q 138 70 117 53 q 160 125 160 88 l 167 853 q 146 907 167 890 q 74 924 125 924 q 65 952 65 931 q 68 976 65 974 l 203 968 m 331 540 q 506 590 439 540 q 574 728 574 639 q 346 906 574 906 q 251 897 301 906 l 268 540 l 331 540 m 401 78 q 565 128 503 78 q 628 272 628 178 q 551 416 628 367 q 365 465 475 465 q 272 457 322 465 l 285 182 q 313 99 288 121 q 401 78 338 78 z "},"C":{"ha":850,"x_min":74,"x_max":803,"o":"m 442 -14 q 172 132 271 -14 q 74 492 74 278 q 183 848 74 706 q 482 990 293 990 q 679 944 594 990 q 690 942 685 942 q 697 957 696 942 l 700 990 q 725 996 706 996 q 753 990 744 996 l 772 700 q 745 694 767 694 q 719 700 724 694 q 636 852 707 796 q 472 908 565 908 q 265 807 332 908 q 197 535 197 706 q 325 153 197 283 q 474 82 393 82 q 642 113 556 82 q 779 186 728 143 q 794 163 785 181 q 803 140 803 146 q 799 131 803 135 q 442 -14 654 -14 z "},"D":{"ha":915,"x_min":58,"x_max":843,"o":"m 229 968 l 397 976 q 726 843 608 976 q 843 493 843 710 q 722 138 843 276 q 397 0 601 0 l 229 8 l 63 0 q 58 24 58 4 q 67 53 58 44 q 160 125 160 53 l 167 853 q 146 907 167 890 q 74 924 125 924 q 65 952 65 931 q 68 976 65 974 q 229 968 68 976 m 401 78 q 631 190 540 78 q 721 450 721 303 q 626 780 721 654 q 346 906 532 906 q 253 897 303 906 l 285 182 q 314 100 288 122 q 401 78 340 78 z "},"E":{"ha":849,"x_min":56,"x_max":808,"o":"m 429 532 q 506 586 489 532 q 519 657 511 607 q 544 663 525 663 q 572 657 564 663 q 561 495 561 572 q 572 333 561 418 q 545 328 567 328 q 519 333 524 328 q 505 401 511 381 q 481 437 499 421 q 429 453 463 453 l 275 453 l 283 182 q 305 101 286 124 q 375 78 324 78 l 563 78 q 670 122 626 78 q 756 258 714 165 q 777 261 758 261 q 808 249 796 261 l 736 -14 q 367 4 560 4 q 60 0 175 4 q 56 24 56 4 q 64 53 56 44 q 135 70 114 53 q 157 125 156 88 l 169 851 q 148 906 169 889 q 76 924 126 924 q 67 952 67 931 q 69 976 67 974 q 358 972 186 972 q 711 990 531 972 l 731 746 q 703 740 725 740 q 676 746 681 740 q 631 863 664 833 q 524 893 597 893 l 263 893 l 274 532 l 429 532 z "},"F":{"ha":749,"x_min":58,"x_max":718,"o":"m 229 6 l 63 0 q 58 24 58 4 q 67 53 58 44 q 160 125 160 53 l 167 851 q 146 906 167 889 q 74 924 125 924 q 63 954 63 935 q 65 976 63 974 q 344 972 182 972 q 686 990 506 972 l 718 733 q 691 728 713 728 q 665 733 669 728 q 613 856 653 819 q 499 893 572 893 l 258 893 l 269 532 l 428 532 q 503 586 488 532 q 518 657 510 607 q 543 663 524 663 q 571 657 563 663 q 560 495 560 568 q 571 333 560 422 q 544 328 565 328 q 518 333 522 328 q 503 401 510 381 q 479 437 497 421 q 428 453 461 453 l 271 453 l 286 125 q 308 69 289 86 q 378 53 326 53 q 385 24 385 46 q 382 0 385 3 l 229 6 z "},"G":{"ha":972,"x_min":72,"x_max":939,"o":"m 701 167 l 703 274 q 672 365 703 343 q 515 396 640 386 q 510 422 510 400 q 515 450 510 444 q 724 444 593 444 q 933 450 854 444 q 939 422 939 442 q 933 396 939 401 q 842 368 858 388 q 825 293 825 349 l 825 94 q 669 13 742 39 q 485 -14 596 -14 q 178 128 285 -14 q 72 486 72 271 q 194 846 72 701 q 525 990 317 990 q 735 944 646 990 q 745 942 740 942 q 751 954 750 942 l 756 985 q 781 990 761 990 q 808 985 800 990 l 828 713 q 801 707 822 707 q 775 713 779 707 q 693 858 763 808 q 528 908 624 908 q 197 535 197 908 q 233 328 197 429 q 342 154 268 226 q 514 82 417 82 q 700 118 611 82 q 701 167 701 121 z "},"H":{"ha":1032,"x_min":54,"x_max":981,"o":"m 817 968 l 950 976 q 954 951 954 972 q 947 924 954 931 q 856 858 853 924 l 882 125 q 903 70 883 88 q 974 53 924 53 q 981 24 981 46 q 978 0 981 3 l 822 8 l 658 0 q 654 24 654 4 q 663 53 654 44 q 734 70 713 53 q 756 125 756 88 l 758 468 l 272 468 l 282 125 q 303 70 283 88 q 374 53 324 53 q 381 24 381 46 q 378 0 381 3 l 224 8 l 58 0 q 54 24 54 4 q 63 53 54 44 q 133 70 113 53 q 156 125 154 88 l 171 851 q 150 906 172 889 q 78 924 128 924 q 68 952 68 931 q 71 976 68 974 l 226 968 l 360 976 q 364 951 364 972 q 357 924 364 931 q 285 906 306 924 q 265 851 264 889 l 271 549 l 758 549 l 761 851 q 740 906 761 889 q 668 924 718 924 q 658 952 658 931 q 661 976 658 974 l 817 968 z "},"I":{"ha":439,"x_min":58,"x_max":385,"o":"m 224 968 l 358 976 q 361 952 361 974 q 354 924 361 931 q 285 906 304 924 q 265 851 265 889 l 286 125 q 308 70 288 88 q 378 53 328 53 q 385 24 385 46 q 382 0 385 3 l 228 8 l 63 0 q 58 24 58 4 q 67 53 58 44 q 138 70 117 53 q 160 125 160 88 l 165 851 q 145 906 165 889 q 75 924 125 924 q 67 952 67 931 q 69 976 67 974 q 224 968 69 976 z "},"J":{"ha":407,"x_min":-97,"x_max":347,"o":"m 204 968 l 344 976 q 347 952 347 974 q 340 924 347 931 q 268 906 290 924 q 247 851 246 889 l 264 69 l 264 29 q 201 -150 264 -83 q 33 -217 138 -217 q -58 -186 -18 -217 q -97 -114 -97 -156 q -78 -50 -97 -72 q -31 -28 -58 -28 q 13 -40 -4 -28 q 29 -69 29 -51 q 22 -97 29 -87 q 15 -111 15 -106 q 57 -133 15 -133 q 158 57 158 -133 l 158 97 l 153 851 q 60 924 153 924 q 50 952 50 931 q 53 976 50 974 l 204 968 z "},"K":{"ha":913,"x_min":58,"x_max":935,"o":"m 221 967 l 356 976 q 358 952 358 974 q 351 924 358 931 q 281 906 301 924 q 260 851 260 889 l 271 538 q 313 548 296 539 q 363 592 329 557 q 563 839 432 664 q 582 883 582 863 q 503 924 582 924 q 493 952 493 931 q 496 976 493 974 l 679 965 q 769 971 718 965 q 843 976 819 976 q 846 951 846 971 q 838 924 846 932 q 721 886 763 924 q 676 838 706 872 l 404 513 q 743 146 704 185 q 925 53 839 53 q 935 22 935 40 q 932 0 935 3 l 743 10 l 546 0 q 543 23 543 1 q 551 53 543 44 q 618 78 618 53 q 535 215 618 104 q 365 419 453 326 q 324 453 342 446 q 272 463 306 461 l 286 125 q 308 70 288 88 q 378 53 328 53 q 385 24 385 46 q 382 0 385 3 l 228 8 l 63 0 q 58 24 58 4 q 67 53 58 44 q 138 70 115 53 q 165 125 161 88 l 165 851 q 144 906 165 889 q 72 924 124 924 q 64 952 64 931 q 67 976 64 974 l 221 967 z "},"L":{"ha":749,"x_min":58,"x_max":739,"o":"m 221 968 l 360 976 q 363 952 363 974 q 356 924 363 931 q 285 906 306 924 q 264 851 264 889 l 286 182 q 308 101 289 124 q 378 78 326 78 l 492 78 q 601 121 557 78 q 686 258 644 164 q 708 261 689 261 q 739 249 726 261 l 667 -14 q 334 4 493 4 q 63 0 175 4 q 58 24 58 4 q 67 53 58 44 q 160 125 160 53 l 168 851 q 147 906 168 889 q 75 924 125 924 q 65 952 65 931 q 68 976 65 974 l 221 968 z "},"M":{"ha":1211,"x_min":36,"x_max":1175,"o":"m 1018 8 l 853 0 q 849 24 849 4 q 857 53 849 44 q 925 68 899 53 q 950 125 951 83 l 921 736 l 625 0 q 594 -6 619 -6 q 565 0 569 -6 l 275 736 q 238 117 238 119 q 331 53 238 53 q 340 22 340 40 q 338 0 340 3 l 179 8 l 40 0 q 36 24 36 4 q 44 53 36 44 q 113 69 93 53 q 136 125 133 86 l 197 851 q 183 910 197 899 q 114 924 169 922 q 106 952 106 931 q 108 976 106 974 q 207 968 167 968 q 314 976 247 968 l 607 178 l 919 976 q 1017 968 986 968 q 1107 976 1049 968 q 1111 951 1111 972 q 1104 924 1111 931 q 1032 907 1051 924 q 1013 860 1013 890 q 1076 125 1013 856 q 1099 69 1079 86 q 1168 53 1119 53 q 1175 24 1175 46 q 1172 0 1175 3 l 1018 8 z "},"N":{"ha":1026,"x_min":56,"x_max":978,"o":"m 832 968 l 975 976 q 978 952 978 971 q 968 924 978 933 q 897 907 917 924 q 876 851 876 890 l 865 0 q 831 -6 860 -6 q 799 0 803 -6 l 251 829 l 276 125 q 298 69 278 86 q 369 53 318 53 q 379 22 379 40 q 376 0 379 3 l 204 8 l 60 0 q 56 24 56 4 q 64 53 56 44 q 134 70 114 53 q 156 125 154 88 l 171 851 q 150 906 172 889 q 78 924 128 924 q 68 952 68 931 q 71 976 68 974 q 185 968 129 968 q 299 976 240 968 l 793 188 l 769 851 q 747 906 768 889 q 678 924 726 924 q 669 952 669 932 q 674 976 669 972 l 832 968 z "},"O":{"ha":976,"x_min":74,"x_max":904,"o":"m 74 489 q 253 921 74 789 q 478 990 346 990 q 792 848 681 990 q 904 490 904 706 q 792 130 904 274 q 481 -14 681 -14 q 178 129 282 -14 q 74 489 74 272 m 501 68 q 783 446 783 68 q 718 764 783 636 q 620 870 683 832 q 469 908 557 908 q 260 806 325 908 q 194 539 194 703 q 294 167 194 299 q 381 95 328 122 q 501 68 435 68 z "},"P":{"ha":761,"x_min":58,"x_max":718,"o":"m 201 968 l 408 976 q 629 906 540 976 q 718 714 718 836 q 610 488 718 571 q 346 401 503 404 q 331 424 340 407 q 321 447 321 442 q 322 454 321 453 q 593 694 593 454 q 533 856 593 806 q 354 906 472 906 q 250 896 297 906 l 286 125 q 308 69 289 86 q 378 53 328 53 q 385 24 385 46 q 382 0 385 3 l 229 8 l 63 0 q 58 24 58 4 q 67 53 58 44 q 160 125 160 53 l 165 853 q 144 907 165 890 q 72 924 124 924 q 64 952 64 931 q 67 976 64 974 l 201 968 z "},"Q":{"ha":976,"x_min":74,"x_max":1153,"o":"m 581 0 q 901 -126 813 -126 q 1024 -100 960 -126 q 1133 -37 1088 -74 q 1153 -89 1144 -40 q 1013 -174 1103 -132 q 840 -215 922 -215 q 617 -149 758 -215 q 443 -83 475 -83 q 391 -90 411 -83 q 359 -106 371 -97 q 319 -136 347 -114 q 306 -114 314 -131 q 297 -89 297 -97 q 347 -43 297 -75 q 435 -8 396 -11 q 233 75 317 3 q 74 492 74 211 q 177 851 74 711 q 481 990 281 990 q 793 850 682 990 q 904 492 904 710 q 820 172 904 307 q 581 0 736 36 m 501 71 q 717 174 651 71 q 783 443 783 276 q 719 765 783 636 q 621 871 685 833 q 464 908 557 908 q 307 857 371 908 q 219 727 243 806 q 194 550 194 649 q 210 372 194 451 q 260 222 226 292 q 356 112 294 153 q 501 71 418 71 z "},"R":{"ha":871,"x_min":58,"x_max":911,"o":"m 354 906 q 250 896 297 906 l 264 507 l 339 507 q 510 560 443 507 q 576 708 576 613 q 518 854 576 803 q 354 906 460 906 m 201 968 l 408 976 q 613 903 526 976 q 700 727 700 831 q 641 549 700 624 q 478 446 582 474 l 618 283 q 792 99 738 144 q 903 53 846 53 q 911 22 911 42 q 908 0 911 3 q 835 6 888 0 q 746 13 783 13 q 642 6 708 13 q 550 0 575 0 q 547 22 547 1 q 557 53 547 43 q 622 81 622 53 q 512 247 622 114 q 367 406 401 379 q 272 432 333 432 l 286 125 q 308 70 288 88 q 378 53 328 53 q 385 24 385 46 q 382 0 385 3 l 229 8 l 63 0 q 58 24 58 4 q 67 53 58 44 q 160 125 160 53 l 165 853 q 144 907 165 890 q 72 924 124 924 q 64 952 64 931 q 67 976 64 974 l 201 968 z "},"S":{"ha":742,"x_min":74,"x_max":681,"o":"m 553 985 q 578 990 558 990 q 606 985 597 990 l 625 700 q 598 694 619 694 q 572 700 576 694 q 531 846 561 792 q 392 908 493 908 q 269 860 315 908 q 222 753 222 813 q 269 647 222 693 q 384 565 317 601 q 519 488 451 528 q 633 385 586 447 q 681 240 681 322 q 628 97 681 158 q 372 -14 532 -14 q 167 32 257 -14 q 156 35 161 35 q 150 22 151 35 l 146 -8 q 119 -14 140 -14 q 93 -8 97 -14 l 74 276 q 99 282 79 282 q 126 276 118 282 q 214 124 139 181 q 388 68 289 68 q 505 110 453 68 q 557 228 557 153 q 510 317 557 276 q 396 392 463 358 q 263 465 329 426 q 149 569 196 504 q 101 719 101 635 q 180 917 101 843 q 360 992 258 992 q 531 946 461 992 q 542 942 536 942 q 549 954 547 942 l 553 985 z "},"T":{"ha":794,"x_min":22,"x_max":769,"o":"m 411 8 l 246 0 q 242 25 242 4 q 249 53 242 46 q 320 70 299 53 q 342 125 342 88 l 347 903 l 235 903 q 120 868 151 903 q 75 754 89 833 q 48 749 69 749 q 22 754 26 749 l 46 990 q 396 975 200 975 q 749 990 592 975 l 769 754 q 742 749 764 749 q 717 754 721 749 q 673 868 703 833 q 560 903 643 903 l 444 903 l 469 125 q 491 70 471 88 q 561 53 511 53 q 568 25 568 46 q 564 0 568 4 l 411 8 z "},"U":{"ha":988,"x_min":17,"x_max":974,"o":"m 792 968 l 971 976 q 974 951 974 971 q 965 924 974 932 q 878 906 904 924 q 851 851 851 889 l 849 344 q 747 81 847 176 q 481 -14 647 -14 q 227 81 314 -14 q 142 344 140 175 l 143 851 q 119 907 143 890 q 25 924 94 924 q 17 952 17 932 q 21 976 17 972 l 211 968 l 392 976 q 394 952 394 974 q 388 924 394 931 q 292 906 319 924 q 267 851 265 889 l 279 360 q 330 142 283 217 q 501 68 376 68 q 691 146 626 68 q 754 360 756 224 l 749 851 q 713 905 749 886 q 622 924 678 924 q 614 952 614 932 q 618 976 614 972 l 792 968 z "},"V":{"ha":967,"x_min":-32,"x_max":978,"o":"m 783 964 l 975 976 q 978 952 978 971 q 968 924 978 933 q 892 894 921 924 q 838 803 863 865 l 518 0 q 488 -6 513 -6 q 458 0 463 -6 l 122 803 q 74 894 92 876 q -22 924 43 924 q -32 952 -32 931 q -29 976 -32 974 l 176 964 l 376 976 q 379 952 379 971 q 369 924 379 933 q 250 854 250 924 q 261 803 250 832 l 501 176 l 738 803 q 747 850 747 832 q 628 924 747 924 q 618 952 618 931 q 621 976 618 974 l 783 964 z "},"W":{"ha":1363,"x_min":-31,"x_max":1371,"o":"m 1189 964 l 1368 976 q 1371 952 1371 971 q 1361 924 1371 933 q 1288 894 1315 924 q 1238 803 1260 865 l 943 0 q 916 -6 938 -6 q 890 0 894 -6 l 681 544 l 482 0 q 455 -6 476 -6 q 429 0 433 -6 q 97 858 103 846 q 75 890 90 871 q -22 924 47 924 q -31 952 -31 931 q -28 976 -31 974 l 168 964 q 253 970 206 964 q 324 976 300 976 q 326 952 326 971 q 317 924 326 933 q 231 867 231 924 q 246 803 231 842 l 468 176 l 636 661 q 548 884 556 869 q 534 902 540 899 q 518 913 528 906 q 465 924 503 924 q 456 952 456 931 q 458 976 456 974 q 539 970 481 976 q 635 964 597 964 q 736 970 672 964 q 822 976 800 976 q 825 951 825 971 q 817 924 825 932 q 694 857 694 924 q 707 803 694 833 l 929 176 l 1149 803 q 1157 847 1157 828 q 1043 924 1157 924 q 1033 952 1033 931 q 1036 976 1033 974 q 1189 964 1036 976 z "},"X":{"ha":1000,"x_min":6,"x_max":996,"o":"m 197 964 l 394 976 q 397 952 397 971 q 388 924 397 933 q 314 888 314 924 q 372 774 314 856 l 507 585 l 699 839 q 717 881 717 863 q 621 924 717 924 q 613 951 613 929 q 615 976 613 974 q 701 970 639 976 q 801 964 763 964 q 900 970 839 964 q 985 976 961 976 q 988 954 988 974 q 976 924 988 935 q 886 911 910 924 q 813 832 863 899 l 565 501 q 816 151 803 165 q 845 118 829 136 q 872 93 861 100 q 897 76 882 86 q 925 61 911 65 q 986 53 958 53 q 996 22 996 40 q 993 0 996 3 q 915 6 969 0 q 821 11 861 11 l 606 0 q 603 22 603 1 q 613 53 603 43 q 682 88 682 53 q 621 207 682 118 l 489 397 l 296 135 q 269 81 269 99 q 353 53 269 53 q 363 23 363 43 q 360 0 363 3 q 283 6 336 0 q 192 11 231 11 l 8 0 q 6 22 6 3 q 17 53 6 42 q 104 69 69 53 q 182 144 139 86 l 432 482 q 273 706 311 651 q 223 776 235 760 q 190 821 211 793 q 157 860 168 849 q 127 887 146 871 q 94 908 108 903 q 18 924 54 924 q 10 952 10 931 q 13 976 10 974 q 97 970 35 976 q 197 964 158 964 z "},"Y":{"ha":889,"x_min":-44,"x_max":901,"o":"m 461 8 l 296 0 q 292 24 292 4 q 300 53 292 44 q 371 70 350 53 q 393 125 392 88 l 400 356 q 116 851 128 835 q 83 886 104 867 q -35 924 46 924 q -44 952 -44 931 q -42 976 -44 974 q 46 970 -17 976 q 151 964 108 964 q 254 970 194 964 q 340 976 314 976 q 343 952 343 971 q 333 924 343 933 q 247 875 247 924 q 275 799 247 844 l 465 483 l 629 799 q 664 890 664 865 q 604 924 664 924 q 594 953 594 933 q 597 976 594 974 q 669 970 619 976 q 753 964 718 964 q 833 970 789 964 q 899 976 876 976 q 901 951 901 971 q 893 924 901 932 q 793 893 828 924 q 724 799 758 863 l 503 382 l 519 125 q 542 70 522 88 q 611 53 561 53 q 619 24 619 44 q 615 0 619 4 l 461 8 z "},"Z":{"ha":817,"x_min":51,"x_max":746,"o":"m 190 100 q 181 79 181 86 q 185 71 181 72 l 560 83 q 647 140 625 85 q 672 311 669 194 q 684 313 674 313 q 718 307 694 313 q 746 297 742 301 l 729 -14 q 362 4 549 4 q 58 0 175 4 q 51 21 51 1 l 63 93 l 586 869 q 590 889 592 879 q 564 896 589 896 l 294 881 q 175 846 200 874 q 136 732 150 818 q 108 726 131 726 q 82 732 86 726 l 106 990 q 448 972 286 972 q 726 976 610 972 q 740 935 740 971 l 739 904 l 190 100 z "},"[":{"ha":522,"x_min":108,"x_max":513,"o":"m 501 1069 q 510 1038 510 1057 q 497 982 510 1019 q 249 988 436 988 l 201 988 l 208 -318 q 500 -315 465 -318 q 513 -369 513 -346 q 504 -403 513 -392 q 251 -389 356 -389 q 108 -390 147 -389 l 122 1056 q 253 1054 157 1054 q 501 1069 350 1054 z "},"\\":{"ha":549,"x_min":47,"x_max":500,"o":"m 47 1060 q 77 1082 54 1074 q 139 1092 100 1090 q 313 547 181 944 q 500 4 444 150 q 407 -21 481 -21 q 235 518 367 125 q 47 1060 104 911 z "},"]":{"ha":522,"x_min":10,"x_max":414,"o":"m 18 -403 q 10 -370 10 -394 q 22 -315 10 -346 q 314 -318 57 -318 l 321 988 l 274 988 q 25 982 86 988 q 13 1036 13 1013 q 21 1069 13 1060 q 269 1054 172 1054 q 400 1056 365 1054 l 414 -390 q 271 -389 375 -389 q 18 -403 167 -389 z "},"^":{"ha":633,"x_min":31,"x_max":603,"o":"m 292 976 q 315 982 297 982 q 342 976 333 982 l 603 499 q 563 493 596 493 q 525 499 531 493 l 317 840 l 108 499 q 69 493 101 493 q 31 499 36 493 l 292 976 z "},"_":{"ha":876,"x_min":86,"x_max":792,"o":"m 781 0 q 438 3 656 3 q 99 0 221 3 q 86 54 86 31 q 94 88 86 78 q 439 85 156 85 q 785 88 722 85 q 792 37 792 63 q 781 0 792 11 z "},"`":{"ha":336,"x_min":47,"x_max":314,"o":"m 47 961 q 69 1022 47 981 q 122 1063 90 1063 q 314 843 174 963 q 301 808 311 822 q 284 793 292 793 q 162 869 276 793 q 47 961 47 944 z "},"a":{"ha":667,"x_min":54,"x_max":660,"o":"m 236 -14 q 107 35 160 -14 q 54 161 54 85 q 119 288 54 238 q 333 369 183 339 l 429 389 l 429 424 q 397 565 429 521 q 288 608 364 608 q 182 565 182 608 q 199 538 182 557 q 215 498 215 519 q 197 463 215 476 q 147 450 178 450 q 98 468 117 450 q 79 518 79 486 q 148 635 79 589 q 297 681 217 681 q 483 626 428 681 q 539 479 539 571 q 533 150 539 476 q 593 61 532 61 q 650 75 618 61 q 660 44 660 58 q 657 26 660 29 q 608 -1 643 13 q 535 -14 574 -14 q 435 61 475 -14 q 236 -14 347 -14 m 358 299 q 216 245 251 272 q 181 172 181 218 q 206 96 181 125 q 267 67 231 67 q 351 83 303 67 q 433 119 399 99 l 431 317 l 358 299 z "},"b":{"ha":758,"x_min":-10,"x_max":697,"o":"m 576 326 q 386 614 576 614 q 271 567 328 614 q 215 464 214 519 l 224 171 q 294 92 249 125 q 385 60 340 60 q 527 138 478 60 q 576 326 576 217 m 153 -8 q 127 -14 147 -14 q 103 -8 107 -14 l 110 885 q -6 956 110 956 q -10 978 -10 960 q -1 1006 -10 997 q 85 1019 51 1010 q 147 1056 119 1028 q 171 1061 153 1061 q 197 1056 189 1061 l 211 599 q 417 681 293 681 q 619 577 540 681 q 697 326 697 474 q 623 82 697 178 q 415 -14 549 -14 q 297 18 354 -14 q 201 99 239 50 l 153 -8 z "},"c":{"ha":626,"x_min":61,"x_max":579,"o":"m 572 82 q 344 -14 483 -14 q 133 82 204 -14 q 61 329 61 178 q 143 581 61 481 q 368 681 225 681 q 515 635 458 681 q 572 521 572 589 q 554 471 572 489 q 505 453 536 453 q 455 466 474 453 q 436 501 436 479 q 453 541 436 522 q 469 568 469 560 q 435 600 469 586 q 367 614 400 614 q 233 547 285 614 q 182 364 182 481 q 360 74 182 74 q 467 91 411 74 q 557 136 522 108 q 571 117 563 132 q 579 95 579 101 q 572 82 579 89 z "},"d":{"ha":792,"x_min":61,"x_max":781,"o":"m 182 313 q 231 132 182 204 q 374 60 279 60 q 465 93 418 60 q 536 171 511 126 l 539 464 q 483 567 539 519 q 372 614 428 614 q 182 313 182 614 m 781 38 q 746 4 781 22 q 665 -14 711 -14 q 590 14 618 -14 q 556 69 563 42 l 550 99 q 335 -14 461 -14 q 135 76 210 -14 q 61 313 61 165 q 140 571 61 461 q 351 681 219 681 q 540 599 458 681 l 543 885 q 407 956 543 956 q 403 978 403 960 q 411 1006 403 997 q 581 1056 507 1011 q 604 1061 586 1061 q 631 1056 622 1061 l 657 160 q 719 63 660 63 q 771 75 742 63 q 781 38 781 63 z "},"e":{"ha":674,"x_min":61,"x_max":615,"o":"m 600 82 q 360 -14 504 -14 q 139 84 217 -14 q 61 333 61 182 q 138 582 61 483 q 351 681 215 681 q 551 585 486 681 q 615 340 615 490 l 183 340 q 233 151 183 228 q 374 74 282 74 q 585 136 499 74 q 599 117 590 132 q 607 95 607 101 q 600 82 607 89 m 185 413 l 381 411 q 493 419 486 411 q 494 443 494 426 q 457 561 494 508 q 349 614 419 614 q 235 559 279 614 q 185 413 192 504 z "},"f":{"ha":471,"x_min":47,"x_max":536,"o":"m 228 8 l 51 0 q 47 23 47 4 q 56 50 47 42 q 136 66 111 50 q 163 121 161 82 l 168 553 l 60 553 q 47 595 47 575 q 56 625 47 615 l 168 625 l 171 772 q 228 984 174 899 q 392 1069 283 1069 q 494 1044 451 1069 q 536 980 536 1018 q 517 922 536 942 q 465 903 497 903 q 401 950 401 903 q 407 974 401 964 q 413 988 413 983 q 375 1004 413 1004 q 302 958 338 1004 q 267 815 267 911 q 271 625 267 811 l 429 625 q 436 585 436 606 q 425 553 436 564 l 274 553 l 285 121 q 310 66 286 82 q 390 50 335 50 q 397 23 397 43 q 394 0 397 3 l 228 8 z "},"g":{"ha":694,"x_min":43,"x_max":685,"o":"m 610 681 q 663 660 642 681 q 685 610 685 639 q 668 563 685 581 q 625 544 651 544 q 571 585 571 544 q 576 605 571 596 q 582 618 582 614 q 574 622 582 622 q 517 583 553 622 q 569 412 569 513 q 500 235 569 311 q 317 158 431 158 q 244 168 275 158 q 193 124 193 149 q 246 78 193 92 q 346 57 293 64 q 601 -15 535 32 q 668 -166 668 -62 q 575 -336 668 -269 q 356 -403 482 -403 q 136 -348 229 -403 q 43 -176 43 -293 q 76 -79 43 -118 q 176 -3 108 -40 q 101 106 101 38 q 183 194 101 160 q 100 289 129 229 q 71 419 71 349 q 138 605 71 529 q 310 681 204 681 q 482 621 415 681 q 610 681 542 681 m 560 -192 q 489 -86 560 -110 q 365 -58 450 -72 q 243 -32 279 -44 q 165 -172 165 -62 q 216 -288 165 -246 q 347 -331 267 -331 q 493 -294 426 -331 q 560 -192 560 -257 m 181 433 q 181 394 181 433 q 222 294 181 356 q 330 233 263 233 q 428 282 397 233 q 460 408 460 331 q 419 550 460 486 q 310 614 378 614 q 212 563 243 614 q 181 433 181 511 z "},"h":{"ha":826,"x_min":26,"x_max":813,"o":"m 244 560 q 479 681 365 681 q 631 621 574 681 q 692 464 689 561 l 701 121 q 726 66 703 82 q 806 50 750 50 q 813 23 813 43 q 810 0 813 3 l 644 8 l 475 0 q 471 23 471 4 q 479 50 471 42 q 555 66 532 50 q 579 121 578 82 l 585 439 q 547 551 586 508 q 439 594 508 594 q 283 515 369 594 q 253 488 257 490 l 264 121 q 288 66 265 82 q 363 50 310 50 q 369 23 369 43 q 367 0 369 3 l 207 8 l 31 0 q 26 23 26 4 q 35 50 26 42 q 116 66 90 50 q 142 121 142 82 l 146 885 q 31 956 146 956 q 26 978 26 960 q 35 1006 26 997 q 122 1019 88 1010 q 183 1056 156 1028 q 207 1061 189 1061 q 233 1056 225 1061 l 244 560 z "},"i":{"ha":418,"x_min":44,"x_max":397,"o":"m 290 851 q 290 833 290 851 q 268 795 290 815 q 210 775 246 775 q 154 797 175 775 q 133 853 133 819 q 154 910 133 888 q 208 933 175 933 q 266 910 242 933 q 290 851 290 886 m 228 8 l 51 0 q 47 23 47 4 q 56 50 47 42 q 137 66 111 50 q 163 121 163 82 l 164 497 q 49 568 164 568 q 44 591 44 572 q 53 618 44 610 q 135 628 96 618 q 187 647 174 639 q 209 663 200 654 q 236 672 218 672 q 263 667 254 672 l 285 121 q 310 66 286 82 q 390 50 335 50 q 397 23 397 43 q 394 0 397 3 l 228 8 z "},"j":{"ha":356,"x_min":-110,"x_max":269,"o":"m 269 851 q 269 834 269 851 q 247 796 269 817 q 189 775 224 775 q 133 797 154 775 q 113 853 113 819 q 133 910 113 886 q 188 933 154 933 q 245 910 221 933 q 269 851 269 886 m 14 -321 q 49 -337 14 -337 q 119 -287 85 -337 q 153 -149 154 -237 l 143 497 q 28 568 142 568 q 24 591 24 572 q 32 618 24 610 q 197 667 125 625 q 224 672 208 672 q 247 667 239 672 l 251 -126 q 192 -328 253 -253 q 28 -403 132 -403 q -70 -378 -31 -403 q -110 -303 -110 -353 q -90 -252 -110 -272 q -41 -232 -69 -232 q 6 -246 -12 -232 q 25 -278 25 -260 q 19 -307 25 -297 q 14 -321 14 -317 z "},"k":{"ha":747,"x_min":26,"x_max":744,"o":"m 207 6 l 31 0 q 26 23 26 4 q 35 50 26 42 q 116 66 90 50 q 142 121 142 82 l 147 885 q 32 956 147 956 q 28 978 28 960 q 36 1006 28 997 q 185 1056 108 1011 q 211 1061 196 1061 q 235 1056 226 1061 l 256 386 q 308 419 276 386 q 372 484 340 451 q 420 533 404 517 q 450 564 436 549 q 475 601 475 592 q 419 617 475 617 q 411 644 411 625 q 415 667 411 663 l 542 658 l 689 667 q 692 644 692 664 q 685 617 692 624 q 544 568 590 617 l 357 365 q 652 74 621 97 q 738 50 683 50 q 744 23 744 43 q 742 0 744 3 l 613 6 l 447 0 q 443 23 443 4 q 451 50 443 42 q 494 72 494 50 q 315 286 494 93 q 257 314 289 314 l 264 121 q 290 66 265 82 q 369 50 314 50 q 376 23 376 43 q 374 0 376 3 l 207 6 z "},"l":{"ha":399,"x_min":22,"x_max":372,"o":"m 203 8 l 26 0 q 22 25 22 4 q 31 50 22 46 q 113 66 88 50 q 138 121 138 82 l 151 885 q 36 956 151 956 q 32 978 32 960 q 40 1006 32 997 q 189 1056 113 1011 q 215 1061 200 1061 q 239 1056 231 1061 l 260 121 q 285 66 261 82 q 365 50 308 50 q 372 24 372 46 q 369 0 372 3 l 203 8 z "},"m":{"ha":1285,"x_min":42,"x_max":1274,"o":"m 222 8 l 46 0 q 42 23 42 4 q 50 50 42 42 q 132 66 107 50 q 157 121 157 82 l 161 510 q 135 565 161 549 q 53 581 110 581 q 49 603 49 585 q 57 631 49 622 q 83 633 63 631 q 110 637 104 636 q 131 641 115 638 q 156 650 147 644 q 194 676 183 665 q 222 686 204 686 q 249 681 240 686 l 260 560 q 428 669 354 647 q 497 681 463 681 q 617 647 567 681 q 692 553 668 613 q 936 681 819 681 q 1088 621 1031 681 q 1149 464 1144 561 l 1163 121 q 1188 66 1164 82 q 1267 50 1211 50 q 1274 23 1274 43 q 1271 0 1274 3 l 1106 8 l 929 0 q 925 23 925 4 q 933 50 925 42 q 1015 66 990 50 q 1040 121 1040 82 l 1042 439 q 1003 551 1042 508 q 890 594 964 594 q 708 488 815 594 l 719 121 q 744 66 721 82 q 824 50 768 50 q 831 23 831 43 q 828 0 831 3 l 663 8 l 486 0 q 482 23 482 4 q 490 50 482 42 q 571 66 546 50 q 597 121 596 82 l 603 439 q 565 551 604 508 q 457 594 526 594 q 398 581 429 594 q 347 553 367 567 q 268 488 292 511 l 279 121 q 305 66 281 82 q 385 50 329 50 q 392 23 392 43 q 389 0 392 3 l 222 8 z "},"n":{"ha":835,"x_min":42,"x_max":821,"o":"m 260 560 q 481 681 381 681 q 640 621 582 681 q 700 464 697 561 l 710 121 q 735 66 711 82 q 814 50 758 50 q 821 23 821 43 q 818 0 821 3 l 653 8 l 483 0 q 479 23 479 4 q 488 50 479 42 q 563 66 540 50 q 588 121 586 82 l 593 439 q 556 551 594 508 q 447 594 517 594 q 343 553 397 594 q 299 515 325 539 q 268 488 274 492 l 279 121 q 303 66 281 82 q 378 50 325 50 q 385 23 385 43 q 382 0 385 3 l 222 8 l 46 0 q 42 23 42 4 q 50 50 42 42 q 131 66 106 50 q 157 121 157 82 l 161 510 q 135 565 161 549 q 53 581 110 581 q 49 603 49 585 q 57 631 49 622 q 83 633 63 631 q 110 637 104 636 q 131 641 115 638 q 156 650 147 644 q 194 676 183 665 q 222 686 204 686 q 249 681 240 686 l 260 560 z "},"o":{"ha":718,"x_min":63,"x_max":657,"o":"m 135 84 q 99 133 135 84 q 63 333 63 182 q 135 583 63 485 q 356 681 208 681 q 580 582 503 681 q 657 333 657 483 q 580 85 657 183 q 356 -14 503 -14 q 135 84 208 -14 m 508 136 q 539 321 539 200 q 491 528 539 442 q 353 614 443 614 q 197 504 231 614 q 181 358 181 446 q 228 144 181 226 q 375 61 276 61 q 508 136 474 61 z "},"p":{"ha":789,"x_min":25,"x_max":728,"o":"m 607 340 q 558 528 607 450 q 415 607 510 607 q 317 571 369 607 q 239 490 264 535 l 250 203 q 306 100 251 147 q 417 53 361 53 q 607 340 607 53 m 206 -381 l 29 -389 q 25 -366 25 -385 q 33 -339 25 -347 q 115 -323 89 -339 q 140 -268 140 -307 l 144 510 q 117 565 144 549 q 31 581 90 581 q 26 603 26 585 q 35 631 26 622 q 174 675 111 640 q 200 681 185 681 q 224 675 215 681 l 236 568 q 446 681 325 681 q 657 587 586 681 q 728 343 728 493 q 649 90 728 193 q 438 -14 571 -14 q 251 68 333 -14 l 263 -268 q 288 -323 264 -307 q 368 -339 313 -339 q 375 -366 375 -346 q 372 -389 375 -386 l 206 -381 z "},"q":{"ha":756,"x_min":61,"x_max":778,"o":"m 182 326 q 231 136 182 219 q 374 53 281 53 q 485 101 425 53 q 546 203 544 149 l 549 490 q 472 572 522 536 q 372 607 422 607 q 182 326 182 607 m 599 -381 l 432 -389 q 428 -366 428 -385 q 436 -339 428 -347 q 517 -322 492 -339 q 542 -268 542 -306 l 544 68 q 333 -14 463 -14 q 132 80 203 -14 q 61 324 61 174 q 140 577 61 474 q 351 681 218 681 q 546 599 464 681 l 603 675 q 626 681 608 681 q 653 675 644 681 l 642 565 l 664 -268 q 690 -323 665 -307 q 771 -339 715 -339 q 778 -366 778 -346 q 775 -389 778 -386 l 599 -381 z "},"r":{"ha":569,"x_min":42,"x_max":553,"o":"m 222 8 l 46 0 q 42 23 42 4 q 50 50 42 42 q 131 66 106 50 q 157 121 157 82 l 161 510 q 135 565 161 549 q 53 581 110 581 q 49 603 49 585 q 57 631 49 622 q 83 633 63 631 q 110 637 104 636 q 131 641 115 638 q 156 650 147 644 q 194 676 183 665 q 222 686 204 686 q 249 681 240 686 l 263 536 q 344 636 288 592 q 464 681 400 681 q 527 656 501 681 q 553 598 553 632 q 533 544 553 564 q 483 524 514 524 q 417 571 417 524 q 424 593 417 583 q 431 607 431 603 q 421 611 431 611 q 327 533 386 611 q 269 392 268 456 l 279 121 q 305 66 281 82 q 385 50 329 50 q 392 23 392 43 q 389 0 392 3 l 222 8 z "},"s":{"ha":593,"x_min":58,"x_max":539,"o":"m 328 681 q 457 645 403 681 q 511 557 511 610 q 492 506 511 525 q 445 486 474 486 q 398 499 417 486 q 379 531 379 511 q 385 564 379 551 q 390 585 390 576 q 326 615 390 615 q 226 588 263 615 q 189 521 189 560 q 225 450 189 482 q 313 392 261 418 q 415 337 364 365 q 503 265 467 308 q 539 169 539 222 q 465 33 539 81 q 292 -14 390 -14 q 126 32 193 -14 q 58 167 58 78 q 76 216 58 197 q 126 235 94 235 q 194 188 194 235 q 178 146 194 165 q 161 119 161 126 q 201 76 161 94 q 288 58 240 58 q 382 83 335 58 q 429 160 429 107 q 307 269 429 214 q 204 317 256 292 q 117 387 153 343 q 82 486 82 431 q 149 629 82 578 q 328 681 217 681 z "},"t":{"ha":497,"x_min":33,"x_max":479,"o":"m 240 242 q 260 112 242 151 q 334 72 279 72 q 457 110 389 72 q 471 89 463 104 q 479 68 479 74 q 478 61 479 63 q 290 -14 397 -14 q 122 215 122 -14 q 129 581 122 222 l 42 581 q 33 608 33 589 q 38 631 33 626 q 140 684 110 647 q 182 786 169 721 q 206 792 188 792 q 232 786 224 792 l 235 653 l 446 653 q 453 613 453 633 q 442 581 453 592 l 235 581 l 240 242 z "},"u":{"ha":814,"x_min":25,"x_max":801,"o":"m 572 107 q 350 -14 451 -14 q 190 47 249 -14 q 132 203 131 107 l 133 496 q 110 551 133 536 q 29 567 86 567 q 25 588 25 571 q 33 617 25 604 q 112 631 83 622 q 175 667 140 640 q 203 671 181 671 q 229 667 225 671 l 239 228 q 278 115 240 157 q 385 72 317 72 q 489 114 435 72 q 533 151 507 128 q 564 179 558 175 l 564 496 q 540 551 564 535 q 460 567 515 567 q 456 590 456 571 q 464 617 456 608 q 542 631 514 622 q 606 667 571 640 q 633 671 611 671 q 660 667 656 671 l 674 157 q 739 63 676 63 q 792 75 761 63 q 801 38 801 63 q 767 4 801 22 q 694 -14 732 -14 q 634 -1 656 -14 q 601 29 613 11 q 572 107 579 65 z "},"v":{"ha":736,"x_min":-6,"x_max":739,"o":"m 610 658 l 736 667 q 739 644 739 664 q 732 617 739 624 q 669 604 689 617 q 638 557 650 592 l 428 0 q 383 -6 422 -6 q 340 0 344 -6 l 107 557 q 73 604 93 592 q 3 617 53 617 q -6 644 -6 625 q -1 667 -6 663 l 157 658 l 324 667 q 329 644 329 663 q 319 617 329 626 q 231 582 231 617 q 236 557 231 576 l 394 113 l 535 557 q 539 579 539 571 q 454 617 539 617 q 446 644 446 625 q 450 667 446 663 l 610 658 z "},"w":{"ha":1133,"x_min":-6,"x_max":1136,"o":"m 1007 660 l 1133 667 q 1136 644 1136 664 q 1129 617 1136 624 q 1067 604 1086 617 q 1035 557 1047 592 l 825 0 q 781 -6 819 -6 q 738 0 742 -6 l 576 393 l 428 0 q 383 -6 422 -6 q 340 0 344 -6 l 107 557 q 73 604 93 592 q 3 617 53 617 q -6 644 -6 625 q -1 667 -6 663 l 157 660 l 324 667 q 326 644 326 664 q 319 617 326 624 q 231 582 231 617 q 236 557 231 575 l 394 113 l 522 514 l 504 557 q 472 605 489 593 q 413 617 456 617 q 404 644 404 625 q 408 667 404 663 l 578 660 l 721 667 q 724 644 724 664 q 717 617 724 624 q 650 609 671 617 q 629 585 629 601 q 633 557 629 568 l 792 113 l 932 557 q 936 579 936 569 q 851 617 936 617 q 843 644 843 625 q 847 667 843 663 l 1007 660 z "},"x":{"ha":736,"x_min":15,"x_max":733,"o":"m 600 8 l 435 0 q 431 23 431 4 q 439 50 431 42 q 486 69 486 50 q 446 140 486 88 l 349 271 l 222 92 q 210 64 210 72 q 261 50 210 50 q 269 23 269 42 q 265 0 269 4 l 151 8 l 32 0 q 28 23 28 4 q 36 50 28 42 q 111 60 94 50 q 149 99 128 69 l 308 329 q 108 588 139 560 q 26 617 78 617 q 15 640 15 617 q 19 667 15 663 l 149 658 l 300 667 q 304 644 304 663 q 296 617 304 625 q 249 599 249 617 q 289 529 249 582 l 381 410 l 496 574 q 506 596 506 588 q 443 617 506 617 q 435 644 435 625 q 439 667 435 663 l 565 658 l 685 667 q 688 644 688 664 q 681 617 688 624 q 605 606 622 617 q 568 568 588 596 l 421 358 q 560 178 536 210 q 594 134 585 146 q 619 104 603 122 q 644 79 635 86 q 667 64 653 72 q 725 50 690 50 q 733 23 733 42 q 729 0 733 4 l 600 8 z "},"y":{"ha":747,"x_min":-6,"x_max":747,"o":"m 151 658 l 313 667 q 315 644 315 664 q 308 617 315 624 q 232 583 232 617 q 239 557 232 574 l 415 129 l 543 557 q 546 579 546 565 q 476 617 546 617 q 468 644 468 625 q 472 667 468 663 l 618 658 l 744 667 q 747 644 747 664 q 740 617 747 624 q 676 604 696 617 q 646 557 657 592 l 439 -58 q 338 -301 379 -235 q 194 -403 274 -403 q 101 -373 143 -403 q 58 -287 58 -343 q 80 -240 58 -258 q 130 -222 101 -222 q 176 -238 158 -222 q 193 -274 193 -254 q 184 -304 193 -294 q 175 -319 175 -314 q 201 -337 175 -337 q 267 -276 226 -337 q 332 -149 308 -214 q 376 -8 356 -83 l 107 557 q 70 603 90 590 q 3 617 50 617 q -6 644 -6 625 q -1 667 -6 663 l 151 658 z "},"z":{"ha":617,"x_min":51,"x_max":567,"o":"m 517 667 q 524 642 524 664 q 521 617 524 621 l 201 92 q 194 77 194 82 q 201 72 194 72 l 446 89 q 503 116 493 94 q 517 214 514 138 q 537 217 519 217 q 567 204 554 217 l 551 -14 q 242 1 393 1 q 56 0 92 1 q 51 11 51 1 l 60 54 l 374 581 q 374 592 378 588 q 329 596 369 596 l 242 596 q 147 582 168 596 q 111 508 125 568 q 84 500 103 500 q 61 504 65 500 l 86 681 q 363 665 244 665 q 517 667 481 665 z "},"{":{"ha":444,"x_min":28,"x_max":429,"o":"m 426 -344 q 429 -372 429 -350 q 419 -403 429 -393 q 202 -337 257 -403 q 147 -99 147 -271 q 138 169 147 99 q 115 261 129 239 q 33 304 90 304 q 28 333 28 308 q 33 363 28 357 q 115 406 90 363 q 143 550 139 443 q 147 765 147 657 q 202 1003 147 938 q 419 1069 257 1069 q 429 1035 429 1057 q 426 1011 429 1014 q 383 1014 396 1014 q 269 959 296 1014 q 243 788 243 904 q 250 518 250 522 q 203 388 250 438 q 114 333 157 339 q 203 278 157 328 q 250 149 250 228 q 243 -121 250 144 q 269 -293 243 -239 q 383 -347 296 -347 q 426 -344 396 -347 z "},"|":{"ha":322,"x_min":100,"x_max":224,"o":"m 203 454 l 210 -314 l 210 -385 q 153 -403 192 -403 q 100 -382 114 -403 q 119 193 119 -199 l 113 939 q 114 1051 113 1019 q 171 1069 132 1069 q 224 1049 210 1069 q 203 454 203 861 z "},"}":{"ha":444,"x_min":15,"x_max":417,"o":"m 18 -344 q 78 -347 49 -347 q 136 -332 107 -347 q 201 -147 201 -299 q 198 5 201 -133 q 194 149 194 143 q 241 278 194 228 q 331 333 288 328 q 241 388 288 339 q 194 518 194 438 q 199 664 194 522 q 203 840 203 806 q 195 913 203 874 q 155 983 188 953 q 61 1014 122 1014 q 18 1011 49 1014 q 15 1035 15 1014 q 25 1069 15 1057 q 242 1003 188 1069 q 297 765 297 938 q 306 498 297 568 q 329 406 315 428 q 411 363 354 363 q 417 333 417 357 q 411 304 417 308 q 329 261 354 304 q 301 117 306 224 q 297 -99 297 10 q 242 -337 297 -271 q 25 -403 188 -403 q 15 -372 15 -393 q 18 -344 15 -350 z "},"~":{"ha":789,"x_min":90,"x_max":703,"o":"m 701 368 q 619 322 672 344 q 516 300 567 300 q 390 326 465 300 q 288 351 315 351 q 114 303 211 351 q 90 346 90 314 l 92 357 q 186 406 119 381 q 307 432 253 432 q 439 406 361 432 q 540 381 517 381 q 578 383 564 381 q 608 390 593 385 q 679 422 658 408 q 703 379 703 408 l 701 368 z "},"ยก":{"ha":339,"x_min":93,"x_max":250,"o":"m 93 823 q 93 840 93 823 q 114 879 93 857 q 170 901 135 901 q 228 881 206 901 q 250 826 250 861 q 226 767 250 790 q 168 743 201 743 q 114 766 135 743 q 93 823 93 789 m 114 -151 q 110 -28 110 -147 q 119 248 110 92 q 138 519 128 404 q 148 638 147 635 q 161 640 149 640 l 207 633 q 220 -47 211 33 q 240 -149 229 -128 q 181 -169 225 -169 q 114 -151 136 -169 z "},"ยข":{"ha":639,"x_min":65,"x_max":583,"o":"m 364 -161 q 325 -169 351 -169 q 289 -156 299 -169 q 299 -11 293 -108 q 125 97 185 4 q 65 328 65 190 q 133 563 65 467 q 321 676 200 658 q 328 844 322 761 q 366 853 339 853 q 403 839 393 853 q 392 679 396 756 q 525 629 474 674 q 576 521 576 585 q 558 471 576 489 q 508 453 539 453 q 459 466 478 453 q 440 501 440 479 q 457 541 440 522 q 474 568 474 560 q 447 597 474 583 q 388 613 419 610 q 371 74 381 482 q 561 136 488 76 q 583 101 583 114 q 576 82 583 89 q 369 -12 482 -12 l 364 -161 m 186 364 q 303 85 186 131 q 318 606 307 193 q 222 524 257 586 q 186 364 186 461 z "},"ยฃ":{"ha":774,"x_min":53,"x_max":729,"o":"m 222 568 l 225 715 q 296 917 225 843 q 490 992 367 992 q 588 967 549 992 q 628 892 628 942 q 608 841 628 861 q 557 821 589 821 q 493 868 493 821 q 499 890 493 881 q 506 901 506 900 q 460 915 506 915 q 369 873 415 915 q 324 747 324 831 q 329 526 324 743 q 557 529 529 526 q 564 483 564 507 q 553 449 564 460 l 332 449 l 335 382 l 335 368 q 249 147 335 222 q 326 157 300 157 q 460 118 385 157 q 560 79 536 79 q 711 183 635 79 q 729 144 729 165 q 726 133 729 142 q 640 35 707 85 q 517 -14 572 -14 q 413 26 490 -14 q 288 65 335 65 q 180 38 240 65 q 88 -14 119 10 q 85 19 85 -8 q 97 63 85 47 q 194 204 168 114 q 224 449 221 294 l 65 449 q 53 499 53 476 q 61 529 53 521 q 224 526 81 526 q 222 568 222 543 z "},"ยค":{"ha":763,"x_min":72,"x_max":690,"o":"m 590 578 q 649 406 649 501 q 590 236 649 310 q 690 133 669 150 q 663 95 683 115 q 626 75 643 75 q 531 179 600 103 q 381 135 461 135 q 233 182 300 135 l 136 75 q 103 90 119 75 q 72 133 88 104 q 174 239 96 154 q 119 405 119 310 q 174 574 119 500 q 76 675 126 625 q 103 713 83 693 q 140 733 124 733 l 233 632 q 381 681 300 681 q 531 635 463 681 l 621 733 q 653 719 638 733 q 685 675 669 704 l 590 578 m 384 190 q 423 190 384 190 q 509 254 463 190 q 556 410 556 318 q 511 562 556 501 q 383 622 467 622 q 256 562 299 622 q 213 410 213 501 q 259 255 213 319 q 384 190 306 190 z "},"ยฅ":{"ha":1035,"x_min":42,"x_max":988,"o":"m 894 579 q 694 582 894 579 l 593 390 q 899 393 863 390 q 906 342 906 368 q 894 306 906 317 q 593 308 822 308 l 606 125 q 628 70 608 88 q 697 53 647 53 q 704 24 704 46 q 701 0 704 3 l 547 8 l 382 0 q 378 24 378 4 q 386 53 378 44 q 457 70 436 53 q 479 125 478 88 l 485 308 q 157 306 235 308 q 144 360 144 336 q 153 393 144 383 q 467 390 189 390 l 357 582 l 157 579 q 144 633 144 610 q 153 667 144 657 q 311 664 197 664 l 235 799 q 163 894 199 864 q 51 924 126 924 q 42 952 42 931 q 44 976 42 974 q 132 970 69 976 q 238 964 194 964 q 340 970 281 964 q 426 976 400 976 q 429 952 429 971 q 419 924 429 933 q 333 875 333 924 q 361 799 333 844 l 551 483 l 715 799 q 750 890 750 865 q 690 924 750 924 q 681 952 681 931 q 683 976 681 974 q 755 970 706 976 q 840 964 804 964 q 919 970 875 964 q 985 976 963 976 q 988 951 988 971 q 979 924 988 932 q 879 893 914 924 q 810 799 844 863 l 739 664 q 899 667 851 664 q 906 616 906 642 q 894 579 906 590 z "},"ยฆ":{"ha":324,"x_min":100,"x_max":224,"o":"m 118 494 l 113 994 q 114 1053 113 1050 q 171 1071 132 1071 q 224 1050 210 1071 q 203 408 206 992 q 138 401 156 401 q 119 404 119 401 q 118 494 118 454 m 210 -383 q 153 -401 192 -401 q 100 -381 114 -401 q 118 -60 118 -337 l 118 99 q 119 258 118 210 q 181 265 163 265 q 203 261 199 265 q 206 92 204 165 q 208 -61 207 19 q 211 -283 211 -219 l 211 -358 q 210 -383 211 -369 z "},"ยง":{"ha":639,"x_min":68,"x_max":572,"o":"m 474 986 q 492 990 475 990 q 514 986 510 990 l 529 765 q 508 761 525 761 q 488 765 492 761 q 451 885 479 844 q 355 926 422 926 q 251 889 288 926 q 215 806 215 851 q 252 724 215 760 q 342 659 289 688 q 447 599 394 631 q 535 519 499 568 q 572 406 572 471 q 532 296 572 342 q 429 226 492 250 q 540 51 540 149 q 463 -99 540 -47 q 299 -151 386 -151 q 140 -117 211 -151 q 132 -114 135 -114 q 124 -147 129 -114 q 103 -151 119 -151 q 83 -147 88 -151 l 68 74 q 89 78 72 78 q 110 74 106 78 q 178 -44 119 -1 q 300 -87 236 -87 q 404 -55 364 -87 q 444 36 444 -22 q 319 164 444 100 q 216 221 268 190 q 127 302 164 251 q 90 420 90 353 q 123 538 90 488 q 208 611 156 588 q 122 778 122 681 q 183 934 122 876 q 321 992 244 992 q 443 964 397 992 q 464 953 461 953 q 474 986 468 953 m 436 471 q 416 486 436 471 q 348 526 396 501 q 283 561 300 551 q 210 517 238 551 q 183 445 183 483 q 210 375 183 407 q 258 329 236 343 q 315 296 281 315 q 354 274 350 276 q 440 310 403 276 q 476 392 476 343 q 436 471 476 440 z "},"ยจ":{"ha":481,"x_min":44,"x_max":436,"o":"m 64 813 q 54 822 64 813 q 44 864 44 832 q 63 917 44 896 q 111 939 81 939 q 165 917 142 939 q 188 867 188 896 q 115 793 188 796 q 64 813 83 793 m 313 813 q 303 822 313 813 q 293 864 293 832 q 311 917 293 896 q 360 939 329 939 q 413 917 390 939 q 436 867 436 896 q 364 793 436 796 q 313 813 332 793 z "},"ยฉ":{"ha":871,"x_min":85,"x_max":788,"o":"m 435 990 q 508 990 435 990 q 684 883 581 990 q 788 627 788 775 q 684 372 788 479 q 435 265 581 265 q 187 372 289 265 q 85 626 85 478 q 187 883 85 775 q 435 990 289 990 m 434 315 q 498 315 434 315 q 650 406 563 315 q 738 626 738 496 q 649 848 738 756 q 433 940 561 940 q 220 848 306 940 q 135 625 135 756 q 220 405 135 494 q 434 315 306 315 m 579 486 q 596 459 596 465 q 592 449 596 453 q 430 382 525 382 q 285 449 335 382 q 236 619 236 515 q 293 793 236 724 q 449 863 350 863 q 551 831 511 863 q 590 751 590 799 q 543 704 590 704 q 496 738 496 704 q 508 765 496 753 q 519 785 519 778 q 495 807 519 797 q 447 817 471 817 q 355 770 390 817 q 319 643 319 724 q 443 443 319 443 q 579 486 529 443 z "},"ยช":{"ha":510,"x_min":60,"x_max":457,"o":"m 189 617 q 159 617 189 617 q 94 649 129 617 q 60 731 60 682 q 102 814 60 781 q 243 868 144 847 l 306 881 l 306 903 q 284 995 306 967 q 203 1024 263 1024 q 144 996 144 1024 q 155 978 144 990 q 165 951 165 965 q 121 921 165 921 q 89 933 101 921 q 76 965 76 944 q 122 1041 76 1011 q 219 1071 167 1071 q 378 933 381 1071 l 374 725 q 413 667 372 667 q 450 675 428 667 q 457 655 457 664 q 454 643 457 646 q 382 617 428 617 q 310 667 336 617 q 189 617 249 617 m 167 788 q 155 778 167 788 q 143 738 143 769 q 160 688 143 707 q 212 669 176 669 q 308 704 247 669 l 307 833 q 167 788 192 806 z "},"ยซ":{"ha":597,"x_min":58,"x_max":524,"o":"m 64 328 q 58 344 58 333 q 64 358 58 354 q 165 463 151 447 q 196 498 179 479 q 222 531 213 517 q 268 596 254 572 q 277 599 271 599 q 292 596 283 599 q 308 589 301 593 q 322 572 322 576 q 272 487 322 567 q 175 343 221 407 q 270 203 218 288 q 322 113 322 118 q 318 103 322 107 q 283 85 296 85 q 268 88 271 85 q 64 328 215 176 m 265 328 q 260 344 260 333 q 264 358 260 354 q 367 463 353 447 q 397 498 381 479 q 425 531 414 517 q 469 596 456 572 q 478 599 472 599 q 494 596 485 599 q 508 589 503 593 q 524 572 524 576 q 473 487 524 567 q 376 343 422 407 q 472 203 419 288 q 524 113 524 118 q 519 103 524 107 q 485 85 497 85 q 469 88 472 85 q 265 328 417 176 z "},"ยฌ":{"ha":753,"x_min":99,"x_max":649,"o":"m 649 379 l 646 214 q 649 79 646 129 q 592 72 621 72 q 553 83 564 72 q 564 206 564 119 q 563 311 564 293 q 401 313 550 313 q 111 304 253 313 q 99 358 99 335 q 107 392 99 382 q 399 388 156 388 l 638 392 q 649 379 649 392 z "},"ยฎ":{"ha":871,"x_min":85,"x_max":788,"o":"m 435 990 q 508 990 435 990 q 684 883 581 990 q 788 627 788 775 q 684 372 788 479 q 435 265 581 265 q 187 372 289 265 q 85 626 85 478 q 187 883 85 775 q 435 990 289 990 m 434 315 q 498 315 434 315 q 650 406 563 315 q 738 626 738 496 q 649 848 738 756 q 433 940 561 940 q 220 848 306 940 q 135 625 135 756 q 220 405 135 494 q 434 315 306 315 m 325 853 l 421 857 q 524 824 481 857 q 568 744 568 792 q 533 662 568 696 q 438 614 499 628 q 582 454 561 472 q 626 435 603 436 q 631 420 631 431 q 629 408 631 410 l 556 415 l 468 408 q 467 420 467 410 q 471 435 467 431 q 500 444 500 435 q 431 547 500 458 q 390 597 401 588 q 358 607 379 607 l 364 467 q 374 442 365 449 q 406 435 382 435 q 410 420 410 431 q 408 408 410 410 l 336 413 l 261 408 q 260 420 260 410 q 264 435 260 431 q 303 467 303 435 l 306 799 q 265 831 306 831 q 261 847 261 839 q 264 857 261 854 l 325 853 m 508 733 q 508 754 508 733 q 478 799 508 775 q 410 822 447 822 q 349 815 372 822 l 357 644 l 392 644 q 476 668 444 644 q 508 733 508 692 z "},"ยฏ":{"ha":600,"x_min":31,"x_max":569,"o":"m 558 818 q 301 821 492 821 q 43 818 110 821 q 31 872 31 849 q 39 906 31 896 q 301 903 72 903 q 563 906 529 903 q 569 855 569 881 q 558 818 569 829 z "},"ยฐ":{"ha":474,"x_min":57,"x_max":417,"o":"m 236 990 q 274 990 236 990 q 364 935 311 990 q 417 803 417 879 q 365 673 417 726 q 236 619 313 619 q 108 673 160 619 q 57 803 57 726 q 109 935 57 879 q 236 990 161 990 m 236 689 q 260 689 236 689 q 316 722 283 689 q 349 806 349 756 q 317 888 349 856 q 236 921 286 921 q 156 888 186 921 q 125 806 125 856 q 157 722 125 756 q 236 689 189 689 z "},"ยฑ":{"ha":688,"x_min":81,"x_max":607,"o":"m 596 -3 q 344 0 538 0 q 94 -3 150 0 q 82 51 82 28 q 90 85 82 75 q 344 82 118 82 q 600 85 571 82 q 607 34 607 60 q 596 -3 607 8 m 383 494 q 599 497 572 494 q 606 447 606 472 q 594 410 606 421 q 383 413 542 413 q 386 194 383 219 q 331 182 356 182 q 299 190 307 182 q 301 413 301 240 q 93 410 140 413 q 81 464 81 440 q 89 497 81 488 q 301 494 113 494 q 299 696 301 646 q 353 708 329 708 q 386 700 378 708 q 383 494 383 675 z "},"ยฒ":{"ha":517,"x_min":50,"x_max":454,"o":"m 206 869 q 294 991 254 922 q 333 1115 333 1060 q 303 1196 333 1169 q 231 1222 272 1222 q 164 1210 189 1222 q 139 1179 139 1199 q 150 1163 139 1175 q 161 1136 161 1150 q 117 1104 161 1104 q 84 1117 96 1104 q 72 1149 72 1129 q 124 1238 72 1206 q 246 1269 176 1269 q 363 1233 315 1269 q 411 1121 411 1196 q 387 1017 411 1064 q 348 946 363 971 q 303 881 333 921 q 256 819 272 840 q 150 689 226 781 q 144 675 144 683 q 183 674 144 674 l 247 674 q 382 692 358 674 q 408 803 406 710 q 426 806 414 806 q 454 794 439 806 l 428 618 q 215 625 364 625 l 54 626 q 50 638 50 628 l 58 679 q 206 869 72 721 z "},"ยณ":{"ha":454,"x_min":51,"x_max":401,"o":"m 143 935 q 133 947 139 935 q 126 965 126 960 q 128 971 126 971 q 290 1122 290 1018 q 266 1194 290 1167 q 205 1222 242 1222 q 144 1209 168 1222 q 121 1183 121 1196 q 131 1159 121 1171 q 142 1129 142 1147 q 98 1099 142 1099 q 54 1147 54 1099 q 104 1233 54 1196 q 216 1269 154 1269 q 322 1228 278 1269 q 365 1128 365 1188 q 243 979 365 1022 q 356 925 310 972 q 401 805 401 878 q 340 675 401 732 q 199 618 279 618 q 97 647 142 618 q 51 724 51 675 q 95 772 51 772 q 139 742 139 772 q 128 715 139 728 q 118 697 118 703 q 144 673 118 683 q 194 663 169 663 q 289 702 253 663 q 325 806 325 742 q 293 911 325 869 q 220 953 261 953 q 144 935 179 953 l 143 935 z "},"ยด":{"ha":336,"x_min":47,"x_max":314,"o":"m 314 978 q 199 885 314 961 q 77 810 85 810 q 63 819 69 810 q 47 860 50 839 q 239 1079 188 979 q 292 1038 271 1079 q 314 978 314 997 z "},"ยต":{"ha":865,"x_min":50,"x_max":826,"o":"m 597 107 q 369 -14 476 -14 q 247 21 296 -14 l 247 -271 q 225 -283 243 -276 q 185 -289 207 -289 q 153 -268 163 -289 l 158 496 q 135 550 158 533 q 61 567 113 567 q 50 585 50 567 q 58 617 50 604 q 200 667 143 626 q 228 671 206 671 q 254 667 250 671 l 264 228 q 303 115 265 157 q 410 72 342 72 q 514 114 460 72 q 558 151 532 128 q 589 179 583 175 l 589 496 q 565 551 589 535 q 485 567 540 567 q 481 590 481 571 q 489 617 481 608 q 566 631 538 622 q 631 667 594 640 q 658 671 636 671 q 685 667 681 671 l 699 157 q 764 63 701 63 q 817 75 786 63 q 826 38 826 63 q 792 4 826 22 q 719 -14 757 -14 q 659 -1 681 -14 q 626 29 638 11 q 597 107 604 65 z "},"ยถ":{"ha":735,"x_min":51,"x_max":692,"o":"m 526 968 l 689 976 q 692 951 692 971 q 683 924 692 932 q 592 908 614 924 q 569 853 569 892 l 565 124 q 506 -78 564 -4 q 346 -153 449 -153 q 248 -126 288 -153 q 208 -46 208 -100 q 228 6 208 -14 q 276 25 247 25 q 324 12 306 25 q 343 -21 343 -1 q 337 -51 343 -40 q 331 -65 331 -62 q 367 -87 331 -87 q 440 -29 404 -87 q 476 146 476 29 q 471 896 476 147 q 406 906 443 906 q 307 841 354 906 q 260 666 260 776 q 311 492 260 556 q 411 426 363 428 q 415 419 415 426 q 405 396 415 413 q 389 374 394 379 q 149 460 246 376 q 51 682 51 543 q 128 899 51 821 q 319 976 204 976 l 526 968 z "},"ยท":{"ha":326,"x_min":85,"x_max":242,"o":"m 242 348 q 242 330 242 348 q 219 292 242 313 q 162 272 197 272 q 106 294 126 272 q 85 351 85 317 q 106 408 85 385 q 160 431 126 431 q 217 407 193 431 q 242 348 242 383 z "},"ยธ":{"ha":307,"x_min":38,"x_max":272,"o":"m 147 -286 q 159 -286 147 -286 q 190 -260 171 -286 q 208 -212 208 -233 q 206 -181 208 -190 q 202 -165 204 -172 q 193 -150 200 -158 q 168 -124 179 -133 q 153 -112 157 -115 q 134 -98 149 -108 q 113 -83 119 -87 q 107 -71 107 -79 q 114 -49 107 -62 l 157 40 l 206 40 q 161 -53 161 -49 q 168 -64 161 -58 q 272 -207 272 -133 q 236 -292 272 -257 q 153 -326 200 -326 q 72 -303 106 -326 q 38 -237 38 -281 q 47 -210 38 -221 q 71 -200 56 -200 q 108 -229 108 -200 q 101 -250 108 -240 q 93 -261 93 -260 q 108 -279 93 -272 q 147 -286 122 -286 z "},"ยน":{"ha":444,"x_min":42,"x_max":392,"o":"m 226 633 l 57 626 q 53 641 53 628 q 60 658 53 654 q 153 674 125 658 q 182 740 181 690 l 185 1088 q 159 1153 186 1140 q 44 1165 132 1165 q 42 1181 42 1171 q 49 1199 42 1192 q 214 1260 164 1204 q 229 1264 217 1264 q 246 1260 242 1264 l 265 740 q 294 674 267 690 q 385 658 321 658 q 392 642 392 654 q 389 626 392 629 l 226 633 z "},"ยบ":{"ha":508,"x_min":63,"x_max":450,"o":"m 110 681 q 86 713 110 681 q 63 843 63 744 q 110 1006 63 942 q 254 1069 158 1069 q 400 1006 350 1069 q 450 844 450 942 q 400 681 450 746 q 254 617 350 617 q 110 681 158 617 m 140 856 q 140 815 140 856 q 171 720 140 774 q 265 667 201 667 q 351 709 328 667 q 374 833 374 751 q 342 970 374 914 q 249 1026 311 1026 q 163 982 186 1026 q 140 856 140 938 z "},"ยป":{"ha":596,"x_min":74,"x_max":539,"o":"m 128 88 q 119 85 125 85 q 103 88 113 85 q 89 94 94 90 q 74 113 74 107 q 126 203 74 118 q 221 343 178 288 q 124 487 175 407 q 74 572 74 567 q 78 581 74 576 q 113 599 100 599 q 128 596 125 599 q 186 513 156 547 q 226 469 217 479 q 253 439 235 458 q 279 413 272 419 q 332 360 306 386 q 338 344 338 354 q 332 328 338 333 q 128 88 181 176 m 329 88 q 320 85 326 85 q 305 88 314 85 q 289 94 296 90 q 275 113 275 107 q 327 203 275 118 q 422 343 379 288 q 326 487 376 407 q 275 572 275 567 q 279 581 275 576 q 314 599 301 599 q 329 596 326 599 q 388 513 357 547 q 427 469 418 479 q 455 439 436 458 q 481 413 474 419 q 533 360 507 386 q 539 344 539 354 q 533 328 539 333 q 329 88 382 176 z "},"ยผ":{"ha":1117,"x_min":47,"x_max":1068,"o":"m 232 483 l 63 476 q 58 491 58 478 q 65 508 58 504 q 158 524 131 508 q 188 590 186 540 l 190 938 q 165 1003 192 990 q 50 1015 138 1015 q 47 1031 47 1021 q 54 1049 47 1042 q 219 1110 169 1054 q 235 1114 222 1114 q 251 1110 247 1114 l 271 590 q 299 524 272 540 q 390 508 326 508 q 397 492 397 504 q 394 476 397 479 l 232 483 m 951 33 l 838 29 q 835 42 835 31 q 839 61 835 53 q 908 107 908 61 l 907 203 l 656 203 q 651 228 651 207 q 656 253 651 249 l 929 663 q 944 667 931 667 q 961 663 957 667 l 975 253 l 1064 253 q 1068 224 1068 239 q 1061 203 1068 210 l 978 203 l 981 107 q 1049 61 982 61 q 1054 43 1054 56 q 1051 29 1054 31 l 951 33 m 729 253 l 901 253 q 907 260 907 253 l 914 563 q 912 565 914 565 q 908 563 910 565 l 728 257 q 729 253 725 253 m 964 1044 q 614 522 861 901 q 282 -1 367 143 q 197 46 211 3 q 550 574 300 192 q 885 1099 800 956 q 933 1083 907 1099 q 964 1044 960 1067 z "},"ยฝ":{"ha":1181,"x_min":46,"x_max":1132,"o":"m 964 1044 q 614 522 861 901 q 282 -1 367 143 q 197 46 211 3 q 550 574 300 192 q 885 1099 800 956 q 933 1083 907 1099 q 964 1044 960 1067 m 231 483 l 61 476 q 57 491 57 478 q 64 508 57 504 q 157 524 129 508 q 186 590 185 540 l 189 938 q 163 1003 190 990 q 49 1015 136 1015 q 46 1031 46 1021 q 53 1049 46 1042 q 218 1110 168 1054 q 233 1114 219 1114 q 250 1110 246 1114 l 269 590 q 298 524 271 540 q 389 508 325 508 q 396 492 396 504 q 393 476 396 479 l 231 483 m 883 269 q 972 392 932 324 q 1011 516 1011 461 q 981 597 1011 571 q 908 624 950 624 q 842 612 867 624 q 817 581 817 600 q 828 564 817 576 q 839 538 839 551 q 794 506 839 506 q 762 518 774 506 q 750 550 750 531 q 802 639 750 607 q 924 671 854 671 q 1041 634 993 671 q 1089 522 1089 597 q 1065 419 1089 465 q 1026 347 1040 372 q 981 282 1011 322 q 933 221 950 242 q 828 90 904 183 q 822 76 822 85 q 861 75 822 75 l 925 75 q 1060 93 1036 75 q 1086 204 1083 111 q 1104 207 1092 207 q 1132 196 1117 207 l 1106 19 q 893 26 1042 26 l 732 28 q 728 39 728 29 l 736 81 q 883 269 750 122 z "},"ยพ":{"ha":1125,"x_min":56,"x_max":1076,"o":"m 960 33 l 846 29 q 843 42 843 31 q 847 61 843 53 q 917 107 917 61 l 915 203 l 664 203 q 660 228 660 207 q 664 253 660 249 l 938 663 q 952 667 939 667 q 969 663 965 667 l 983 253 l 1072 253 q 1076 224 1076 239 q 1069 203 1076 210 l 986 203 l 989 107 q 1057 61 990 61 q 1063 43 1063 56 q 1060 29 1063 31 l 960 33 m 738 253 l 910 253 q 915 260 915 253 l 922 563 q 920 565 922 565 q 917 563 918 565 l 736 257 q 738 253 733 253 m 972 1044 q 622 522 869 901 q 290 -1 375 143 q 206 46 219 3 q 558 574 308 192 q 893 1099 808 956 q 942 1083 915 1099 q 972 1044 968 1067 m 147 793 q 137 806 143 793 q 131 824 131 818 q 132 829 131 829 q 294 981 294 876 q 270 1053 294 1025 q 209 1081 246 1081 q 149 1067 172 1081 q 125 1042 125 1054 q 135 1017 125 1029 q 146 988 146 1006 q 102 957 146 957 q 58 1006 58 957 q 108 1091 58 1054 q 220 1128 158 1128 q 326 1087 282 1128 q 369 986 369 1046 q 247 838 369 881 q 360 783 314 831 q 406 663 406 736 q 344 533 406 590 q 203 476 283 476 q 101 505 146 476 q 56 582 56 533 q 99 631 56 631 q 143 600 143 631 q 133 574 143 586 q 122 556 122 561 q 148 531 122 542 q 199 521 174 521 q 293 560 257 521 q 329 664 329 600 q 297 769 329 728 q 224 811 265 811 q 149 793 183 811 l 147 793 z "},"ยฟ":{"ha":593,"x_min":50,"x_max":547,"o":"m 247 841 q 247 859 247 841 q 269 897 247 876 q 327 917 292 917 q 383 894 363 917 q 404 838 404 872 q 383 781 404 804 q 329 758 363 758 q 272 782 296 758 q 247 841 247 806 m 374 631 q 376 622 374 631 q 383 571 378 613 q 388 492 388 529 q 383 434 388 454 q 360 390 378 414 q 333 357 342 367 q 292 317 325 347 q 251 279 260 288 q 167 86 167 197 q 213 -35 167 11 q 317 -82 258 -82 q 443 -29 443 -82 q 427 -1 443 -21 q 411 40 411 18 q 476 88 411 88 q 528 70 508 88 q 547 24 547 53 q 473 -104 547 -56 q 297 -153 399 -153 q 123 -81 196 -153 q 50 111 50 -10 q 149 304 50 211 q 210 358 169 325 q 261 404 250 390 q 301 536 297 449 l 308 647 q 352 654 338 654 q 368 651 367 654 q 374 631 369 649 z "},"ร":{"ha":932,"x_min":-7,"x_max":972,"o":"m 261 1215 q 260 1232 260 1219 q 274 1283 260 1244 q 318 1328 288 1322 q 544 1146 388 1236 q 539 1108 546 1124 q 525 1090 532 1093 q 390 1145 515 1090 q 261 1215 265 1200 m 158 10 l -4 0 q -7 22 -7 1 q 3 53 -7 43 q 75 85 54 53 q 118 174 92 107 l 433 976 q 472 993 447 993 q 488 990 476 993 l 815 174 q 872 81 840 110 q 963 53 903 53 q 972 22 972 40 q 969 0 972 3 l 779 10 l 576 0 q 574 22 574 1 q 583 53 574 43 q 689 118 689 53 q 676 174 689 136 l 622 319 l 271 319 l 217 174 q 201 111 201 135 q 321 53 201 53 q 331 22 331 40 q 328 0 331 3 l 158 10 m 450 829 l 300 397 l 593 397 l 450 829 z "},"ร":{"ha":932,"x_min":-7,"x_max":972,"o":"m 365 1139 l 365 1146 q 592 1328 522 1236 q 636 1283 622 1322 q 650 1232 650 1244 q 649 1215 650 1219 q 519 1145 644 1200 q 385 1090 394 1090 q 365 1139 365 1099 m 158 10 l -4 0 q -7 22 -7 1 q 3 53 -7 43 q 75 85 54 53 q 118 174 92 107 l 433 976 q 472 993 447 993 q 488 990 476 993 l 815 174 q 872 81 840 110 q 963 53 903 53 q 972 22 972 40 q 969 0 972 3 l 779 10 l 576 0 q 574 22 574 1 q 583 53 574 43 q 689 118 689 53 q 676 174 689 136 l 622 319 l 271 319 l 217 174 q 201 111 201 135 q 321 53 201 53 q 331 22 331 40 q 328 0 331 3 l 158 10 m 450 829 l 300 397 l 593 397 l 450 829 z "},"ร":{"ha":932,"x_min":-7,"x_max":972,"o":"m 158 10 l -4 0 q -7 22 -7 1 q 3 53 -7 43 q 75 85 54 53 q 118 174 92 107 l 433 976 q 472 993 447 993 q 488 990 476 993 l 815 174 q 872 81 840 110 q 963 53 903 53 q 972 22 972 40 q 969 0 972 3 l 779 10 l 576 0 q 574 22 574 1 q 583 53 574 43 q 689 118 689 53 q 676 174 689 136 l 622 319 l 271 319 l 217 174 q 201 111 201 135 q 321 53 201 53 q 331 22 331 40 q 328 0 331 3 l 158 10 m 450 829 l 300 397 l 593 397 l 450 829 m 433 1361 q 457 1367 439 1367 q 483 1361 475 1367 q 568 1247 514 1303 q 625 1190 586 1228 q 676 1135 676 1140 q 671 1119 676 1129 q 661 1104 665 1110 q 647 1092 650 1092 q 611 1114 643 1092 q 458 1239 524 1179 q 340 1140 406 1188 q 272 1092 274 1092 q 265 1094 269 1092 q 248 1116 256 1103 q 240 1135 240 1129 q 242 1142 240 1140 q 433 1361 382 1261 z "},"ร":{"ha":932,"x_min":-7,"x_max":972,"o":"m 158 10 l -4 0 q -7 22 -7 1 q 3 53 -7 43 q 75 85 54 53 q 118 174 92 107 l 433 976 q 472 993 447 993 q 488 990 476 993 l 815 174 q 872 81 840 110 q 963 53 903 53 q 972 22 972 40 q 969 0 972 3 l 779 10 l 576 0 q 574 22 574 1 q 583 53 574 43 q 689 118 689 53 q 676 174 689 136 l 622 319 l 271 319 l 217 174 q 201 111 201 135 q 321 53 201 53 q 331 22 331 40 q 328 0 331 3 l 158 10 m 450 829 l 300 397 l 593 397 l 450 829 m 690 1188 q 624 1138 668 1163 q 540 1113 579 1113 q 442 1143 501 1113 q 360 1174 383 1174 q 267 1124 317 1174 q 246 1169 246 1128 l 247 1178 q 315 1226 268 1201 q 401 1251 361 1251 q 497 1222 442 1251 q 578 1192 553 1192 q 671 1242 621 1192 q 692 1197 692 1238 l 690 1188 z "},"ร":{"ha":932,"x_min":-7,"x_max":972,"o":"m 158 10 l -4 0 q -7 22 -7 1 q 3 53 -7 43 q 75 85 54 53 q 118 174 92 107 l 433 976 q 472 993 447 993 q 488 990 476 993 l 815 174 q 872 81 840 110 q 963 53 903 53 q 972 22 972 40 q 969 0 972 3 l 779 10 l 576 0 q 574 22 574 1 q 583 53 574 43 q 689 118 689 53 q 676 174 689 136 l 622 319 l 271 319 l 217 174 q 201 111 201 135 q 321 53 201 53 q 331 22 331 40 q 328 0 331 3 l 158 10 m 450 829 l 300 397 l 593 397 l 450 829 m 281 1138 q 271 1147 281 1138 q 261 1189 261 1157 q 279 1242 261 1221 q 328 1264 297 1264 q 381 1242 358 1264 q 404 1192 404 1221 q 332 1118 404 1121 q 281 1138 300 1118 m 529 1138 q 519 1147 529 1138 q 510 1189 510 1157 q 528 1242 510 1221 q 576 1264 546 1264 q 630 1242 607 1264 q 653 1192 653 1221 q 581 1118 653 1121 q 529 1138 549 1118 z "},"ร":{"ha":932,"x_min":-7,"x_max":972,"o":"m 158 10 l -4 0 q -7 22 -7 1 q 3 53 -7 43 q 75 85 54 53 q 118 174 92 107 l 433 976 q 472 993 447 993 q 488 990 476 993 l 815 174 q 872 81 840 110 q 963 53 903 53 q 972 22 972 40 q 969 0 972 3 l 779 10 l 576 0 q 574 22 574 1 q 583 53 574 43 q 689 118 689 53 q 676 174 689 136 l 622 319 l 271 319 l 217 174 q 201 111 201 135 q 321 53 201 53 q 331 22 331 40 q 328 0 331 3 l 158 10 m 450 829 l 300 397 l 593 397 l 450 829 m 362 1127 q 345 1145 362 1127 q 328 1228 328 1164 q 362 1329 328 1292 q 457 1367 396 1367 q 553 1329 518 1367 q 589 1228 589 1292 q 554 1128 589 1165 q 458 1090 519 1090 q 362 1127 396 1090 m 461 1139 q 529 1218 529 1139 q 510 1292 529 1261 q 456 1322 492 1322 q 388 1239 388 1322 q 406 1168 388 1197 q 461 1139 425 1139 z "},"ร":{"ha":1294,"x_min":-15,"x_max":1256,"o":"m 617 875 l 349 397 l 608 397 l 617 875 m 124 10 l -11 0 q -15 28 -15 4 q -4 53 -15 53 q 83 80 56 53 q 142 164 110 107 q 560 914 160 194 q 468 924 526 924 q 458 952 458 931 q 461 976 458 974 q 776 972 589 972 q 1158 990 964 972 l 1178 746 q 1150 740 1172 740 q 1124 746 1128 740 q 1078 863 1111 833 q 971 893 1044 893 l 710 893 l 721 532 l 869 532 q 940 565 918 532 q 974 671 963 599 q 999 676 979 676 q 1026 671 1018 676 q 1015 495 1015 582 q 1026 319 1015 408 q 999 314 1021 314 q 974 319 978 314 q 940 421 963 389 q 869 453 918 453 l 722 453 l 731 182 q 752 101 733 124 q 822 78 771 78 l 1010 78 q 1117 122 1074 78 q 1203 258 1161 165 q 1224 261 1206 261 q 1256 249 1243 261 l 1183 -14 q 815 4 1007 4 q 507 0 622 4 q 503 24 503 4 q 511 53 503 44 q 604 125 603 53 l 607 319 l 318 319 q 270 225 279 242 q 251 188 261 208 q 235 156 242 168 q 223 131 229 144 q 213 109 217 117 q 207 93 210 101 q 201 71 201 76 q 253 53 201 53 l 286 53 q 296 22 296 40 q 293 0 296 3 l 124 10 z "},"ร":{"ha":851,"x_min":74,"x_max":803,"o":"m 442 -14 q 172 132 271 -14 q 74 492 74 278 q 183 848 74 706 q 482 990 293 990 q 679 944 594 990 q 690 942 685 942 q 697 957 696 942 l 700 990 q 725 996 706 996 q 753 990 744 996 l 772 700 q 745 694 767 694 q 719 700 724 694 q 636 852 707 796 q 472 908 565 908 q 265 807 332 908 q 197 535 197 706 q 325 153 197 283 q 474 82 393 82 q 642 113 556 82 q 779 186 728 143 q 794 163 785 181 q 803 140 803 146 q 799 131 803 135 q 442 -14 654 -14 m 456 -286 q 468 -286 456 -286 q 499 -260 481 -286 q 518 -212 518 -233 q 516 -181 518 -190 q 512 -165 514 -172 q 503 -150 510 -158 q 478 -124 489 -133 q 463 -112 467 -115 q 444 -98 458 -108 q 423 -83 429 -87 q 417 -71 417 -79 q 424 -49 417 -62 l 467 40 l 515 40 q 471 -53 471 -49 q 478 -64 471 -58 q 582 -207 582 -133 q 546 -292 582 -257 q 463 -326 510 -326 q 381 -303 415 -326 q 347 -237 347 -281 q 356 -210 347 -221 q 381 -200 365 -200 q 418 -229 418 -200 q 410 -250 418 -240 q 403 -261 403 -260 q 417 -279 403 -272 q 456 -286 432 -286 z "},"ร":{"ha":849,"x_min":56,"x_max":808,"o":"m 206 1215 q 204 1232 204 1219 q 218 1283 204 1244 q 263 1328 232 1322 q 489 1146 332 1236 q 483 1108 490 1124 q 469 1090 476 1093 q 335 1145 460 1090 q 206 1215 210 1200 m 429 532 q 506 586 489 532 q 519 657 511 607 q 544 663 525 663 q 572 657 564 663 q 561 495 561 572 q 572 333 561 418 q 545 328 567 328 q 519 333 524 328 q 505 401 511 381 q 481 437 499 421 q 429 453 463 453 l 275 453 l 283 182 q 305 101 286 124 q 375 78 324 78 l 563 78 q 670 122 626 78 q 756 258 714 165 q 777 261 758 261 q 808 249 796 261 l 736 -14 q 367 4 560 4 q 60 0 175 4 q 56 24 56 4 q 64 53 56 44 q 135 70 114 53 q 157 125 156 88 l 169 851 q 148 906 169 889 q 76 924 126 924 q 67 952 67 931 q 69 976 67 974 q 358 972 186 972 q 711 990 531 972 l 731 746 q 703 740 725 740 q 676 746 681 740 q 631 863 664 833 q 524 893 597 893 l 263 893 l 274 532 l 429 532 z "},"ร":{"ha":849,"x_min":56,"x_max":808,"o":"m 311 1139 l 311 1146 q 538 1328 468 1236 q 582 1283 568 1322 q 596 1232 596 1244 q 594 1215 596 1219 q 465 1145 590 1200 q 331 1090 340 1090 q 311 1139 311 1099 m 429 532 q 506 586 489 532 q 519 657 511 607 q 544 663 525 663 q 572 657 564 663 q 561 495 561 572 q 572 333 561 418 q 545 328 567 328 q 519 333 524 328 q 505 401 511 381 q 481 437 499 421 q 429 453 463 453 l 275 453 l 283 182 q 305 101 286 124 q 375 78 324 78 l 563 78 q 670 122 626 78 q 756 258 714 165 q 777 261 758 261 q 808 249 796 261 l 736 -14 q 367 4 560 4 q 60 0 175 4 q 56 24 56 4 q 64 53 56 44 q 135 70 114 53 q 157 125 156 88 l 169 851 q 148 906 169 889 q 76 924 126 924 q 67 952 67 931 q 69 976 67 974 q 358 972 186 972 q 711 990 531 972 l 731 746 q 703 740 725 740 q 676 746 681 740 q 631 863 664 833 q 524 893 597 893 l 263 893 l 274 532 l 429 532 z "},"ร":{"ha":849,"x_min":56,"x_max":808,"o":"m 429 532 q 506 586 489 532 q 519 657 511 607 q 544 663 525 663 q 572 657 564 663 q 561 495 561 572 q 572 333 561 418 q 545 328 567 328 q 519 333 524 328 q 505 401 511 381 q 481 437 499 421 q 429 453 463 453 l 275 453 l 283 182 q 305 101 286 124 q 375 78 324 78 l 563 78 q 670 122 626 78 q 756 258 714 165 q 777 261 758 261 q 808 249 796 261 l 736 -14 q 367 4 560 4 q 60 0 175 4 q 56 24 56 4 q 64 53 56 44 q 135 70 114 53 q 157 125 156 88 l 169 851 q 148 906 169 889 q 76 924 126 924 q 67 952 67 931 q 69 976 67 974 q 358 972 186 972 q 711 990 531 972 l 731 746 q 703 740 725 740 q 676 746 681 740 q 631 863 664 833 q 524 893 597 893 l 263 893 l 274 532 l 429 532 m 381 1361 q 404 1367 386 1367 q 431 1361 422 1367 q 515 1247 461 1303 q 572 1190 533 1228 q 624 1135 624 1140 q 618 1119 624 1129 q 608 1104 613 1110 q 594 1092 597 1092 q 558 1114 590 1092 q 406 1239 471 1179 q 287 1140 353 1188 q 219 1092 221 1092 q 213 1094 217 1092 q 195 1116 203 1103 q 188 1135 188 1129 q 189 1142 188 1140 q 381 1361 329 1261 z "},"ร":{"ha":849,"x_min":56,"x_max":808,"o":"m 429 532 q 506 586 489 532 q 519 657 511 607 q 544 663 525 663 q 572 657 564 663 q 561 495 561 572 q 572 333 561 418 q 545 328 567 328 q 519 333 524 328 q 505 401 511 381 q 481 437 499 421 q 429 453 463 453 l 275 453 l 283 182 q 305 101 286 124 q 375 78 324 78 l 563 78 q 670 122 626 78 q 756 258 714 165 q 777 261 758 261 q 808 249 796 261 l 736 -14 q 367 4 560 4 q 60 0 175 4 q 56 24 56 4 q 64 53 56 44 q 135 70 114 53 q 157 125 156 88 l 169 851 q 148 906 169 889 q 76 924 126 924 q 67 952 67 931 q 69 976 67 974 q 358 972 186 972 q 711 990 531 972 l 731 746 q 703 740 725 740 q 676 746 681 740 q 631 863 664 833 q 524 893 597 893 l 263 893 l 274 532 l 429 532 m 235 1138 q 225 1147 235 1138 q 215 1189 215 1157 q 233 1242 215 1221 q 282 1264 251 1264 q 335 1242 313 1264 q 358 1192 358 1221 q 286 1118 358 1121 q 235 1138 254 1118 m 483 1138 q 474 1147 483 1138 q 464 1189 464 1157 q 482 1242 464 1221 q 531 1264 500 1264 q 584 1242 561 1264 q 607 1192 607 1221 q 535 1118 607 1121 q 483 1138 503 1118 z "},"ร":{"ha":439,"x_min":-15,"x_max":385,"o":"m -14 1215 q -15 1232 -15 1219 q -1 1283 -15 1244 q 43 1328 13 1322 q 269 1146 113 1236 q 264 1108 271 1124 q 250 1090 257 1093 q 115 1145 240 1090 q -14 1215 -10 1200 m 224 968 l 358 976 q 361 952 361 974 q 354 924 361 931 q 285 906 304 924 q 265 851 265 889 l 286 125 q 308 70 288 88 q 378 53 328 53 q 385 24 385 46 q 382 0 385 3 l 228 8 l 63 0 q 58 24 58 4 q 67 53 58 44 q 138 70 117 53 q 160 125 160 88 l 165 851 q 145 906 165 889 q 75 924 125 924 q 67 952 67 931 q 69 976 67 974 q 224 968 69 976 z "},"ร":{"ha":439,"x_min":58,"x_max":418,"o":"m 133 1139 l 133 1146 q 360 1328 290 1236 q 404 1283 390 1322 q 418 1232 418 1244 q 417 1215 418 1219 q 288 1145 413 1200 q 153 1090 163 1090 q 133 1139 133 1099 m 224 968 l 358 976 q 361 952 361 974 q 354 924 361 931 q 285 906 304 924 q 265 851 265 889 l 286 125 q 308 70 288 88 q 378 53 328 53 q 385 24 385 46 q 382 0 385 3 l 228 8 l 63 0 q 58 24 58 4 q 67 53 58 44 q 138 70 117 53 q 160 125 160 88 l 165 851 q 145 906 165 889 q 75 924 125 924 q 67 952 67 931 q 69 976 67 974 l 224 968 z "},"ร":{"ha":439,"x_min":-3,"x_max":436,"o":"m 224 968 l 358 976 q 361 952 361 974 q 354 924 361 931 q 285 906 304 924 q 265 851 265 889 l 286 125 q 308 70 288 88 q 378 53 328 53 q 385 24 385 46 q 382 0 385 3 l 228 8 l 63 0 q 58 24 58 4 q 67 53 58 44 q 138 70 117 53 q 160 125 160 88 l 165 851 q 145 906 165 889 q 75 924 125 924 q 67 952 67 931 q 69 976 67 974 q 224 968 69 976 m 192 1361 q 215 1367 197 1367 q 242 1361 233 1367 q 326 1247 272 1303 q 383 1190 344 1228 q 435 1135 435 1140 q 429 1119 435 1129 q 419 1104 424 1110 q 405 1092 408 1092 q 369 1114 401 1092 q 217 1239 282 1179 q 98 1140 164 1188 q 30 1092 32 1092 q 24 1094 28 1092 q 6 1116 14 1103 q -1 1135 -1 1129 q 0 1142 -1 1140 q 192 1361 140 1261 z "},"ร":{"ha":439,"x_min":14,"x_max":406,"o":"m 224 968 l 358 976 q 361 952 361 974 q 354 924 361 931 q 285 906 304 924 q 265 851 265 889 l 286 125 q 308 70 288 88 q 378 53 328 53 q 385 24 385 46 q 382 0 385 3 l 228 8 l 63 0 q 58 24 58 4 q 67 53 58 44 q 138 70 117 53 q 160 125 160 88 l 165 851 q 145 906 165 889 q 75 924 125 924 q 67 952 67 931 q 69 976 67 974 q 224 968 69 976 m 33 1138 q 24 1147 33 1138 q 14 1189 14 1157 q 32 1242 14 1221 q 81 1264 50 1264 q 134 1242 111 1264 q 157 1192 157 1221 q 85 1118 157 1121 q 33 1138 53 1118 m 282 1138 q 272 1147 282 1138 q 263 1189 263 1157 q 281 1242 263 1221 q 329 1264 299 1264 q 383 1242 360 1264 q 406 1192 406 1221 q 333 1118 406 1121 q 282 1138 301 1118 z "},"ร":{"ha":928,"x_min":19,"x_max":856,"o":"m 242 968 l 410 976 q 738 843 621 976 q 856 493 856 710 q 735 138 856 276 q 410 0 614 0 l 242 8 l 75 0 q 71 24 71 4 q 79 53 71 44 q 172 125 172 53 l 175 465 q 32 463 42 463 q 19 517 19 493 q 28 550 19 540 q 176 547 47 547 l 179 853 q 158 907 179 890 q 86 924 138 924 q 78 952 78 931 q 81 976 78 974 l 242 968 m 414 78 q 643 190 553 78 q 733 450 733 303 q 639 780 733 654 q 358 906 544 906 q 265 897 315 906 l 281 547 q 510 550 482 547 q 517 499 517 525 q 506 463 517 474 q 285 465 450 465 l 297 182 q 326 101 299 124 q 414 78 353 78 z "},"ร":{"ha":1026,"x_min":56,"x_max":978,"o":"m 832 968 l 975 976 q 978 952 978 971 q 968 924 978 933 q 897 907 917 924 q 876 851 876 890 l 865 0 q 831 -6 860 -6 q 799 0 803 -6 l 251 829 l 276 125 q 298 69 278 86 q 369 53 318 53 q 379 22 379 40 q 376 0 379 3 l 204 8 l 60 0 q 56 24 56 4 q 64 53 56 44 q 134 70 114 53 q 156 125 154 88 l 171 851 q 150 906 172 889 q 78 924 128 924 q 68 952 68 931 q 71 976 68 974 q 185 968 129 968 q 299 976 240 968 l 793 188 l 769 851 q 747 906 768 889 q 678 924 726 924 q 669 952 669 932 q 674 976 669 972 l 832 968 m 739 1160 q 672 1110 717 1135 q 589 1085 628 1085 q 491 1115 550 1085 q 408 1146 432 1146 q 315 1096 365 1146 q 294 1142 294 1100 l 296 1150 q 363 1199 317 1174 q 451 1224 410 1224 q 547 1194 492 1224 q 626 1164 603 1164 q 719 1214 669 1164 q 740 1169 740 1210 l 739 1160 z "},"ร":{"ha":976,"x_min":74,"x_max":904,"o":"m 267 1215 q 265 1232 265 1219 q 279 1283 265 1244 q 324 1328 293 1322 q 550 1146 393 1236 q 544 1108 551 1124 q 531 1090 538 1093 q 396 1145 521 1090 q 267 1215 271 1200 m 74 489 q 253 921 74 789 q 478 990 346 990 q 792 848 681 990 q 904 490 904 706 q 792 130 904 274 q 481 -14 681 -14 q 178 129 282 -14 q 74 489 74 272 m 501 68 q 783 446 783 68 q 718 764 783 636 q 620 870 683 832 q 469 908 557 908 q 260 806 325 908 q 194 539 194 703 q 294 167 194 299 q 381 95 328 122 q 501 68 435 68 z "},"ร":{"ha":976,"x_min":74,"x_max":904,"o":"m 418 1139 l 418 1146 q 644 1328 575 1236 q 689 1283 675 1322 q 703 1232 703 1244 q 701 1215 703 1219 q 572 1145 697 1200 q 438 1090 447 1090 q 418 1139 418 1099 m 74 489 q 253 921 74 789 q 478 990 346 990 q 792 848 681 990 q 904 490 904 706 q 792 130 904 274 q 481 -14 681 -14 q 178 129 282 -14 q 74 489 74 272 m 501 68 q 783 446 783 68 q 718 764 783 636 q 620 870 683 832 q 469 908 557 908 q 260 806 325 908 q 194 539 194 703 q 294 167 194 299 q 381 95 328 122 q 501 68 435 68 z "},"ร":{"ha":976,"x_min":74,"x_max":904,"o":"m 74 489 q 253 921 74 789 q 478 990 346 990 q 792 848 681 990 q 904 490 904 706 q 792 130 904 274 q 481 -14 681 -14 q 178 129 282 -14 q 74 489 74 272 m 501 68 q 783 446 783 68 q 718 764 783 636 q 620 870 683 832 q 469 908 557 908 q 260 806 325 908 q 194 539 194 703 q 294 167 194 299 q 381 95 328 122 q 501 68 435 68 m 454 1361 q 478 1367 460 1367 q 504 1361 496 1367 q 589 1247 535 1303 q 646 1190 607 1228 q 697 1135 697 1140 q 692 1119 697 1129 q 682 1104 686 1110 q 667 1092 671 1092 q 632 1114 664 1092 q 479 1239 544 1179 q 360 1140 426 1188 q 292 1092 294 1092 q 286 1094 290 1092 q 269 1116 276 1103 q 261 1135 261 1129 q 263 1142 261 1140 q 454 1361 403 1261 z "},"ร":{"ha":976,"x_min":74,"x_max":904,"o":"m 74 489 q 253 921 74 789 q 478 990 346 990 q 792 848 681 990 q 904 490 904 706 q 792 130 904 274 q 481 -14 681 -14 q 178 129 282 -14 q 74 489 74 272 m 501 68 q 783 446 783 68 q 718 764 783 636 q 620 870 683 832 q 469 908 557 908 q 260 806 325 908 q 194 539 194 703 q 294 167 194 299 q 381 95 328 122 q 501 68 435 68 m 700 1188 q 633 1138 678 1163 q 550 1113 589 1113 q 452 1143 511 1113 q 369 1174 393 1174 q 276 1124 326 1174 q 256 1169 256 1128 l 257 1178 q 324 1226 278 1201 q 412 1251 371 1251 q 508 1222 453 1251 q 588 1192 564 1192 q 681 1242 631 1192 q 701 1197 701 1238 l 700 1188 z "},"ร":{"ha":976,"x_min":74,"x_max":904,"o":"m 74 489 q 253 921 74 789 q 478 990 346 990 q 792 848 681 990 q 904 490 904 706 q 792 130 904 274 q 481 -14 681 -14 q 178 129 282 -14 q 74 489 74 272 m 501 68 q 783 446 783 68 q 718 764 783 636 q 620 870 683 832 q 469 908 557 908 q 260 806 325 908 q 194 539 194 703 q 294 167 194 299 q 381 95 328 122 q 501 68 435 68 m 297 1138 q 288 1147 297 1138 q 278 1189 278 1157 q 296 1242 278 1221 q 344 1264 314 1264 q 398 1242 375 1264 q 421 1192 421 1221 q 349 1118 421 1121 q 297 1138 317 1118 m 546 1138 q 536 1147 546 1138 q 526 1189 526 1157 q 544 1242 526 1221 q 593 1264 563 1264 q 647 1242 624 1264 q 669 1192 669 1221 q 597 1118 669 1121 q 546 1138 565 1118 z "},"ร":{"ha":654,"x_min":78,"x_max":578,"o":"m 518 69 l 331 281 q 143 69 171 103 q 78 129 78 93 q 276 342 114 161 q 83 550 104 531 q 147 608 110 607 q 331 401 286 451 q 514 608 483 572 q 572 544 572 579 q 385 342 535 510 q 578 135 550 158 q 518 69 554 69 z "},"ร":{"ha":976,"x_min":74,"x_max":904,"o":"m 74 489 q 253 921 74 789 q 478 990 346 990 q 792 848 681 990 q 904 490 904 706 q 792 130 904 274 q 481 -14 681 -14 q 178 129 282 -14 q 74 489 74 272 m 501 68 q 783 446 783 68 q 718 764 783 636 q 620 870 683 832 q 469 908 557 908 q 260 806 325 908 q 194 539 194 703 q 294 167 194 299 q 381 95 328 122 q 501 68 435 68 m 718 1058 q 515 472 657 900 q 326 -118 372 43 q 225 -90 244 -118 q 430 502 286 69 q 618 1093 574 935 q 718 1058 700 1093 z "},"ร":{"ha":988,"x_min":17,"x_max":974,"o":"m 261 1215 q 260 1232 260 1219 q 274 1283 260 1244 q 318 1328 288 1322 q 544 1146 388 1236 q 539 1108 546 1124 q 525 1090 532 1093 q 390 1145 515 1090 q 261 1215 265 1200 m 792 968 l 971 976 q 974 951 974 971 q 965 924 974 932 q 878 906 904 924 q 851 851 851 889 l 849 344 q 747 81 847 176 q 481 -14 647 -14 q 227 81 314 -14 q 142 344 140 175 l 143 851 q 119 907 143 890 q 25 924 94 924 q 17 952 17 932 q 21 976 17 972 l 211 968 l 392 976 q 394 952 394 974 q 388 924 394 931 q 292 906 319 924 q 267 851 265 889 l 279 360 q 330 142 283 217 q 501 68 376 68 q 691 146 626 68 q 754 360 756 224 l 749 851 q 713 905 749 886 q 622 924 678 924 q 614 952 614 932 q 618 976 614 972 l 792 968 z "},"ร":{"ha":988,"x_min":17,"x_max":974,"o":"m 429 1139 l 429 1146 q 656 1328 586 1236 q 700 1283 686 1322 q 714 1232 714 1244 q 713 1215 714 1219 q 583 1145 708 1200 q 449 1090 458 1090 q 429 1139 429 1099 m 792 968 l 971 976 q 974 951 974 971 q 965 924 974 932 q 878 906 904 924 q 851 851 851 889 l 849 344 q 747 81 847 176 q 481 -14 647 -14 q 227 81 314 -14 q 142 344 140 175 l 143 851 q 119 907 143 890 q 25 924 94 924 q 17 952 17 932 q 21 976 17 972 l 211 968 l 392 976 q 394 952 394 974 q 388 924 394 931 q 292 906 319 924 q 267 851 265 889 l 279 360 q 330 142 283 217 q 501 68 376 68 q 691 146 626 68 q 754 360 756 224 l 749 851 q 713 905 749 886 q 622 924 678 924 q 614 952 614 932 q 618 976 614 972 l 792 968 z "},"ร":{"ha":988,"x_min":17,"x_max":974,"o":"m 792 968 l 971 976 q 974 951 974 971 q 965 924 974 932 q 878 906 904 924 q 851 851 851 889 l 849 344 q 747 81 847 176 q 481 -14 647 -14 q 227 81 314 -14 q 142 344 140 175 l 143 851 q 119 907 143 890 q 25 924 94 924 q 17 952 17 932 q 21 976 17 972 l 211 968 l 392 976 q 394 952 394 974 q 388 924 394 931 q 292 906 319 924 q 267 851 265 889 l 279 360 q 330 142 283 217 q 501 68 376 68 q 691 146 626 68 q 754 360 756 224 l 749 851 q 713 905 749 886 q 622 924 678 924 q 614 952 614 932 q 618 976 614 972 l 792 968 m 476 1361 q 500 1367 482 1367 q 526 1361 518 1367 q 611 1247 557 1303 q 668 1190 629 1228 q 719 1135 719 1140 q 714 1119 719 1129 q 704 1104 708 1110 q 690 1092 693 1092 q 654 1114 686 1092 q 501 1239 567 1179 q 383 1140 449 1188 q 315 1092 317 1092 q 308 1094 313 1092 q 291 1116 299 1103 q 283 1135 283 1129 q 285 1142 283 1140 q 476 1361 425 1261 z "},"ร":{"ha":988,"x_min":17,"x_max":974,"o":"m 792 968 l 971 976 q 974 951 974 971 q 965 924 974 932 q 878 906 904 924 q 851 851 851 889 l 849 344 q 747 81 847 176 q 481 -14 647 -14 q 227 81 314 -14 q 142 344 140 175 l 143 851 q 119 907 143 890 q 25 924 94 924 q 17 952 17 932 q 21 976 17 972 l 211 968 l 392 976 q 394 952 394 974 q 388 924 394 931 q 292 906 319 924 q 267 851 265 889 l 279 360 q 330 142 283 217 q 501 68 376 68 q 691 146 626 68 q 754 360 756 224 l 749 851 q 713 905 749 886 q 622 924 678 924 q 614 952 614 932 q 618 976 614 972 l 792 968 m 318 1110 q 308 1119 318 1110 q 299 1161 299 1129 q 317 1215 299 1193 q 365 1236 335 1236 q 419 1215 396 1236 q 442 1164 442 1193 q 369 1090 442 1093 q 318 1110 338 1090 m 567 1110 q 557 1119 567 1110 q 547 1161 547 1129 q 565 1215 547 1193 q 614 1236 583 1236 q 667 1215 644 1236 q 690 1164 690 1193 q 618 1090 690 1093 q 567 1110 586 1090 z "},"ร":{"ha":889,"x_min":-44,"x_max":901,"o":"m 392 1139 l 392 1146 q 618 1328 549 1236 q 663 1283 649 1322 q 676 1232 676 1244 q 675 1215 676 1219 q 546 1145 671 1200 q 411 1090 421 1090 q 392 1139 392 1099 m 461 8 l 296 0 q 292 24 292 4 q 300 53 292 44 q 371 70 350 53 q 393 125 392 88 l 400 356 q 116 851 128 835 q 83 886 104 867 q -35 924 46 924 q -44 952 -44 931 q -42 976 -44 974 q 46 970 -17 976 q 151 964 108 964 q 254 970 194 964 q 340 976 314 976 q 343 952 343 971 q 333 924 343 933 q 247 875 247 924 q 275 799 247 844 l 465 483 l 629 799 q 664 890 664 865 q 604 924 664 924 q 594 953 594 933 q 597 976 594 974 q 669 970 619 976 q 753 964 718 964 q 833 970 789 964 q 899 976 876 976 q 901 951 901 971 q 893 924 901 932 q 793 893 828 924 q 724 799 758 863 l 503 382 l 519 125 q 542 70 522 88 q 611 53 561 53 q 619 24 619 44 q 615 0 619 4 l 461 8 z "},"ร":{"ha":771,"x_min":58,"x_max":728,"o":"m 261 789 q 418 796 407 796 q 639 726 550 796 q 728 528 728 656 q 622 322 728 400 q 363 242 517 244 q 347 263 357 247 q 338 285 338 278 q 339 294 338 293 q 603 514 603 294 q 542 675 603 625 q 364 725 482 725 q 264 717 314 725 l 286 125 q 308 70 288 88 q 378 53 328 53 q 385 24 385 46 q 382 0 385 3 l 229 8 l 63 0 q 58 24 58 4 q 67 53 58 44 q 138 70 117 53 q 160 125 160 88 l 165 853 q 144 907 165 890 q 72 924 124 924 q 64 952 64 931 q 67 976 64 974 l 221 968 l 356 976 q 358 952 358 974 q 351 924 358 931 q 280 906 301 924 q 260 851 258 889 l 261 789 z "},"ร":{"ha":906,"x_min":47,"x_max":872,"o":"m 228 8 l 51 0 q 47 23 47 4 q 56 50 47 42 q 138 66 113 50 q 163 121 163 82 l 165 553 l 60 553 q 47 595 47 575 q 56 625 47 615 l 165 625 l 167 710 q 249 963 169 856 q 475 1069 328 1069 q 653 1017 589 1069 q 718 898 718 964 q 692 780 718 832 q 633 694 665 728 q 550 550 550 607 q 664 428 550 486 q 758 375 711 403 q 839 303 806 347 q 872 201 872 258 q 802 40 872 96 q 638 -17 732 -17 q 478 28 543 -17 q 413 157 413 72 q 431 210 413 190 q 481 229 449 229 q 549 178 549 229 q 532 137 549 156 q 515 110 515 118 q 552 72 515 88 q 633 56 589 56 q 719 88 676 56 q 763 192 763 119 q 650 306 763 256 q 556 353 603 328 q 476 420 508 378 q 443 517 443 463 q 469 622 443 571 q 526 706 494 672 q 610 856 610 790 q 576 963 610 922 q 467 1004 542 1004 q 332 942 393 1004 q 271 757 271 881 q 285 121 271 751 q 304 65 286 81 q 376 50 322 50 q 383 23 383 43 q 381 0 383 3 l 228 8 z "},"ร":{"ha":667,"x_min":54,"x_max":660,"o":"m 236 -14 q 107 35 160 -14 q 54 161 54 85 q 119 288 54 238 q 333 369 183 339 l 429 389 l 429 424 q 397 565 429 521 q 288 608 364 608 q 182 565 182 608 q 199 538 182 557 q 215 498 215 519 q 197 463 215 476 q 147 450 178 450 q 98 468 117 450 q 79 518 79 486 q 148 635 79 589 q 297 681 217 681 q 483 626 428 681 q 539 479 539 571 q 533 150 539 476 q 593 61 532 61 q 650 75 618 61 q 660 44 660 58 q 657 26 660 29 q 608 -1 643 13 q 535 -14 574 -14 q 435 61 475 -14 q 236 -14 347 -14 m 358 299 q 216 245 251 272 q 181 172 181 218 q 206 96 181 125 q 267 67 231 67 q 351 83 303 67 q 433 119 399 99 l 431 317 l 358 299 m 125 964 q 147 1024 125 983 q 200 1065 168 1065 q 392 846 251 965 q 379 810 389 825 q 362 796 369 796 q 240 872 354 796 q 125 964 125 947 z "},"รก":{"ha":667,"x_min":54,"x_max":660,"o":"m 236 -14 q 107 35 160 -14 q 54 161 54 85 q 119 288 54 238 q 333 369 183 339 l 429 389 l 429 424 q 397 565 429 521 q 288 608 364 608 q 182 565 182 608 q 199 538 182 557 q 215 498 215 519 q 197 463 215 476 q 147 450 178 450 q 98 468 117 450 q 79 518 79 486 q 148 635 79 589 q 297 681 217 681 q 483 626 428 681 q 539 479 539 571 q 533 150 539 476 q 593 61 532 61 q 650 75 618 61 q 660 44 660 58 q 657 26 660 29 q 608 -1 643 13 q 535 -14 574 -14 q 435 61 475 -14 q 236 -14 347 -14 m 358 299 q 216 245 251 272 q 181 172 181 218 q 206 96 181 125 q 267 67 231 67 q 351 83 303 67 q 433 119 399 99 l 431 317 l 358 299 m 468 964 q 353 872 468 947 q 231 796 239 796 q 217 806 224 796 q 201 846 204 825 q 393 1065 342 965 q 447 1024 425 1065 q 468 964 468 983 z "},"รข":{"ha":667,"x_min":54,"x_max":660,"o":"m 236 -14 q 107 35 160 -14 q 54 161 54 85 q 119 288 54 238 q 333 369 183 339 l 429 389 l 429 424 q 397 565 429 521 q 288 608 364 608 q 182 565 182 608 q 199 538 182 557 q 215 498 215 519 q 197 463 215 476 q 147 450 178 450 q 98 468 117 450 q 79 518 79 486 q 148 635 79 589 q 297 681 217 681 q 483 626 428 681 q 539 479 539 571 q 533 150 539 476 q 593 61 532 61 q 650 75 618 61 q 660 44 660 58 q 657 26 660 29 q 608 -1 643 13 q 535 -14 574 -14 q 435 61 475 -14 q 236 -14 347 -14 m 358 299 q 216 245 251 272 q 181 172 181 218 q 206 96 181 125 q 267 67 231 67 q 351 83 303 67 q 433 119 399 99 l 431 317 l 358 299 m 275 1043 q 299 1049 281 1049 q 325 1043 317 1049 q 410 929 356 985 q 467 872 428 910 q 518 817 518 822 q 513 801 518 811 q 503 786 507 792 q 488 774 492 774 q 453 796 485 774 q 300 921 365 861 q 181 822 247 869 q 113 774 115 774 q 107 776 111 774 q 90 798 97 785 q 82 817 82 811 q 83 824 82 822 q 275 1043 224 943 z "},"รฃ":{"ha":667,"x_min":54,"x_max":660,"o":"m 236 -14 q 107 35 160 -14 q 54 161 54 85 q 119 288 54 238 q 333 369 183 339 l 429 389 l 429 424 q 397 565 429 521 q 288 608 364 608 q 182 565 182 608 q 199 538 182 557 q 215 498 215 519 q 197 463 215 476 q 147 450 178 450 q 98 468 117 450 q 79 518 79 486 q 148 635 79 589 q 297 681 217 681 q 483 626 428 681 q 539 479 539 571 q 533 150 539 476 q 593 61 532 61 q 650 75 618 61 q 660 44 660 58 q 657 26 660 29 q 608 -1 643 13 q 535 -14 574 -14 q 435 61 475 -14 q 236 -14 347 -14 m 358 299 q 216 245 251 272 q 181 172 181 218 q 206 96 181 125 q 267 67 231 67 q 351 83 303 67 q 433 119 399 99 l 431 317 l 358 299 m 521 888 q 454 838 499 863 q 371 813 410 813 q 273 843 332 813 q 190 874 214 874 q 97 824 147 874 q 76 869 76 828 l 78 878 q 145 926 99 901 q 232 951 192 951 q 328 922 272 951 q 408 892 383 892 q 501 942 451 892 q 522 897 522 938 l 521 888 z "},"รค":{"ha":667,"x_min":54,"x_max":660,"o":"m 236 -14 q 107 35 160 -14 q 54 161 54 85 q 119 288 54 238 q 333 369 183 339 l 429 389 l 429 424 q 397 565 429 521 q 288 608 364 608 q 182 565 182 608 q 199 538 182 557 q 215 498 215 519 q 197 463 215 476 q 147 450 178 450 q 98 468 117 450 q 79 518 79 486 q 148 635 79 589 q 297 681 217 681 q 483 626 428 681 q 539 479 539 571 q 533 150 539 476 q 593 61 532 61 q 650 75 618 61 q 660 44 660 58 q 657 26 660 29 q 608 -1 643 13 q 535 -14 574 -14 q 435 61 475 -14 q 236 -14 347 -14 m 358 299 q 216 245 251 272 q 181 172 181 218 q 206 96 181 125 q 267 67 231 67 q 351 83 303 67 q 433 119 399 99 l 431 317 l 358 299 m 143 838 q 133 847 143 838 q 124 889 124 857 q 142 942 124 921 q 190 964 160 964 q 244 942 221 964 q 267 892 267 921 q 194 818 267 821 q 143 838 163 818 m 392 838 q 382 847 392 838 q 372 889 372 857 q 390 942 372 921 q 439 964 408 964 q 492 942 469 964 q 515 892 515 921 q 443 818 515 821 q 392 838 411 818 z "},"รฅ":{"ha":667,"x_min":54,"x_max":660,"o":"m 236 -14 q 107 35 160 -14 q 54 161 54 85 q 119 288 54 238 q 333 369 183 339 l 429 389 l 429 424 q 397 565 429 521 q 288 608 364 608 q 182 565 182 608 q 199 538 182 557 q 215 498 215 519 q 197 463 215 476 q 147 450 178 450 q 98 468 117 450 q 79 518 79 486 q 148 635 79 589 q 297 681 217 681 q 483 626 428 681 q 539 479 539 571 q 533 150 539 476 q 593 61 532 61 q 650 75 618 61 q 660 44 660 58 q 657 26 660 29 q 608 -1 643 13 q 535 -14 574 -14 q 435 61 475 -14 q 236 -14 347 -14 m 358 299 q 216 245 251 272 q 181 172 181 218 q 206 96 181 125 q 267 67 231 67 q 351 83 303 67 q 433 119 399 99 l 431 317 l 358 299 m 220 816 q 203 834 220 816 q 186 917 186 853 q 220 1018 186 981 q 315 1056 254 1056 q 412 1018 376 1056 q 447 917 447 981 q 413 817 447 854 q 316 779 378 779 q 220 816 254 779 m 319 828 q 388 907 388 828 q 369 981 388 950 q 314 1011 350 1011 q 246 928 246 1011 q 265 857 246 886 q 319 828 283 828 z "},"รฆ":{"ha":1000,"x_min":54,"x_max":940,"o":"m 681 -14 q 570 14 628 -14 q 481 97 513 42 q 369 17 435 49 q 232 -14 304 -14 q 107 35 160 -14 q 54 160 54 85 q 120 287 54 235 q 333 369 186 339 l 429 389 l 429 425 q 397 567 429 525 q 288 608 365 608 q 182 565 182 608 q 199 538 182 557 q 215 498 215 519 q 197 463 215 476 q 147 450 178 450 q 98 468 117 450 q 79 518 79 486 q 148 635 79 589 q 297 681 217 681 q 507 600 440 681 q 705 681 585 681 q 883 585 825 681 q 940 340 940 490 l 536 340 q 583 153 536 232 q 699 74 629 74 q 908 135 821 74 q 931 100 931 113 q 924 81 931 88 q 681 -14 829 -14 m 222 247 q 189 210 197 228 q 181 158 181 192 q 206 96 181 125 q 267 67 231 67 q 351 83 303 67 q 433 119 399 99 l 431 317 q 222 247 267 283 m 818 419 l 819 442 q 790 560 819 507 q 696 614 760 614 q 588 559 632 614 q 538 413 544 504 l 722 411 q 818 419 807 411 z "},"รง":{"ha":626,"x_min":61,"x_max":579,"o":"m 572 82 q 344 -14 483 -14 q 133 82 204 -14 q 61 329 61 178 q 143 581 61 481 q 368 681 225 681 q 515 635 458 681 q 572 521 572 589 q 554 471 572 489 q 505 453 536 453 q 455 466 474 453 q 436 501 436 479 q 453 541 436 522 q 469 568 469 560 q 435 600 469 586 q 367 614 400 614 q 233 547 285 614 q 182 364 182 481 q 360 74 182 74 q 467 91 411 74 q 557 136 522 108 q 571 117 563 132 q 579 95 579 101 q 572 82 579 89 m 312 -286 q 324 -286 312 -286 q 355 -260 336 -286 q 374 -212 374 -233 q 372 -181 374 -190 q 367 -165 369 -172 q 358 -150 365 -158 q 333 -124 344 -133 q 318 -112 322 -115 q 299 -98 314 -108 q 278 -83 285 -87 q 272 -71 272 -79 q 279 -49 272 -62 l 322 40 l 371 40 q 326 -53 326 -49 q 333 -64 326 -58 q 438 -207 438 -133 q 401 -292 438 -257 q 318 -326 365 -326 q 237 -303 271 -326 q 203 -237 203 -281 q 212 -210 203 -221 q 236 -200 221 -200 q 274 -229 274 -200 q 266 -250 274 -240 q 258 -261 258 -260 q 273 -279 258 -272 q 312 -286 288 -286 z "},"รจ":{"ha":674,"x_min":61,"x_max":615,"o":"m 600 82 q 360 -14 504 -14 q 139 84 217 -14 q 61 333 61 182 q 138 582 61 483 q 351 681 215 681 q 551 585 486 681 q 615 340 615 490 l 183 340 q 233 151 183 228 q 374 74 282 74 q 585 136 499 74 q 599 117 590 132 q 607 95 607 101 q 600 82 607 89 m 185 413 l 381 411 q 493 419 486 411 q 494 443 494 426 q 457 561 494 508 q 349 614 419 614 q 235 559 279 614 q 185 413 192 504 m 133 964 q 155 1024 133 983 q 208 1065 176 1065 q 400 846 260 965 q 388 810 397 825 q 370 796 378 796 q 248 872 363 796 q 133 964 133 947 z "},"รฉ":{"ha":674,"x_min":61,"x_max":615,"o":"m 600 82 q 360 -14 504 -14 q 139 84 217 -14 q 61 333 61 182 q 138 582 61 483 q 351 681 215 681 q 551 585 486 681 q 615 340 615 490 l 183 340 q 233 151 183 228 q 374 74 282 74 q 585 136 499 74 q 599 117 590 132 q 607 95 607 101 q 600 82 607 89 m 185 413 l 381 411 q 493 419 486 411 q 494 443 494 426 q 457 561 494 508 q 349 614 419 614 q 235 559 279 614 q 185 413 192 504 m 490 964 q 376 872 490 947 q 253 796 261 796 q 239 806 246 796 q 224 846 226 825 q 415 1065 364 965 q 469 1024 447 1065 q 490 964 490 983 z "},"รช":{"ha":674,"x_min":61,"x_max":615,"o":"m 600 82 q 360 -14 504 -14 q 139 84 217 -14 q 61 333 61 182 q 138 582 61 483 q 351 681 215 681 q 551 585 486 681 q 615 340 615 490 l 183 340 q 233 151 183 228 q 374 74 282 74 q 585 136 499 74 q 599 117 590 132 q 607 95 607 101 q 600 82 607 89 m 185 413 l 381 411 q 493 419 486 411 q 494 443 494 426 q 457 561 494 508 q 349 614 419 614 q 235 559 279 614 q 185 413 192 504 m 324 1043 q 347 1049 329 1049 q 374 1043 365 1049 q 458 928 404 985 q 515 872 476 910 q 567 817 567 822 q 561 801 567 811 q 550 786 556 792 q 537 774 540 774 q 503 797 533 774 q 349 921 414 861 q 230 822 296 869 q 162 774 164 774 q 156 778 160 774 q 138 798 146 785 q 131 817 131 811 q 132 824 131 822 q 324 1043 272 943 z "},"รซ":{"ha":674,"x_min":61,"x_max":615,"o":"m 600 82 q 360 -14 504 -14 q 139 84 217 -14 q 61 333 61 182 q 138 582 61 483 q 351 681 215 681 q 551 585 486 681 q 615 340 615 490 l 183 340 q 233 151 183 228 q 374 74 282 74 q 585 136 499 74 q 599 117 590 132 q 607 95 607 101 q 600 82 607 89 m 185 413 l 381 411 q 493 419 486 411 q 494 443 494 426 q 457 561 494 508 q 349 614 419 614 q 235 559 279 614 q 185 413 192 504 m 175 838 q 165 847 175 838 q 156 889 156 857 q 174 942 156 921 q 222 964 192 964 q 276 942 253 964 q 299 892 299 921 q 226 818 299 821 q 175 838 194 818 m 424 838 q 414 847 424 838 q 404 889 404 857 q 422 942 404 921 q 471 964 440 964 q 524 942 501 964 q 547 892 547 921 q 475 818 547 821 q 424 838 443 818 z "},"รฌ":{"ha":418,"x_min":-4,"x_max":397,"o":"m 228 8 l 51 0 q 47 23 47 4 q 56 50 47 42 q 137 66 111 50 q 163 121 163 82 l 164 497 q 49 568 164 568 q 44 591 44 572 q 53 618 44 610 q 135 628 96 618 q 187 647 174 639 q 209 663 200 654 q 236 672 218 672 q 263 667 254 672 l 285 121 q 310 66 286 82 q 390 50 335 50 q 397 23 397 43 q 394 0 397 3 l 228 8 m -4 964 q 17 1024 -4 983 q 71 1065 39 1065 q 263 846 122 965 q 250 810 260 825 q 233 796 240 796 q 110 872 225 796 q -4 964 -4 947 z "},"รญ":{"ha":418,"x_min":44,"x_max":397,"o":"m 228 8 l 51 0 q 47 23 47 4 q 56 50 47 42 q 137 66 111 50 q 163 121 163 82 l 164 497 q 49 568 164 568 q 44 591 44 572 q 53 618 44 610 q 135 628 96 618 q 187 647 174 639 q 209 663 200 654 q 236 672 218 672 q 263 667 254 672 l 285 121 q 310 66 286 82 q 390 50 335 50 q 397 23 397 43 q 394 0 397 3 l 228 8 m 342 964 q 227 872 342 947 q 105 796 113 796 q 90 806 97 796 q 75 846 78 825 q 267 1065 215 965 q 320 1024 299 1065 q 342 964 342 983 z "},"รฎ":{"ha":418,"x_min":-8,"x_max":425,"o":"m 228 8 l 51 0 q 47 23 47 4 q 56 50 47 42 q 137 66 111 50 q 163 121 163 82 l 164 497 q 49 568 164 568 q 44 591 44 572 q 53 618 44 610 q 135 628 96 618 q 187 647 174 639 q 209 663 200 654 q 236 672 218 672 q 263 667 254 672 l 285 121 q 310 66 286 82 q 390 50 335 50 q 397 23 397 43 q 394 0 397 3 l 228 8 m 183 1043 q 207 1049 189 1049 q 233 1043 225 1049 q 318 929 264 985 q 375 872 336 910 q 426 817 426 822 q 421 801 426 811 q 411 786 415 792 q 397 774 400 774 q 361 796 393 774 q 208 921 274 861 q 90 822 156 869 q 22 774 24 774 q 15 776 19 774 q -2 798 6 785 q -10 817 -10 811 q -8 824 -10 822 q 183 1043 132 943 z "},"รฏ":{"ha":418,"x_min":11,"x_max":403,"o":"m 228 8 l 51 0 q 47 23 47 4 q 56 50 47 42 q 137 66 111 50 q 163 121 163 82 l 164 497 q 49 568 164 568 q 44 591 44 572 q 53 618 44 610 q 135 628 96 618 q 187 647 174 639 q 209 663 200 654 q 236 672 218 672 q 263 667 254 672 l 285 121 q 310 66 286 82 q 390 50 335 50 q 397 23 397 43 q 394 0 397 3 l 228 8 m 31 838 q 21 847 31 838 q 11 889 11 857 q 29 942 11 921 q 78 964 47 964 q 131 942 108 964 q 154 892 154 921 q 82 818 154 821 q 31 838 50 818 m 279 838 q 269 847 279 838 q 260 889 260 857 q 278 942 260 921 q 326 964 296 964 q 380 942 357 964 q 403 892 403 921 q 331 818 403 821 q 279 838 299 818 z "},"รฐ":{"ha":792,"x_min":61,"x_max":790,"o":"m 719 63 q 771 75 742 63 q 781 38 781 63 q 746 4 781 22 q 665 -14 711 -14 q 590 14 618 -14 q 556 69 563 42 l 550 99 q 335 -14 461 -14 q 135 76 210 -14 q 61 313 61 165 q 140 571 61 461 q 351 681 219 681 q 540 599 458 681 l 542 767 l 344 767 q 332 817 332 794 q 340 847 332 839 q 542 844 363 844 l 543 885 q 407 956 546 956 q 403 978 403 960 q 411 1006 403 997 q 581 1056 507 1011 q 604 1061 586 1061 q 631 1056 622 1061 l 636 844 q 783 847 747 844 q 790 801 790 825 q 779 767 790 778 l 639 767 l 657 160 q 719 63 660 63 m 182 313 q 231 132 182 204 q 374 60 279 60 q 465 93 418 60 q 536 171 511 126 l 539 464 q 483 567 539 519 q 372 614 428 614 q 182 313 182 614 z "},"รฑ":{"ha":835,"x_min":42,"x_max":821,"o":"m 260 560 q 481 681 381 681 q 640 621 582 681 q 700 464 697 561 l 710 121 q 735 66 711 82 q 814 50 758 50 q 821 23 821 43 q 818 0 821 3 l 653 8 l 483 0 q 479 23 479 4 q 488 50 479 42 q 563 66 540 50 q 588 121 586 82 l 593 439 q 556 551 594 508 q 447 594 517 594 q 343 553 397 594 q 299 515 325 539 q 268 488 274 492 l 279 121 q 303 66 281 82 q 378 50 325 50 q 385 23 385 43 q 382 0 385 3 l 222 8 l 46 0 q 42 23 42 4 q 50 50 42 42 q 131 66 106 50 q 157 121 157 82 l 161 510 q 135 565 161 549 q 53 581 110 581 q 49 603 49 585 q 57 631 49 622 q 83 633 63 631 q 110 637 104 636 q 131 641 115 638 q 156 650 147 644 q 194 676 183 665 q 222 686 204 686 q 249 681 240 686 l 260 560 m 653 888 q 586 838 631 863 q 503 813 542 813 q 405 843 464 813 q 322 874 346 874 q 229 824 279 874 q 208 869 208 828 l 210 878 q 277 926 231 901 q 365 951 324 951 q 461 922 406 951 q 540 892 517 892 q 633 942 583 892 q 654 897 654 938 l 653 888 z "},"รฒ":{"ha":718,"x_min":63,"x_max":657,"o":"m 135 84 q 99 133 135 84 q 63 333 63 182 q 135 583 63 485 q 356 681 208 681 q 580 582 503 681 q 657 333 657 483 q 580 85 657 183 q 356 -14 503 -14 q 135 84 208 -14 m 508 136 q 539 321 539 200 q 491 528 539 442 q 353 614 443 614 q 197 504 231 614 q 181 358 181 446 q 228 144 181 226 q 375 61 276 61 q 508 136 474 61 m 131 964 q 152 1024 131 983 q 206 1065 174 1065 q 397 846 257 965 q 385 810 394 825 q 367 796 375 796 q 245 872 360 796 q 131 964 131 947 z "},"รณ":{"ha":718,"x_min":63,"x_max":657,"o":"m 135 84 q 99 133 135 84 q 63 333 63 182 q 135 583 63 485 q 356 681 208 681 q 580 582 503 681 q 657 333 657 483 q 580 85 657 183 q 356 -14 503 -14 q 135 84 208 -14 m 508 136 q 539 321 539 200 q 491 528 539 442 q 353 614 443 614 q 197 504 231 614 q 181 358 181 446 q 228 144 181 226 q 375 61 276 61 q 508 136 474 61 m 508 964 q 394 872 508 947 q 272 796 279 796 q 257 806 264 796 q 242 846 244 825 q 433 1065 382 965 q 487 1024 465 1065 q 508 964 508 983 z "},"รด":{"ha":718,"x_min":63,"x_max":657,"o":"m 135 84 q 99 133 135 84 q 63 333 63 182 q 135 583 63 485 q 356 681 208 681 q 580 582 503 681 q 657 333 657 483 q 580 85 657 183 q 356 -14 503 -14 q 135 84 208 -14 m 508 136 q 539 321 539 200 q 491 528 539 442 q 353 614 443 614 q 197 504 231 614 q 181 358 181 446 q 228 144 181 226 q 375 61 276 61 q 508 136 474 61 m 332 1043 q 356 1049 338 1049 q 382 1043 374 1049 q 467 929 413 985 q 524 872 485 910 q 575 817 575 822 q 569 801 575 811 q 560 786 564 792 q 545 774 549 774 q 510 796 542 774 q 357 921 422 861 q 238 822 304 869 q 170 774 172 774 q 164 776 168 774 q 147 798 154 785 q 139 817 139 811 q 140 824 139 822 q 332 1043 281 943 z "},"รต":{"ha":718,"x_min":63,"x_max":657,"o":"m 135 84 q 99 133 135 84 q 63 333 63 182 q 135 583 63 485 q 356 681 208 681 q 580 582 503 681 q 657 333 657 483 q 580 85 657 183 q 356 -14 503 -14 q 135 84 208 -14 m 508 136 q 539 321 539 200 q 491 528 539 442 q 353 614 443 614 q 197 504 231 614 q 181 358 181 446 q 228 144 181 226 q 375 61 276 61 q 508 136 474 61 m 565 888 q 499 838 543 863 q 415 813 454 813 q 317 843 376 813 q 235 874 258 874 q 142 824 192 874 q 121 869 121 828 l 122 878 q 190 926 143 901 q 276 951 236 951 q 372 922 317 951 q 453 892 428 892 q 546 942 496 892 q 567 897 567 938 l 565 888 z "},"รถ":{"ha":718,"x_min":63,"x_max":657,"o":"m 135 84 q 99 133 135 84 q 63 333 63 182 q 135 583 63 485 q 356 681 208 681 q 580 582 503 681 q 657 333 657 483 q 580 85 657 183 q 356 -14 503 -14 q 135 84 208 -14 m 508 136 q 539 321 539 200 q 491 528 539 442 q 353 614 443 614 q 197 504 231 614 q 181 358 181 446 q 228 144 181 226 q 375 61 276 61 q 508 136 474 61 m 174 838 q 164 847 174 838 q 154 889 154 857 q 172 942 154 921 q 221 964 190 964 q 274 942 251 964 q 297 892 297 921 q 225 818 297 821 q 174 838 193 818 m 422 838 q 413 847 422 838 q 403 889 403 857 q 421 942 403 921 q 469 964 439 964 q 523 942 500 964 q 546 892 546 921 q 474 818 546 821 q 422 838 442 818 z "},"รท":{"ha":715,"x_min":81,"x_max":633,"o":"m 424 546 q 424 531 424 546 q 405 498 424 515 q 355 481 386 481 q 306 499 324 481 q 289 548 289 518 q 306 597 289 578 q 353 617 324 617 q 403 597 382 617 q 424 546 424 576 m 424 128 q 424 113 424 128 q 405 80 424 97 q 355 63 386 63 q 306 81 324 63 q 289 130 289 100 q 306 179 289 160 q 353 199 324 199 q 403 178 382 199 q 424 128 424 158 m 622 304 q 356 307 561 307 q 93 304 151 307 q 81 358 81 335 q 89 392 81 382 q 357 389 118 389 q 626 392 596 389 q 633 341 633 367 q 622 304 633 315 z "},"รธ":{"ha":718,"x_min":63,"x_max":657,"o":"m 657 333 q 580 85 657 183 q 356 -14 503 -14 q 282 -6 315 -14 q 254 -99 263 -65 q 168 -79 188 -99 l 206 22 q 63 333 63 106 q 135 583 63 485 q 356 681 208 681 q 421 674 386 681 l 451 772 q 535 747 518 772 q 499 647 515 697 q 617 523 576 607 q 657 333 657 439 m 306 72 q 375 61 329 61 q 456 81 421 61 q 508 136 492 100 q 539 308 539 200 q 468 560 539 476 q 306 72 383 313 m 181 358 q 240 125 181 206 q 400 606 317 347 q 344 614 378 614 q 278 599 310 614 q 227 562 246 585 q 197 504 208 539 q 181 358 181 446 z "},"รน":{"ha":814,"x_min":25,"x_max":801,"o":"m 572 107 q 350 -14 451 -14 q 190 47 249 -14 q 132 203 131 107 l 133 496 q 110 551 133 536 q 29 567 86 567 q 25 588 25 571 q 33 617 25 604 q 112 631 83 622 q 175 667 140 640 q 203 671 181 671 q 229 667 225 671 l 239 228 q 278 115 240 157 q 385 72 317 72 q 489 114 435 72 q 533 151 507 128 q 564 179 558 175 l 564 496 q 540 551 564 535 q 460 567 515 567 q 456 590 456 571 q 464 617 456 608 q 542 631 514 622 q 606 667 571 640 q 633 671 611 671 q 660 667 656 671 l 674 157 q 739 63 676 63 q 792 75 761 63 q 801 38 801 63 q 767 4 801 22 q 694 -14 732 -14 q 634 -1 656 -14 q 601 29 613 11 q 572 107 579 65 m 175 964 q 197 1024 175 983 q 250 1065 218 1065 q 442 846 301 965 q 429 810 439 825 q 412 796 419 796 q 290 872 404 796 q 175 964 175 947 z "},"รบ":{"ha":814,"x_min":25,"x_max":801,"o":"m 572 107 q 350 -14 451 -14 q 190 47 249 -14 q 132 203 131 107 l 133 496 q 110 551 133 536 q 29 567 86 567 q 25 588 25 571 q 33 617 25 604 q 112 631 83 622 q 175 667 140 640 q 203 671 181 671 q 229 667 225 671 l 239 228 q 278 115 240 157 q 385 72 317 72 q 489 114 435 72 q 533 151 507 128 q 564 179 558 175 l 564 496 q 540 551 564 535 q 460 567 515 567 q 456 590 456 571 q 464 617 456 608 q 542 631 514 622 q 606 667 571 640 q 633 671 611 671 q 660 667 656 671 l 674 157 q 739 63 676 63 q 792 75 761 63 q 801 38 801 63 q 767 4 801 22 q 694 -14 732 -14 q 634 -1 656 -14 q 601 29 613 11 q 572 107 579 65 m 556 964 q 441 872 556 947 q 319 796 326 796 q 304 806 311 796 q 289 846 292 825 q 481 1065 429 965 q 534 1024 513 1065 q 556 964 556 983 z "},"รป":{"ha":814,"x_min":25,"x_max":801,"o":"m 572 107 q 350 -14 451 -14 q 190 47 249 -14 q 132 203 131 107 l 133 496 q 110 551 133 536 q 29 567 86 567 q 25 588 25 571 q 33 617 25 604 q 112 631 83 622 q 175 667 140 640 q 203 671 181 671 q 229 667 225 671 l 239 228 q 278 115 240 157 q 385 72 317 72 q 489 114 435 72 q 533 151 507 128 q 564 179 558 175 l 564 496 q 540 551 564 535 q 460 567 515 567 q 456 590 456 571 q 464 617 456 608 q 542 631 514 622 q 606 667 571 640 q 633 671 611 671 q 660 667 656 671 l 674 157 q 739 63 676 63 q 792 75 761 63 q 801 38 801 63 q 767 4 801 22 q 694 -14 732 -14 q 634 -1 656 -14 q 601 29 613 11 q 572 107 579 65 m 350 1043 q 374 1049 356 1049 q 400 1043 392 1049 q 485 928 431 985 q 542 872 503 910 q 593 817 593 822 q 588 801 593 811 q 578 786 582 792 q 563 774 567 774 q 528 797 560 774 q 375 921 440 861 q 256 822 322 869 q 188 774 190 774 q 182 778 186 774 q 165 798 172 785 q 157 817 157 811 q 158 824 157 822 q 350 1043 299 943 z "},"รผ":{"ha":814,"x_min":25,"x_max":801,"o":"m 572 107 q 350 -14 451 -14 q 190 47 249 -14 q 132 203 131 107 l 133 496 q 110 551 133 536 q 29 567 86 567 q 25 588 25 571 q 33 617 25 604 q 112 631 83 622 q 175 667 140 640 q 203 671 181 671 q 229 667 225 671 l 239 228 q 278 115 240 157 q 385 72 317 72 q 489 114 435 72 q 533 151 507 128 q 564 179 558 175 l 564 496 q 540 551 564 535 q 460 567 515 567 q 456 590 456 571 q 464 617 456 608 q 542 631 514 622 q 606 667 571 640 q 633 671 611 671 q 660 667 656 671 l 674 157 q 739 63 676 63 q 792 75 761 63 q 801 38 801 63 q 767 4 801 22 q 694 -14 732 -14 q 634 -1 656 -14 q 601 29 613 11 q 572 107 579 65 m 199 838 q 189 847 199 838 q 179 889 179 857 q 197 942 179 921 q 246 964 215 964 q 299 942 276 964 q 322 892 322 921 q 250 818 322 821 q 199 838 218 818 m 447 838 q 438 847 447 838 q 428 889 428 857 q 446 942 428 921 q 494 964 464 964 q 548 942 525 964 q 571 892 571 921 q 499 818 571 821 q 447 838 467 818 z "},"รฝ":{"ha":747,"x_min":-6,"x_max":747,"o":"m 151 658 l 313 667 q 315 644 315 664 q 308 617 315 624 q 232 583 232 617 q 239 557 232 574 l 415 129 l 543 557 q 546 579 546 565 q 476 617 546 617 q 468 644 468 625 q 472 667 468 663 l 618 658 l 744 667 q 747 644 747 664 q 740 617 747 624 q 676 604 696 617 q 646 557 657 592 l 439 -58 q 338 -301 379 -235 q 194 -403 274 -403 q 101 -373 143 -403 q 58 -287 58 -343 q 80 -240 58 -258 q 130 -222 101 -222 q 176 -238 158 -222 q 193 -274 193 -254 q 184 -304 193 -294 q 175 -319 175 -314 q 201 -337 175 -337 q 267 -276 226 -337 q 332 -149 308 -214 q 376 -8 356 -83 l 107 557 q 70 603 90 590 q 3 617 50 617 q -6 644 -6 625 q -1 667 -6 663 l 151 658 m 582 964 q 467 872 582 947 q 345 796 353 796 q 331 806 338 796 q 315 846 318 825 q 507 1065 456 965 q 560 1024 539 1065 q 582 964 582 983 z "},"รพ":{"ha":757,"x_min":-11,"x_max":696,"o":"m 575 340 q 526 528 575 450 q 383 607 478 607 q 287 571 338 607 q 211 490 236 535 l 218 203 q 274 100 219 147 q 385 53 329 53 q 575 340 575 53 m 169 -381 l -7 -389 q -11 -366 -11 -385 q -3 -339 -11 -347 q 79 -323 54 -339 q 104 -268 104 -307 l 108 885 q -7 956 108 956 q -11 978 -11 960 q -3 1006 -11 997 q 84 1019 50 1010 q 146 1056 118 1028 q 169 1061 151 1061 q 196 1056 188 1061 l 208 574 q 414 681 297 681 q 625 587 554 681 q 696 343 696 493 q 617 90 696 193 q 406 -14 539 -14 q 219 68 301 -14 l 226 -268 q 252 -323 228 -307 q 332 -339 276 -339 q 339 -366 339 -346 q 336 -389 339 -386 l 169 -381 z "},"รฟ":{"ha":747,"x_min":-6,"x_max":747,"o":"m 151 658 l 313 667 q 315 644 315 664 q 308 617 315 624 q 232 583 232 617 q 239 557 232 574 l 415 129 l 543 557 q 546 579 546 565 q 476 617 546 617 q 468 644 468 625 q 472 667 468 663 l 618 658 l 744 667 q 747 644 747 664 q 740 617 747 624 q 676 604 696 617 q 646 557 657 592 l 439 -58 q 338 -301 379 -235 q 194 -403 274 -403 q 101 -373 143 -403 q 58 -287 58 -343 q 80 -240 58 -258 q 130 -222 101 -222 q 176 -238 158 -222 q 193 -274 193 -254 q 184 -304 193 -294 q 175 -319 175 -314 q 201 -337 175 -337 q 267 -276 226 -337 q 332 -149 308 -214 q 376 -8 356 -83 l 107 557 q 70 603 90 590 q 3 617 50 617 q -6 644 -6 625 q -1 667 -6 663 l 151 658 m 222 838 q 213 847 222 838 q 203 889 203 857 q 221 942 203 921 q 269 964 239 964 q 323 942 300 964 q 346 892 346 921 q 274 818 346 821 q 222 838 242 818 m 471 838 q 461 847 471 838 q 451 889 451 857 q 469 942 451 921 q 518 964 488 964 q 572 942 549 964 q 594 892 594 921 q 522 818 594 821 q 471 838 490 818 z "},"ฤง":{"ha":826,"x_min":-11,"x_max":813,"o":"m 244 560 q 479 681 365 681 q 631 621 574 681 q 692 464 689 561 l 701 121 q 726 66 703 82 q 806 50 750 50 q 813 23 813 43 q 810 0 813 3 l 644 8 l 475 0 q 471 23 471 4 q 479 50 471 42 q 555 66 532 50 q 579 121 578 82 l 585 439 q 547 551 586 508 q 439 594 508 594 q 283 515 369 594 q 253 488 257 490 l 264 121 q 288 66 265 82 q 363 50 310 50 q 369 23 369 43 q 367 0 369 3 l 207 8 l 31 0 q 26 23 26 4 q 35 50 26 42 q 116 66 90 50 q 142 121 142 82 l 144 767 l -1 765 q -11 816 -11 793 q -4 847 -11 839 q 146 844 17 844 l 146 885 q 117 940 146 924 q 31 956 89 956 q 26 978 26 960 q 35 1006 26 997 q 122 1019 88 1010 q 183 1056 156 1028 q 207 1061 189 1061 q 233 1056 225 1061 l 238 844 q 442 847 415 844 q 449 799 449 824 q 439 765 449 775 q 240 767 413 767 l 244 560 z "},"ฤจ":{"ha":439,"x_min":-6,"x_max":440,"o":"m 224 968 l 358 976 q 361 952 361 974 q 354 924 361 931 q 285 906 304 924 q 265 851 265 889 l 286 125 q 308 70 288 88 q 378 53 328 53 q 385 24 385 46 q 382 0 385 3 l 228 8 l 63 0 q 58 24 58 4 q 67 53 58 44 q 138 70 117 53 q 160 125 160 88 l 165 851 q 145 906 165 889 q 75 924 125 924 q 67 952 67 931 q 69 976 67 974 q 224 968 69 976 m 439 1188 q 372 1138 417 1163 q 289 1113 328 1113 q 191 1143 250 1113 q 108 1174 132 1174 q 15 1124 65 1174 q -6 1169 -6 1128 l -4 1178 q 63 1226 17 1201 q 151 1251 110 1251 q 247 1222 192 1251 q 326 1192 303 1192 q 419 1242 369 1192 q 440 1197 440 1238 l 439 1188 z "},"ฤฉ":{"ha":418,"x_min":-35,"x_max":411,"o":"m 228 8 l 51 0 q 47 23 47 4 q 56 50 47 42 q 137 66 111 50 q 163 121 163 82 l 164 497 q 49 568 164 568 q 44 591 44 572 q 53 618 44 610 q 135 628 96 618 q 187 647 174 639 q 209 663 200 654 q 236 672 218 672 q 263 667 254 672 l 285 121 q 310 66 286 82 q 390 50 335 50 q 397 23 397 43 q 394 0 397 3 l 228 8 m 410 888 q 343 838 388 863 q 260 813 299 813 q 162 843 221 813 q 79 874 103 874 q -14 824 36 874 q -35 869 -35 828 l -33 878 q 34 926 -12 901 q 121 951 81 951 q 217 922 161 951 q 297 892 272 892 q 390 942 340 892 q 411 897 411 938 l 410 888 z "},"ฤฑ":{"ha":418,"x_min":44,"x_max":397,"o":"m 228 8 l 51 0 q 47 23 47 4 q 56 50 47 42 q 137 66 111 50 q 163 121 163 82 l 164 497 q 49 568 164 568 q 44 591 44 572 q 53 618 44 610 q 135 628 96 618 q 187 647 174 639 q 209 663 200 654 q 236 672 218 672 q 263 667 254 672 l 285 121 q 310 66 286 82 q 390 50 335 50 q 397 23 397 43 q 394 0 397 3 l 228 8 z "},"ฤฒ":{"ha":846,"x_min":58,"x_max":786,"o":"m 224 968 l 358 976 q 361 952 361 974 q 354 924 361 931 q 285 906 304 924 q 265 851 265 889 l 286 125 q 308 70 288 88 q 378 53 328 53 q 385 24 385 46 q 382 0 385 3 l 228 8 l 63 0 q 58 24 58 4 q 67 53 58 44 q 138 70 117 53 q 160 125 160 88 l 165 851 q 145 906 165 889 q 75 924 125 924 q 67 952 67 931 q 69 976 67 974 q 224 968 69 976 m 643 968 l 783 976 q 786 952 786 974 q 779 924 786 931 q 707 906 729 924 q 686 851 685 889 l 703 69 l 703 29 q 640 -150 703 -83 q 472 -217 576 -217 q 381 -186 421 -217 q 342 -114 342 -156 q 361 -50 342 -72 q 408 -28 381 -28 q 451 -40 435 -28 q 468 -69 468 -51 q 461 -97 468 -87 q 454 -111 454 -106 q 496 -133 454 -133 q 597 57 597 -133 l 597 97 l 592 851 q 499 924 592 924 q 489 952 489 931 q 492 976 489 974 l 643 968 z "},"ฤณ":{"ha":774,"x_min":44,"x_max":688,"o":"m 290 851 q 290 833 290 851 q 268 795 290 815 q 210 775 246 775 q 154 797 175 775 q 133 853 133 819 q 154 910 133 888 q 208 933 175 933 q 266 910 242 933 q 290 851 290 886 m 228 8 l 51 0 q 47 23 47 4 q 56 50 47 42 q 137 66 111 50 q 163 121 163 82 l 164 497 q 49 568 164 568 q 44 591 44 572 q 53 618 44 610 q 135 628 96 618 q 187 647 174 639 q 209 663 200 654 q 236 672 218 672 q 263 667 254 672 l 285 121 q 310 66 286 82 q 390 50 335 50 q 397 23 397 43 q 394 0 397 3 l 228 8 m 688 851 q 688 834 688 851 q 665 796 688 817 q 607 775 642 775 q 551 797 572 775 q 531 853 531 819 q 551 910 531 886 q 606 933 572 933 q 663 910 639 933 q 688 851 688 886 m 432 -321 q 467 -337 432 -337 q 538 -287 503 -337 q 571 -149 572 -237 l 561 497 q 446 568 560 568 q 442 591 442 572 q 450 618 442 610 q 615 667 543 625 q 642 672 626 672 q 665 667 657 672 l 669 -126 q 610 -328 671 -253 q 446 -403 550 -403 q 348 -378 388 -403 q 308 -303 308 -353 q 328 -252 308 -272 q 376 -232 347 -232 q 424 -246 406 -232 q 443 -278 443 -260 q 438 -307 443 -297 q 432 -321 432 -317 z "},"ฤด":{"ha":407,"x_min":-97,"x_max":414,"o":"m 204 968 l 344 976 q 347 952 347 974 q 340 924 347 931 q 268 906 290 924 q 247 851 246 889 l 264 69 l 264 29 q 201 -150 264 -83 q 33 -217 138 -217 q -58 -186 -18 -217 q -97 -114 -97 -156 q -78 -50 -97 -72 q -31 -28 -58 -28 q 13 -40 -4 -28 q 29 -69 29 -51 q 22 -97 29 -87 q 15 -111 15 -106 q 57 -133 15 -133 q 158 57 158 -133 l 158 97 l 153 851 q 60 924 153 924 q 50 952 50 931 q 53 976 50 974 l 204 968 m 172 1361 q 196 1367 178 1367 q 222 1361 214 1367 q 307 1247 253 1303 q 364 1190 325 1228 q 415 1135 415 1140 q 410 1119 415 1129 q 400 1104 404 1110 q 385 1092 389 1092 q 350 1114 382 1092 q 197 1239 263 1179 q 78 1140 144 1188 q 10 1092 13 1092 q 4 1094 8 1092 q -13 1116 -6 1103 q -21 1135 -21 1129 q -19 1142 -21 1140 q 172 1361 121 1261 z "},"ฤต":{"ha":356,"x_min":-110,"x_max":388,"o":"m 14 -321 q 49 -337 14 -337 q 119 -287 85 -337 q 153 -149 154 -237 l 143 497 q 28 568 142 568 q 24 591 24 572 q 32 618 24 610 q 197 667 125 625 q 224 672 208 672 q 247 667 239 672 l 251 -126 q 192 -328 253 -253 q 28 -403 132 -403 q -70 -378 -31 -403 q -110 -303 -110 -353 q -90 -252 -110 -272 q -41 -232 -69 -232 q 6 -246 -12 -232 q 25 -278 25 -260 q 19 -307 25 -297 q 14 -321 14 -317 m 143 1043 q 167 1049 149 1049 q 193 1043 185 1049 q 278 928 224 985 q 335 872 296 910 q 386 817 386 822 q 381 801 386 811 q 369 786 375 792 q 356 774 360 774 q 322 797 353 774 q 168 921 233 861 q 49 822 115 869 q -19 774 -17 774 q -25 778 -21 774 q -42 798 -35 785 q -50 817 -50 811 q -49 824 -50 822 q 143 1043 92 943 z "},"ฤฟ":{"ha":749,"x_min":58,"x_max":739,"o":"m 221 968 l 360 976 q 363 952 363 974 q 356 924 363 931 q 285 906 306 924 q 264 851 264 889 l 286 182 q 308 101 289 124 q 378 78 326 78 l 492 78 q 601 121 557 78 q 686 258 644 164 q 708 261 689 261 q 739 249 726 261 l 667 -14 q 334 4 493 4 q 63 0 175 4 q 58 24 58 4 q 67 53 58 44 q 160 125 160 53 l 168 851 q 147 906 168 889 q 75 924 125 924 q 65 952 65 931 q 68 976 65 974 l 221 968 m 586 538 q 586 520 586 538 q 564 483 586 503 q 506 463 542 463 q 450 485 471 463 q 429 541 429 507 q 450 598 429 575 q 504 621 471 621 q 562 597 538 621 q 586 538 586 574 z "},"ล":{"ha":524,"x_min":22,"x_max":504,"o":"m 203 8 l 26 0 q 22 25 22 4 q 31 50 22 46 q 113 66 88 50 q 138 121 138 82 l 151 885 q 36 956 151 956 q 32 978 32 960 q 40 1006 32 997 q 189 1056 113 1011 q 215 1061 200 1061 q 239 1056 231 1061 l 260 121 q 285 66 261 82 q 365 50 308 50 q 372 24 372 46 q 369 0 372 3 l 203 8 m 504 538 q 504 520 504 538 q 482 483 504 503 q 424 463 460 463 q 368 485 389 463 q 347 541 347 507 q 368 598 347 575 q 422 621 389 621 q 480 597 456 621 q 504 538 504 574 z "},"ล":{"ha":757,"x_min":17,"x_max":765,"o":"m 226 968 l 365 976 q 368 952 368 974 q 361 924 368 931 q 290 906 311 924 q 269 851 269 889 l 278 569 q 490 697 421 650 q 531 625 531 656 q 422 556 531 615 q 282 478 313 496 l 292 182 q 313 101 294 124 q 383 78 332 78 l 518 78 q 627 121 583 78 q 713 258 671 164 q 734 261 715 261 q 765 249 753 261 l 693 -14 q 349 4 513 4 q 68 0 185 4 q 64 24 64 4 q 72 53 64 44 q 165 125 165 53 l 168 410 q 65 347 86 361 q 17 417 17 386 q 84 458 17 422 q 169 506 151 494 l 174 851 q 152 906 174 889 q 81 924 131 924 q 71 952 71 931 q 74 976 71 974 l 226 968 z "},"ล":{"ha":464,"x_min":6,"x_max":465,"o":"m 240 8 l 64 0 q 60 23 60 4 q 68 50 60 42 q 150 66 125 50 q 175 121 175 82 l 178 424 q 54 347 90 372 q 6 417 6 379 q 178 515 6 424 l 182 885 q 67 956 182 956 q 63 978 63 960 q 71 1006 63 997 q 219 1056 143 1011 q 246 1061 231 1061 q 269 1056 261 1061 l 283 578 q 424 664 389 640 q 465 594 465 625 q 464 585 465 593 q 286 488 411 560 l 297 121 q 323 66 299 82 q 403 50 347 50 q 410 23 410 43 q 407 0 410 3 l 240 8 z "},"ล":{"ha":1026,"x_min":56,"x_max":978,"o":"m 403 1139 l 403 1146 q 629 1328 560 1236 q 674 1283 660 1322 q 688 1232 688 1244 q 686 1215 688 1219 q 557 1145 682 1200 q 422 1090 432 1090 q 403 1139 403 1099 m 832 968 l 975 976 q 978 952 978 971 q 968 924 978 933 q 897 907 917 924 q 876 851 876 890 l 865 0 q 831 -6 860 -6 q 799 0 803 -6 l 251 829 l 276 125 q 298 69 278 86 q 369 53 318 53 q 379 22 379 40 q 376 0 379 3 l 204 8 l 60 0 q 56 24 56 4 q 64 53 56 44 q 134 70 114 53 q 156 125 154 88 l 171 851 q 150 906 172 889 q 78 924 128 924 q 68 952 68 931 q 71 976 68 974 q 185 968 129 968 q 299 976 240 968 l 793 188 l 769 851 q 747 906 768 889 q 678 924 726 924 q 669 952 669 932 q 674 976 669 972 l 832 968 z "},"ล":{"ha":835,"x_min":42,"x_max":821,"o":"m 260 560 q 481 681 381 681 q 640 621 582 681 q 700 464 697 561 l 710 121 q 735 66 711 82 q 814 50 758 50 q 821 23 821 43 q 818 0 821 3 l 653 8 l 483 0 q 479 23 479 4 q 488 50 479 42 q 563 66 540 50 q 588 121 586 82 l 593 439 q 556 551 594 508 q 447 594 517 594 q 343 553 397 594 q 299 515 325 539 q 268 488 274 492 l 279 121 q 303 66 281 82 q 378 50 325 50 q 385 23 385 43 q 382 0 385 3 l 222 8 l 46 0 q 42 23 42 4 q 50 50 42 42 q 131 66 106 50 q 157 121 157 82 l 161 510 q 135 565 161 549 q 53 581 110 581 q 49 603 49 585 q 57 631 49 622 q 83 633 63 631 q 110 637 104 636 q 131 641 115 638 q 156 650 147 644 q 194 676 183 665 q 222 686 204 686 q 249 681 240 686 l 260 560 m 610 964 q 495 872 610 947 q 373 796 381 796 q 358 806 365 796 q 343 846 346 825 q 535 1065 483 965 q 588 1024 567 1065 q 610 964 610 983 z "},"ล":{"ha":1381,"x_min":74,"x_max":1342,"o":"m 932 1 l 704 0 q 566 -7 646 0 q 471 -14 486 -14 q 176 129 278 -14 q 74 490 74 272 q 176 849 74 707 q 471 990 278 990 q 589 981 515 990 q 719 971 663 971 l 801 971 q 1244 990 1036 971 l 1264 746 q 1236 740 1258 740 q 1210 746 1214 740 q 1164 863 1197 833 q 1057 893 1131 893 l 796 893 l 807 532 l 956 532 q 1026 565 1004 532 q 1060 671 1049 599 q 1085 676 1065 676 q 1113 671 1104 676 q 1101 495 1101 582 q 1113 319 1101 408 q 1085 314 1107 314 q 1060 319 1064 314 q 1026 421 1049 389 q 956 453 1004 453 l 808 453 l 817 182 q 838 101 819 124 q 908 78 857 78 l 1096 78 q 1203 122 1160 78 q 1289 258 1247 165 q 1310 261 1292 261 q 1342 249 1329 261 l 1269 -14 q 932 1 1114 1 m 260 219 q 353 109 293 150 q 499 68 414 68 q 644 97 583 68 q 704 194 704 126 l 704 756 q 679 838 704 804 q 614 885 654 871 q 476 908 546 908 q 194 540 194 908 q 260 219 194 356 z "},"ล":{"ha":1139,"x_min":63,"x_max":1079,"o":"m 508 136 q 539 321 539 200 q 491 528 539 442 q 353 614 443 614 q 197 504 231 614 q 181 358 181 446 q 228 144 181 226 q 375 61 276 61 q 508 136 474 61 m 651 413 l 847 411 q 960 419 953 411 q 961 443 961 426 q 924 561 961 508 q 816 614 886 614 q 702 559 746 614 q 651 413 658 504 m 1064 82 q 819 -14 968 -14 q 590 99 671 -14 q 360 -14 511 -14 q 135 84 208 -14 q 63 333 63 182 q 135 583 63 485 q 360 681 208 681 q 590 567 511 681 q 811 681 672 681 q 1015 585 950 681 q 1079 340 1079 490 l 647 340 q 697 151 647 228 q 838 74 746 74 q 1049 136 963 74 q 1071 101 1071 114 q 1064 82 1071 89 z "},"ล":{"ha":871,"x_min":58,"x_max":911,"o":"m 261 1139 l 261 1146 q 488 1328 418 1236 q 532 1283 518 1322 q 546 1232 546 1244 q 544 1215 546 1219 q 415 1145 540 1200 q 281 1090 290 1090 q 261 1139 261 1099 m 354 906 q 250 896 297 906 l 264 507 l 339 507 q 510 560 443 507 q 576 708 576 613 q 518 854 576 803 q 354 906 460 906 m 201 968 l 408 976 q 613 903 526 976 q 700 727 700 831 q 641 549 700 624 q 478 446 582 474 l 618 283 q 792 99 738 144 q 903 53 846 53 q 911 22 911 42 q 908 0 911 3 q 835 6 888 0 q 746 13 783 13 q 642 6 708 13 q 550 0 575 0 q 547 22 547 1 q 557 53 547 43 q 622 81 622 53 q 512 247 622 114 q 367 406 401 379 q 272 432 333 432 l 286 125 q 308 70 288 88 q 378 53 328 53 q 385 24 385 46 q 382 0 385 3 l 229 8 l 63 0 q 58 24 58 4 q 67 53 58 44 q 160 125 160 53 l 165 853 q 144 907 165 890 q 72 924 124 924 q 64 952 64 931 q 67 976 64 974 l 201 968 z "},"ล":{"ha":871,"x_min":58,"x_max":911,"o":"m 463 -51 q 477 -51 463 -51 q 510 -72 490 -51 q 529 -136 529 -92 q 511 -223 529 -181 q 436 -310 493 -265 q 422 -301 433 -310 q 407 -283 411 -293 q 410 -265 401 -274 q 433 -243 418 -257 q 456 -222 449 -229 q 472 -190 472 -206 q 456 -168 472 -175 q 422 -149 439 -161 q 406 -110 406 -136 q 421 -68 406 -85 q 463 -51 436 -51 m 354 906 q 250 896 297 906 l 264 507 l 339 507 q 510 560 443 507 q 576 708 576 613 q 518 854 576 803 q 354 906 460 906 m 201 968 l 408 976 q 613 903 526 976 q 700 727 700 831 q 641 549 700 624 q 478 446 582 474 l 618 283 q 792 99 738 144 q 903 53 846 53 q 911 22 911 42 q 908 0 911 3 q 835 6 888 0 q 746 13 783 13 q 642 6 708 13 q 550 0 575 0 q 547 22 547 1 q 557 53 547 43 q 622 81 622 53 q 512 247 622 114 q 367 406 401 379 q 272 432 333 432 l 286 125 q 308 70 288 88 q 378 53 328 53 q 385 24 385 46 q 382 0 385 3 l 229 8 l 63 0 q 58 24 58 4 q 67 53 58 44 q 160 125 160 53 l 165 853 q 144 907 165 890 q 72 924 124 924 q 64 952 64 931 q 67 976 64 974 l 201 968 z "},"ล":{"ha":569,"x_min":42,"x_max":553,"o":"m 222 -51 q 235 -51 222 -51 q 268 -72 249 -51 q 288 -136 288 -92 q 269 -223 288 -181 q 194 -310 251 -265 q 181 -301 192 -310 q 165 -283 169 -293 q 168 -265 160 -274 q 192 -243 176 -257 q 214 -222 207 -229 q 231 -190 231 -206 q 214 -168 231 -175 q 181 -149 197 -161 q 164 -110 164 -136 q 179 -68 164 -85 q 222 -51 194 -51 m 222 8 l 46 0 q 42 23 42 4 q 50 50 42 42 q 131 66 106 50 q 157 121 157 82 l 161 510 q 135 565 161 549 q 53 581 110 581 q 49 603 49 585 q 57 631 49 622 q 83 633 63 631 q 110 637 104 636 q 131 641 115 638 q 156 650 147 644 q 194 676 183 665 q 222 686 204 686 q 249 681 240 686 l 263 536 q 344 636 288 592 q 464 681 400 681 q 527 656 501 681 q 553 598 553 632 q 533 544 553 564 q 483 524 514 524 q 417 571 417 524 q 424 593 417 583 q 431 607 431 603 q 421 611 431 611 q 327 533 386 611 q 269 392 268 456 l 279 121 q 305 66 281 82 q 385 50 329 50 q 392 23 392 43 q 389 0 392 3 l 222 8 z "},"ล":{"ha":871,"x_min":58,"x_max":911,"o":"m 354 906 q 250 896 297 906 l 264 507 l 339 507 q 510 560 443 507 q 576 708 576 613 q 518 854 576 803 q 354 906 460 906 m 201 968 l 408 976 q 613 903 526 976 q 700 727 700 831 q 641 549 700 624 q 478 446 582 474 l 618 283 q 792 99 738 144 q 903 53 846 53 q 911 22 911 42 q 908 0 911 3 q 835 6 888 0 q 746 13 783 13 q 642 6 708 13 q 550 0 575 0 q 547 22 547 1 q 557 53 547 43 q 622 81 622 53 q 512 247 622 114 q 367 406 401 379 q 272 432 333 432 l 286 125 q 308 70 288 88 q 378 53 328 53 q 385 24 385 46 q 382 0 385 3 l 229 8 l 63 0 q 58 24 58 4 q 67 53 58 44 q 160 125 160 53 l 165 853 q 144 907 165 890 q 72 924 124 924 q 64 952 64 931 q 67 976 64 974 l 201 968 m 261 1211 q 204 1268 243 1231 q 159 1312 165 1306 q 153 1324 153 1318 q 158 1339 153 1329 q 168 1354 164 1349 q 183 1367 179 1367 q 218 1344 186 1367 q 371 1218 297 1285 q 500 1326 444 1285 q 558 1367 556 1367 q 564 1364 560 1367 q 581 1342 574 1356 q 589 1324 589 1329 q 583 1312 589 1318 q 538 1268 576 1306 q 481 1211 499 1231 q 396 1097 426 1156 q 371 1092 390 1092 q 346 1097 351 1092 q 261 1211 315 1156 z "},"ล":{"ha":569,"x_min":42,"x_max":553,"o":"m 222 8 l 46 0 q 42 23 42 4 q 50 50 42 42 q 131 66 106 50 q 157 121 157 82 l 161 510 q 135 565 161 549 q 53 581 110 581 q 49 603 49 585 q 57 631 49 622 q 83 633 63 631 q 110 637 104 636 q 131 641 115 638 q 156 650 147 644 q 194 676 183 665 q 222 686 204 686 q 249 681 240 686 l 263 536 q 344 636 288 592 q 464 681 400 681 q 527 656 501 681 q 553 598 553 632 q 533 544 553 564 q 483 524 514 524 q 417 571 417 524 q 424 593 417 583 q 431 607 431 603 q 421 611 431 611 q 327 533 386 611 q 269 392 268 456 l 279 121 q 305 66 281 82 q 385 50 329 50 q 392 23 392 43 q 389 0 392 3 l 222 8 m 179 900 q 122 957 161 919 q 77 1001 83 994 q 71 1013 71 1007 q 76 1028 71 1018 q 86 1043 82 1038 q 101 1056 97 1056 q 136 1033 104 1056 q 289 907 215 974 q 418 1015 363 974 q 476 1056 474 1056 q 482 1053 478 1056 q 499 1031 492 1044 q 507 1013 507 1018 q 501 1001 507 1007 q 456 957 494 994 q 399 900 417 919 q 314 786 344 844 q 289 781 308 781 q 264 786 269 781 q 179 900 233 844 z "},"ล":{"ha":742,"x_min":74,"x_max":681,"o":"m 553 985 q 578 990 558 990 q 606 985 597 990 l 625 700 q 598 694 619 694 q 572 700 576 694 q 531 846 561 792 q 392 908 493 908 q 269 860 315 908 q 222 753 222 813 q 269 647 222 693 q 384 565 317 601 q 519 488 451 528 q 633 385 586 447 q 681 240 681 322 q 628 97 681 158 q 372 -14 532 -14 q 167 32 257 -14 q 156 35 161 35 q 150 22 151 35 l 146 -8 q 119 -14 140 -14 q 93 -8 97 -14 l 74 276 q 99 282 79 282 q 126 276 118 282 q 214 124 139 181 q 388 68 289 68 q 505 110 453 68 q 557 228 557 153 q 510 317 557 276 q 396 392 463 358 q 263 465 329 426 q 149 569 196 504 q 101 719 101 635 q 180 917 101 843 q 360 992 258 992 q 531 946 461 992 q 542 942 536 942 q 549 954 547 942 l 553 985 m 253 1211 q 196 1268 235 1231 q 151 1312 157 1306 q 144 1324 144 1318 q 150 1339 144 1329 q 161 1354 156 1349 q 174 1367 171 1367 q 208 1344 178 1367 q 363 1218 289 1285 q 492 1326 436 1285 q 549 1367 547 1367 q 556 1364 551 1367 q 573 1342 565 1356 q 581 1324 581 1329 q 574 1312 581 1318 q 529 1268 568 1306 q 472 1211 490 1231 q 388 1097 418 1156 q 363 1092 382 1092 q 338 1097 343 1092 q 253 1211 307 1156 z "},"ลก":{"ha":593,"x_min":58,"x_max":539,"o":"m 328 681 q 457 645 403 681 q 511 557 511 610 q 492 506 511 525 q 445 486 474 486 q 398 499 417 486 q 379 531 379 511 q 385 564 379 551 q 390 585 390 576 q 326 615 390 615 q 226 588 263 615 q 189 521 189 560 q 225 450 189 482 q 313 392 261 418 q 415 337 364 365 q 503 265 467 308 q 539 169 539 222 q 465 33 539 81 q 292 -14 390 -14 q 126 32 193 -14 q 58 167 58 78 q 76 216 58 197 q 126 235 94 235 q 194 188 194 235 q 178 146 194 165 q 161 119 161 126 q 201 76 161 94 q 288 58 240 58 q 382 83 335 58 q 429 160 429 107 q 307 269 429 214 q 204 317 256 292 q 117 387 153 343 q 82 486 82 431 q 149 629 82 578 q 328 681 217 681 m 193 900 q 136 957 175 919 q 91 1001 97 994 q 85 1013 85 1007 q 90 1028 85 1018 q 100 1043 96 1038 q 115 1056 111 1056 q 150 1033 118 1056 q 303 907 229 974 q 432 1015 376 974 q 490 1056 488 1056 q 496 1053 492 1056 q 513 1031 506 1044 q 521 1013 521 1018 q 515 1001 521 1007 q 469 957 508 994 q 413 900 431 919 q 328 786 358 844 q 303 781 322 781 q 278 786 283 781 q 193 900 247 844 z "},"ลถ":{"ha":889,"x_min":-44,"x_max":901,"o":"m 461 8 l 296 0 q 292 24 292 4 q 300 53 292 44 q 371 70 350 53 q 393 125 392 88 l 400 356 q 116 851 128 835 q 83 886 104 867 q -35 924 46 924 q -44 952 -44 931 q -42 976 -44 974 q 46 970 -17 976 q 151 964 108 964 q 254 970 194 964 q 340 976 314 976 q 343 952 343 971 q 333 924 343 933 q 247 875 247 924 q 275 799 247 844 l 465 483 l 629 799 q 664 890 664 865 q 604 924 664 924 q 594 953 594 933 q 597 976 594 974 q 669 970 619 976 q 753 964 718 964 q 833 970 789 964 q 899 976 876 976 q 901 951 901 971 q 893 924 901 932 q 793 893 828 924 q 724 799 758 863 l 503 382 l 519 125 q 542 70 522 88 q 611 53 561 53 q 619 24 619 44 q 615 0 619 4 l 461 8 m 432 1361 q 456 1367 438 1367 q 482 1361 474 1367 q 567 1247 513 1303 q 624 1190 585 1228 q 675 1135 675 1140 q 669 1119 675 1129 q 660 1104 664 1110 q 645 1092 649 1092 q 610 1114 642 1092 q 457 1239 522 1179 q 338 1140 404 1188 q 270 1092 272 1092 q 264 1094 268 1092 q 247 1116 254 1103 q 239 1135 239 1129 q 240 1142 239 1140 q 432 1361 381 1261 z "},"ลท":{"ha":747,"x_min":-6,"x_max":747,"o":"m 151 658 l 313 667 q 315 644 315 664 q 308 617 315 624 q 232 583 232 617 q 239 557 232 574 l 415 129 l 543 557 q 546 579 546 565 q 476 617 546 617 q 468 644 468 625 q 472 667 468 663 l 618 658 l 744 667 q 747 644 747 664 q 740 617 747 624 q 676 604 696 617 q 646 557 657 592 l 439 -58 q 338 -301 379 -235 q 194 -403 274 -403 q 101 -373 143 -403 q 58 -287 58 -343 q 80 -240 58 -258 q 130 -222 101 -222 q 176 -238 158 -222 q 193 -274 193 -254 q 184 -304 193 -294 q 175 -319 175 -314 q 201 -337 175 -337 q 267 -276 226 -337 q 332 -149 308 -214 q 376 -8 356 -83 l 107 557 q 70 603 90 590 q 3 617 50 617 q -6 644 -6 625 q -1 667 -6 663 l 151 658 m 372 1043 q 396 1049 378 1049 q 422 1043 414 1049 q 507 928 453 985 q 564 872 525 910 q 615 817 615 822 q 610 801 615 811 q 600 786 604 792 q 585 774 589 774 q 550 797 582 774 q 397 921 463 861 q 278 822 344 869 q 210 774 213 774 q 204 778 208 774 q 187 798 194 785 q 179 817 179 811 q 181 824 179 822 q 372 1043 321 943 z "},"ลธ":{"ha":889,"x_min":-44,"x_max":901,"o":"m 461 8 l 296 0 q 292 24 292 4 q 300 53 292 44 q 371 70 350 53 q 393 125 392 88 l 400 356 q 116 851 128 835 q 83 886 104 867 q -35 924 46 924 q -44 952 -44 931 q -42 976 -44 974 q 46 970 -17 976 q 151 964 108 964 q 254 970 194 964 q 340 976 314 976 q 343 952 343 971 q 333 924 343 933 q 247 875 247 924 q 275 799 247 844 l 465 483 l 629 799 q 664 890 664 865 q 604 924 664 924 q 594 953 594 933 q 597 976 594 974 q 669 970 619 976 q 753 964 718 964 q 833 970 789 964 q 899 976 876 976 q 901 951 901 971 q 893 924 901 932 q 793 893 828 924 q 724 799 758 863 l 503 382 l 519 125 q 542 70 522 88 q 611 53 561 53 q 619 24 619 44 q 615 0 619 4 l 461 8 m 272 1138 q 263 1147 272 1138 q 253 1189 253 1157 q 271 1242 253 1221 q 319 1264 289 1264 q 373 1242 350 1264 q 396 1192 396 1221 q 324 1118 396 1121 q 272 1138 292 1118 m 521 1138 q 511 1147 521 1138 q 501 1189 501 1157 q 519 1242 501 1221 q 568 1264 538 1264 q 622 1242 599 1264 q 644 1192 644 1221 q 572 1118 644 1121 q 521 1138 540 1118 z "},"ลฝ":{"ha":817,"x_min":51,"x_max":746,"o":"m 190 100 q 181 79 181 86 q 185 71 181 72 l 560 83 q 647 140 625 85 q 672 311 669 194 q 684 313 674 313 q 718 307 694 313 q 746 297 742 301 l 729 -14 q 362 4 549 4 q 58 0 175 4 q 51 21 51 1 l 63 93 l 586 869 q 590 889 592 879 q 564 896 589 896 l 294 881 q 175 846 200 874 q 136 732 150 818 q 108 726 131 726 q 82 732 86 726 l 106 990 q 448 972 286 972 q 726 976 610 972 q 740 935 740 971 l 739 904 l 190 100 m 322 1211 q 265 1268 304 1231 q 220 1312 226 1306 q 214 1324 214 1318 q 219 1339 214 1329 q 229 1354 225 1349 q 244 1367 240 1367 q 279 1344 247 1367 q 432 1218 358 1285 q 561 1326 506 1285 q 619 1367 617 1367 q 625 1364 621 1367 q 642 1342 635 1356 q 650 1324 650 1329 q 644 1312 650 1318 q 599 1268 638 1306 q 542 1211 560 1231 q 457 1097 488 1156 q 432 1092 451 1092 q 407 1097 413 1092 q 322 1211 376 1156 z "},"ลพ":{"ha":617,"x_min":51,"x_max":567,"o":"m 517 667 q 524 642 524 664 q 521 617 524 621 l 201 92 q 194 77 194 82 q 201 72 194 72 l 446 89 q 503 116 493 94 q 517 214 514 138 q 537 217 519 217 q 567 204 554 217 l 551 -14 q 242 1 393 1 q 56 0 92 1 q 51 11 51 1 l 60 54 l 374 581 q 374 592 378 588 q 329 596 369 596 l 242 596 q 147 582 168 596 q 111 508 125 568 q 84 500 103 500 q 61 504 65 500 l 86 681 q 363 665 244 665 q 517 667 481 665 m 201 900 q 144 957 183 919 q 99 1001 106 994 q 93 1013 93 1007 q 99 1028 93 1018 q 108 1043 104 1038 q 123 1056 119 1056 q 158 1033 126 1056 q 311 907 238 974 q 440 1015 385 974 q 498 1056 496 1056 q 504 1053 500 1056 q 522 1031 514 1044 q 529 1013 529 1018 q 523 1001 529 1007 q 478 957 517 994 q 421 900 439 919 q 336 786 367 844 q 311 781 331 781 q 286 786 292 781 q 201 900 256 844 z "},"ฦ":{"ha":764,"x_min":31,"x_max":732,"o":"m 176 -154 q 73 -130 115 -154 q 31 -58 31 -106 q 48 -8 31 -28 q 93 13 65 13 q 157 -35 157 13 q 151 -58 157 -49 q 146 -72 146 -68 q 178 -89 146 -89 q 278 100 253 -89 l 338 556 l 232 553 q 219 595 219 575 q 228 625 219 615 q 346 622 283 622 l 367 779 q 588 1069 404 1069 q 690 1046 649 1069 q 732 982 732 1022 q 712 922 732 942 q 661 903 692 903 q 597 950 597 903 q 603 974 597 964 q 608 988 608 983 q 573 1004 608 1004 q 505 959 538 1004 q 463 815 472 914 l 443 622 q 603 625 565 622 q 610 585 610 606 q 599 553 610 564 q 438 556 524 556 l 397 136 q 333 -71 385 13 q 176 -154 281 -154 z "},"ห":{"ha":494,"x_min":28,"x_max":467,"o":"m 222 1064 q 246 1069 228 1069 q 272 1064 264 1069 q 357 950 303 1006 q 414 893 375 931 q 465 838 465 843 q 460 822 465 832 q 450 807 454 813 q 435 794 439 794 q 400 817 432 794 q 247 942 313 882 q 128 842 194 890 q 60 794 63 794 q 54 797 58 794 q 37 819 44 806 q 29 838 29 832 q 31 844 29 843 q 222 1064 171 964 z "},"ห":{"ha":494,"x_min":28,"x_max":467,"o":"m 138 914 q 81 971 119 933 q 35 1015 42 1008 q 29 1026 29 1021 q 35 1042 29 1032 q 44 1057 40 1051 q 59 1069 56 1069 q 94 1047 63 1069 q 247 921 174 988 q 376 1028 321 988 q 434 1069 432 1069 q 440 1067 436 1069 q 458 1045 450 1058 q 465 1026 465 1032 q 459 1015 465 1021 q 414 971 453 1008 q 357 914 375 933 q 272 800 303 858 q 247 794 267 794 q 222 800 228 794 q 138 914 192 858 z "},"ห":{"ha":243,"x_min":43,"x_max":200,"o":"m 200 866 q 200 848 200 866 q 178 810 200 831 q 120 790 156 790 q 64 813 85 790 q 43 869 43 835 q 64 926 43 903 q 118 949 85 949 q 176 925 151 949 q 200 866 200 901 z "},"ห":{"ha":347,"x_min":43,"x_max":304,"o":"m 77 830 q 60 848 77 830 q 43 931 43 867 q 77 1032 43 994 q 172 1069 111 1069 q 269 1032 233 1069 q 304 931 304 994 q 269 831 304 868 q 173 793 235 793 q 77 830 111 793 m 176 842 q 244 921 244 842 q 226 994 244 964 q 171 1025 207 1025 q 103 942 103 1025 q 122 871 103 900 q 176 842 140 842 z "},"ห":{"ha":574,"x_min":64,"x_max":510,"o":"m 508 863 q 442 813 486 838 q 358 788 397 788 q 260 818 319 788 q 178 849 201 849 q 85 799 135 849 q 64 844 64 803 l 65 853 q 133 901 86 876 q 220 926 179 926 q 317 897 261 926 q 396 867 372 867 q 489 917 439 867 q 510 872 510 913 l 508 863 z "},"ฬ":{"ha":243,"x_min":43,"x_max":200,"o":"m 200 866 q 200 848 200 866 q 178 810 200 831 q 120 790 156 790 q 64 813 85 790 q 43 869 43 835 q 64 926 43 903 q 118 949 85 949 q 176 925 151 949 q 200 866 200 901 z "},"แปฒ":{"ha":889,"x_min":-44,"x_max":901,"o":"m 210 1215 q 208 1232 208 1219 q 222 1283 208 1244 q 267 1328 236 1322 q 493 1146 336 1236 q 488 1108 494 1124 q 474 1090 481 1093 q 339 1145 464 1090 q 210 1215 214 1200 m 461 8 l 296 0 q 292 24 292 4 q 300 53 292 44 q 371 70 350 53 q 393 125 392 88 l 400 356 q 116 851 128 835 q 83 886 104 867 q -35 924 46 924 q -44 952 -44 931 q -42 976 -44 974 q 46 970 -17 976 q 151 964 108 964 q 254 970 194 964 q 340 976 314 976 q 343 952 343 971 q 333 924 343 933 q 247 875 247 924 q 275 799 247 844 l 465 483 l 629 799 q 664 890 664 865 q 604 924 664 924 q 594 953 594 933 q 597 976 594 974 q 669 970 619 976 q 753 964 718 964 q 833 970 789 964 q 899 976 876 976 q 901 951 901 971 q 893 924 901 932 q 793 893 828 924 q 724 799 758 863 l 503 382 l 519 125 q 542 70 522 88 q 611 53 561 53 q 619 24 619 44 q 615 0 619 4 l 461 8 z "},"แปณ":{"ha":747,"x_min":-6,"x_max":747,"o":"m 151 658 l 313 667 q 315 644 315 664 q 308 617 315 624 q 232 583 232 617 q 239 557 232 574 l 415 129 l 543 557 q 546 579 546 565 q 476 617 546 617 q 468 644 468 625 q 472 667 468 663 l 618 658 l 744 667 q 747 644 747 664 q 740 617 747 624 q 676 604 696 617 q 646 557 657 592 l 439 -58 q 338 -301 379 -235 q 194 -403 274 -403 q 101 -373 143 -403 q 58 -287 58 -343 q 80 -240 58 -258 q 130 -222 101 -222 q 176 -238 158 -222 q 193 -274 193 -254 q 184 -304 193 -294 q 175 -319 175 -314 q 201 -337 175 -337 q 267 -276 226 -337 q 332 -149 308 -214 q 376 -8 356 -83 l 107 557 q 70 603 90 590 q 3 617 50 617 q -6 644 -6 625 q -1 667 -6 663 l 151 658 m 204 964 q 226 1024 204 983 q 279 1065 247 1065 q 471 846 331 965 q 458 810 468 825 q 441 796 449 796 q 319 872 433 796 q 204 964 204 947 z "},"โ":{"ha":906,"x_min":100,"x_max":806,"o":"m 794 304 q 452 307 669 307 q 113 304 235 307 q 100 358 100 335 q 108 392 100 382 q 453 389 169 389 q 799 392 736 389 q 806 341 806 367 q 794 304 806 315 z "},"โ":{"ha":1364,"x_min":100,"x_max":1264,"o":"m 1253 304 q 682 310 1114 310 q 113 304 250 310 q 100 358 100 335 q 108 392 100 382 q 681 385 279 385 q 1257 392 1083 385 q 1264 341 1264 367 q 1253 304 1264 315 z "},"โ":{"ha":288,"x_min":63,"x_max":244,"o":"m 151 747 q 133 747 151 747 q 89 775 115 747 q 63 858 63 803 q 90 964 63 913 q 203 1068 147 1068 q 219 1057 207 1068 q 244 1024 244 1033 q 238 1012 244 1015 q 219 1001 232 1008 q 201 990 207 993 q 185 981 194 986 q 170 972 175 975 q 159 963 165 968 q 150 954 153 958 q 144 946 147 950 q 139 926 139 938 q 162 905 139 914 q 208 878 185 896 q 231 828 231 861 q 208 771 231 794 q 151 747 186 747 z "},"โ":{"ha":286,"x_min":60,"x_max":242,"o":"m 153 1069 q 171 1069 153 1069 q 215 1042 189 1069 q 242 959 242 1014 q 214 853 242 904 q 101 749 157 749 q 85 760 97 749 q 60 792 60 783 q 66 805 60 801 q 85 816 72 808 q 103 827 97 824 q 119 836 110 831 q 134 845 129 842 q 145 853 139 849 q 154 863 151 858 q 160 871 157 867 q 165 891 165 879 q 142 912 165 903 q 97 938 119 921 q 74 989 74 956 q 96 1046 74 1022 q 153 1069 118 1069 z "},"โ":{"ha":311,"x_min":57,"x_max":239,"o":"m 151 158 q 168 158 151 158 q 213 131 186 158 q 239 48 239 103 q 211 -58 239 -7 q 99 -162 154 -162 q 82 -151 94 -162 q 57 -119 57 -128 q 63 -106 57 -110 q 82 -95 69 -103 q 101 -84 94 -87 q 117 -75 107 -81 q 131 -66 126 -69 q 142 -58 136 -62 q 151 -49 149 -53 q 157 -40 154 -44 q 163 -20 163 -32 q 140 1 163 -8 q 94 27 117 10 q 71 78 71 44 q 93 135 71 111 q 151 158 115 158 z "},"โ":{"ha":542,"x_min":63,"x_max":499,"o":"m 405 747 q 387 747 405 747 q 343 775 369 747 q 317 858 317 803 q 344 964 317 913 q 457 1068 401 1068 q 474 1057 461 1068 q 499 1024 499 1033 q 492 1012 499 1015 q 474 1001 486 1008 q 455 990 461 993 q 439 981 449 986 q 424 972 429 975 q 413 963 419 968 q 404 954 407 958 q 399 946 401 950 q 393 926 393 938 q 416 905 393 914 q 462 878 439 896 q 485 828 485 861 q 463 771 485 794 q 405 747 440 747 m 151 747 q 133 747 151 747 q 89 775 115 747 q 63 858 63 803 q 90 964 63 913 q 203 1068 147 1068 q 219 1057 207 1068 q 244 1024 244 1033 q 238 1012 244 1015 q 219 1001 232 1008 q 201 990 207 993 q 185 981 194 986 q 170 972 175 975 q 159 963 165 968 q 150 954 153 958 q 144 946 147 950 q 139 926 139 938 q 162 905 139 914 q 208 878 185 896 q 231 828 231 861 q 208 771 231 794 q 151 747 186 747 z "},"โ":{"ha":540,"x_min":60,"x_max":496,"o":"m 153 1069 q 171 1069 153 1069 q 215 1042 189 1069 q 242 959 242 1014 q 214 853 242 904 q 101 749 157 749 q 85 760 97 749 q 60 792 60 783 q 66 805 60 801 q 85 816 72 808 q 103 827 97 824 q 119 836 110 831 q 134 845 129 842 q 145 853 139 849 q 154 863 151 858 q 160 871 157 867 q 165 891 165 879 q 142 912 165 903 q 97 938 119 921 q 74 989 74 956 q 96 1046 74 1022 q 153 1069 118 1069 m 408 1069 q 425 1069 408 1069 q 469 1042 443 1069 q 496 959 496 1014 q 468 853 496 904 q 356 749 411 749 q 339 760 351 749 q 314 792 314 783 q 320 805 314 801 q 339 816 326 808 q 358 827 351 824 q 374 836 364 831 q 388 845 383 842 q 399 853 393 849 q 408 863 406 858 q 414 871 411 867 q 419 891 419 879 q 397 912 419 903 q 351 938 374 921 q 328 989 328 956 q 350 1046 328 1022 q 408 1069 372 1069 z "},"โ":{"ha":565,"x_min":57,"x_max":493,"o":"m 151 158 q 168 158 151 158 q 213 131 186 158 q 239 48 239 103 q 211 -58 239 -7 q 99 -162 154 -162 q 82 -151 94 -162 q 57 -119 57 -128 q 63 -106 57 -110 q 82 -95 69 -103 q 101 -84 94 -87 q 117 -75 107 -81 q 131 -66 126 -69 q 142 -58 136 -62 q 151 -49 149 -53 q 157 -40 154 -44 q 163 -20 163 -32 q 140 1 163 -8 q 94 27 117 10 q 71 78 71 44 q 93 135 71 111 q 151 158 115 158 m 405 158 q 423 158 405 158 q 467 131 440 158 q 493 48 493 103 q 465 -58 493 -7 q 353 -162 408 -162 q 336 -151 349 -162 q 311 -119 311 -128 q 317 -106 311 -110 q 336 -95 324 -103 q 355 -84 349 -87 q 371 -75 361 -81 q 385 -66 381 -69 q 397 -58 390 -62 q 406 -49 403 -53 q 411 -40 408 -44 q 417 -20 417 -32 q 394 1 417 -8 q 348 27 371 10 q 325 78 325 44 q 347 135 325 111 q 405 158 369 158 z "},"โ":{"ha":631,"x_min":39,"x_max":592,"o":"m 358 515 l 365 -200 l 365 -264 q 308 -282 347 -282 q 256 -261 269 -282 q 275 263 275 -94 q 271 625 275 275 q 51 622 101 625 q 39 676 39 653 q 47 710 39 700 q 269 707 72 707 q 268 909 268 796 q 269 1053 268 1022 q 326 1071 288 1071 q 379 1050 365 1071 q 360 707 364 928 q 585 710 558 707 q 592 659 592 685 q 581 622 592 633 q 358 625 528 625 l 358 515 z "},"โก":{"ha":649,"x_min":47,"x_max":600,"o":"m 374 -200 l 374 -264 q 317 -282 356 -282 q 264 -261 278 -282 q 283 263 283 -94 l 283 292 q 60 289 110 292 q 47 343 47 319 q 56 376 47 367 q 283 374 81 374 l 279 625 q 60 622 110 625 q 47 676 47 653 q 56 710 47 700 q 278 707 81 707 q 276 909 276 796 q 278 1053 276 1022 q 335 1071 296 1071 q 388 1050 374 1071 q 368 707 372 928 q 593 710 567 707 q 600 659 600 685 q 589 622 600 633 q 367 625 536 625 l 367 374 q 593 376 567 374 q 600 326 600 351 q 589 289 600 300 q 367 292 536 292 q 374 -200 374 -181 z "},"โข":{"ha":461,"x_min":128,"x_max":335,"o":"m 335 348 q 335 325 335 348 q 306 274 335 301 q 230 247 278 247 q 155 276 182 247 q 128 351 128 304 q 155 427 128 397 q 226 457 182 457 q 303 426 271 457 q 335 348 335 394 z "},"โฆ":{"ha":883,"x_min":72,"x_max":813,"o":"m 229 76 q 229 58 229 76 q 207 20 229 40 q 149 0 185 0 q 93 22 114 0 q 72 78 72 44 q 93 135 72 113 q 147 158 114 158 q 205 135 181 158 q 229 76 229 111 m 521 76 q 521 58 521 76 q 499 20 521 40 q 441 0 476 0 q 385 22 406 0 q 364 78 364 44 q 385 135 364 113 q 439 158 406 158 q 497 135 472 158 q 521 76 521 111 m 813 76 q 813 58 813 76 q 790 20 813 40 q 733 0 768 0 q 676 22 697 0 q 656 78 656 44 q 676 135 656 113 q 731 158 697 158 q 788 135 764 158 q 813 76 813 111 z "},"โฐ":{"ha":1529,"x_min":54,"x_max":1486,"o":"m 265 600 q 218 600 265 600 q 113 672 171 600 q 54 834 54 744 q 113 1001 54 924 q 265 1079 171 1079 q 415 1001 358 1079 q 472 834 472 924 q 415 672 472 744 q 265 600 358 600 m 269 1025 q 238 1025 269 1025 q 172 969 206 1025 q 138 838 138 913 q 172 709 138 764 q 267 654 207 654 q 358 708 328 654 q 389 839 389 761 q 361 971 389 917 q 269 1025 333 1025 m 784 0 q 737 0 784 0 q 632 72 690 0 q 574 234 574 144 q 632 401 574 324 q 784 479 690 479 q 935 401 878 479 q 992 234 992 324 q 935 72 992 144 q 784 0 878 0 m 789 425 q 757 425 789 425 q 691 369 725 425 q 657 238 657 313 q 692 109 657 164 q 787 54 726 54 q 878 108 847 54 q 908 239 908 161 q 881 371 908 317 q 789 425 853 425 m 1278 0 q 1232 0 1278 0 q 1126 72 1185 0 q 1068 234 1068 144 q 1126 401 1068 324 q 1278 479 1185 479 q 1429 401 1372 479 q 1486 234 1486 324 q 1429 72 1486 144 q 1278 0 1372 0 m 1283 425 q 1251 425 1283 425 q 1185 369 1219 425 q 1151 238 1151 313 q 1186 109 1151 164 q 1281 54 1221 54 q 1372 108 1342 54 q 1403 239 1403 161 q 1375 371 1403 317 q 1283 425 1347 425 m 910 1044 q 560 522 807 901 q 228 -1 313 143 q 143 46 157 3 q 496 574 246 192 q 831 1099 746 956 q 879 1083 853 1099 q 910 1044 906 1067 z "},"โน":{"ha":396,"x_min":58,"x_max":322,"o":"m 64 328 q 58 344 58 333 q 64 358 58 354 q 165 463 151 447 q 196 498 179 479 q 222 531 213 517 q 268 596 254 572 q 277 599 271 599 q 292 596 283 599 q 308 589 301 593 q 322 572 322 576 q 272 487 322 567 q 175 343 221 407 q 270 203 218 288 q 322 113 322 118 q 318 103 322 107 q 283 85 296 85 q 268 88 271 85 q 64 328 215 176 z "},"โบ":{"ha":396,"x_min":74,"x_max":338,"o":"m 128 88 q 119 85 125 85 q 103 88 113 85 q 89 94 94 90 q 74 113 74 107 q 126 203 74 118 q 221 343 178 288 q 124 487 175 407 q 74 572 74 567 q 78 581 74 576 q 113 599 100 599 q 128 596 125 599 q 186 513 156 547 q 226 469 217 479 q 253 439 235 458 q 279 413 272 419 q 332 360 306 386 q 338 344 338 354 q 332 328 338 333 q 128 88 181 176 z "},"โ":{"ha":732,"x_min":-18,"x_max":749,"o":"m 749 1044 q 399 522 646 901 q 67 -1 151 143 q -18 46 -4 3 q 335 574 85 192 q 669 1099 585 956 q 718 1083 692 1099 q 749 1044 744 1067 z "},"โฌ":{"ha":849,"x_min":49,"x_max":790,"o":"m 163 511 l 61 510 q 49 564 49 540 q 57 597 49 588 q 169 594 90 594 q 288 876 194 761 q 532 990 382 990 q 669 954 617 990 q 680 950 675 950 q 685 957 685 950 l 688 986 q 713 992 693 992 q 740 986 732 992 l 756 724 q 728 718 750 718 q 703 724 707 718 q 511 910 675 910 q 307 594 340 910 l 353 594 q 650 597 615 594 q 657 547 657 572 q 646 510 657 521 q 353 513 576 513 l 301 513 q 300 454 300 492 l 300 415 l 353 415 q 650 418 615 415 q 657 367 657 393 q 646 331 657 342 q 353 333 576 333 l 310 333 q 393 135 331 204 q 533 67 456 67 q 627 82 582 67 q 698 113 672 97 q 768 163 724 129 q 790 110 790 151 q 531 -14 669 -14 q 299 74 392 -14 q 175 332 206 163 l 61 331 q 49 385 49 361 q 57 418 49 408 q 165 415 90 415 q 163 492 163 439 l 163 511 z "},"โข":{"ha":1215,"x_min":75,"x_max":1136,"o":"m 283 524 l 190 519 q 188 533 188 522 q 192 549 188 544 q 242 589 242 549 l 247 1019 l 194 1019 q 129 1001 146 1019 q 104 936 113 982 q 89 933 96 933 l 75 936 l 88 1069 q 276 1061 179 1061 q 463 1069 372 1061 l 474 936 q 460 933 467 933 l 446 936 q 422 1001 438 982 q 360 1019 406 1019 l 301 1019 l 318 589 q 330 558 319 567 q 371 549 340 549 q 374 532 374 543 q 372 519 374 521 l 283 524 m 674 519 l 583 524 l 506 519 q 503 531 503 522 q 507 549 503 540 q 545 558 535 549 q 558 589 556 567 l 593 992 q 585 1025 594 1019 q 547 1031 575 1031 q 542 1048 542 1036 q 544 1063 542 1060 q 593 1057 583 1057 q 658 1063 603 1057 l 819 618 l 994 1063 q 1049 1057 1044 1057 q 1099 1063 1054 1057 q 1101 1047 1101 1060 q 1097 1031 1101 1035 q 1056 1022 1068 1031 q 1046 992 1043 1013 l 1082 589 q 1095 558 1085 567 q 1133 549 1106 549 q 1136 532 1136 543 q 1135 519 1136 521 l 1049 524 l 956 519 q 953 531 953 522 q 957 549 953 540 q 997 558 985 549 q 1008 589 1010 568 l 996 926 l 831 519 q 814 515 828 515 q 797 519 800 515 l 636 926 l 618 589 q 629 558 617 568 q 669 549 642 549 q 675 525 675 543 l 674 519 z "},"โ":{"ha":797,"x_min":122,"x_max":675,"o":"m 664 304 q 398 307 603 307 q 135 304 193 307 q 122 358 122 335 q 131 392 122 382 q 399 389 160 389 q 668 392 638 389 q 675 341 675 367 q 664 304 675 315 z "},"โซ":{"ha":542,"x_min":-15,"x_max":556,"o":"m 39 -58 q 88 -89 56 -89 q 151 -47 119 -89 q 196 100 183 -6 l 275 779 q 467 1069 307 1069 q 556 1040 526 1069 q 543 1006 556 1018 q 503 988 526 988 q 451 1004 475 1004 q 403 959 428 1004 q 369 815 379 914 l 303 136 q 238 -71 290 13 q 83 -154 186 -154 q -15 -111 14 -154 q -3 -75 -15 -89 q 39 -58 15 -58 z "},"โ":{"ha":819,"x_min":100,"x_max":713,"o":"m 711 475 q 629 429 682 451 q 526 407 576 407 q 400 433 475 407 q 297 458 325 458 q 124 410 221 458 q 100 453 100 422 l 101 464 q 196 513 129 488 q 317 539 263 539 q 450 513 372 539 q 551 488 528 488 q 588 490 574 488 q 618 497 603 492 q 689 529 668 515 q 713 486 713 515 l 711 475 m 711 264 q 629 218 682 240 q 526 196 576 196 q 400 222 475 196 q 297 247 325 247 q 124 199 221 247 q 100 242 100 211 l 101 253 q 196 302 129 276 q 317 328 263 328 q 450 302 372 328 q 551 276 528 276 q 588 278 574 276 q 618 286 603 281 q 689 318 668 304 q 713 275 713 304 l 711 264 z "},"โ":{"ha":683,"x_min":65,"x_max":618,"o":"m 264 206 l 78 203 q 65 257 65 233 q 74 290 65 281 q 289 288 97 288 l 315 383 q 78 381 131 383 q 65 435 65 411 q 74 468 65 458 q 338 465 103 465 q 389 661 363 553 q 410 663 397 663 q 474 640 460 663 q 418 465 453 582 q 611 468 588 465 q 618 417 618 443 q 607 381 618 392 q 394 383 554 383 l 368 288 q 611 290 582 288 q 618 240 618 265 q 607 203 618 214 q 346 206 546 206 q 289 -17 311 79 q 204 13 217 -17 q 264 206 225 71 z "},"โค":{"ha":685,"x_min":74,"x_max":600,"o":"m 79 444 q 74 469 74 449 q 79 494 74 489 l 568 763 q 575 712 575 738 q 564 675 575 686 l 215 469 l 568 264 q 575 213 575 239 q 564 176 575 188 l 79 444 m 589 -3 q 337 0 531 0 q 88 -3 143 0 q 75 51 75 28 q 83 85 75 75 q 338 82 111 82 q 593 85 564 82 q 600 34 600 60 q 589 -3 600 8 z "},"โฅ":{"ha":685,"x_min":85,"x_max":611,"o":"m 606 494 q 611 468 611 486 q 606 444 611 450 l 121 176 q 110 215 110 188 l 117 264 l 469 469 l 121 675 q 110 714 110 686 l 117 763 l 606 494 m 601 85 q 610 53 610 72 q 597 -3 610 35 q 345 0 539 0 q 96 -3 151 0 q 85 36 85 8 l 92 85 q 346 82 119 82 q 601 85 572 82 z "},"๏ฌ":{"ha":915,"x_min":47,"x_max":981,"o":"m 228 8 l 51 0 q 47 23 47 4 q 56 50 47 42 q 136 66 111 50 q 163 121 161 82 l 168 553 l 60 553 q 47 595 47 575 q 56 625 47 615 l 168 625 l 171 765 q 230 969 174 883 q 392 1056 286 1056 q 494 1032 453 1056 q 536 968 536 1008 q 517 908 536 928 q 465 889 497 889 q 401 936 401 889 q 407 958 401 949 q 413 974 413 968 q 402 985 413 979 q 381 990 392 990 q 302 945 338 990 q 267 808 267 900 q 271 625 267 804 l 613 625 l 615 779 q 674 983 618 897 q 836 1069 729 1069 q 939 1046 897 1069 q 981 982 981 1022 q 961 922 981 942 q 910 903 942 903 q 846 950 846 903 q 851 974 846 964 q 857 988 857 983 q 819 1004 857 1004 q 747 959 782 1004 q 711 822 711 914 q 715 625 711 818 l 874 625 q 881 585 881 606 q 869 553 881 564 l 718 553 l 729 121 q 755 66 731 82 q 835 50 779 50 q 842 23 842 43 q 839 0 842 3 l 672 8 l 496 0 q 492 23 492 4 q 500 50 492 42 q 581 66 556 50 q 607 121 606 82 l 613 553 l 274 553 l 285 121 q 310 66 286 82 q 390 50 335 50 q 397 23 397 43 q 394 0 397 3 l 228 8 z "},"๏ฌ":{"ha":858,"x_min":47,"x_max":840,"o":"m 228 8 l 51 0 q 47 23 47 4 q 56 50 47 42 q 137 66 111 50 q 163 121 163 82 l 165 554 l 60 553 q 47 595 47 575 q 56 625 47 615 l 165 625 l 167 710 q 249 963 169 856 q 475 1069 328 1069 q 616 1038 560 1069 q 672 946 672 1007 q 650 890 672 911 q 596 868 628 868 q 524 922 524 868 q 529 944 524 935 q 535 960 535 954 q 511 991 535 978 q 461 1004 488 1004 q 403 992 435 1004 q 342 953 372 979 q 291 877 311 926 q 271 764 271 828 l 271 746 l 274 625 l 556 625 q 656 667 614 625 q 679 672 661 672 q 706 667 697 672 l 728 121 q 753 66 729 82 q 833 50 778 50 q 840 23 840 43 q 838 0 840 3 l 671 8 l 494 0 q 490 23 490 4 q 499 50 490 42 q 580 66 554 50 q 606 121 606 82 l 607 486 q 581 547 607 533 q 525 560 554 560 q 275 556 497 560 l 285 121 q 310 66 286 82 q 390 50 335 50 q 397 23 397 43 q 394 0 397 3 l 228 8 z "},"๏ฌ":{"ha":850,"x_min":47,"x_max":826,"o":"m 657 8 l 481 0 q 476 23 476 4 q 485 50 476 42 q 567 66 542 50 q 592 121 592 82 l 599 901 q 557 976 599 947 q 475 1004 515 1004 q 403 992 435 1004 q 342 953 372 979 q 291 877 311 926 q 271 764 271 828 l 271 746 l 274 625 l 429 625 q 436 585 436 606 q 425 553 436 564 l 275 553 l 285 121 q 310 66 286 82 q 390 50 335 50 q 397 23 397 43 q 394 0 397 3 l 228 8 l 51 0 q 47 23 47 4 q 56 50 47 42 q 137 66 111 50 q 163 121 163 82 l 165 553 l 60 553 q 47 595 47 575 q 56 625 47 615 l 165 625 l 167 710 q 249 963 169 856 q 475 1069 328 1069 q 592 1047 553 1069 l 606 1039 q 629 1051 619 1046 q 660 1061 646 1061 q 686 1056 674 1061 l 714 121 q 740 66 715 82 q 819 50 764 50 q 826 23 826 43 q 824 0 826 3 l 657 8 z "},"๏ฌ":{"ha":1303,"x_min":46,"x_max":1285,"o":"m 226 8 l 50 0 q 46 23 46 4 q 54 50 46 42 q 135 66 110 50 q 161 121 160 82 l 167 553 l 60 553 q 47 595 47 575 q 56 625 47 615 l 167 625 l 169 765 q 228 969 172 883 q 390 1056 285 1056 q 493 1032 451 1056 q 535 968 535 1008 q 515 908 535 928 q 464 889 494 889 q 400 936 400 889 q 406 958 400 949 q 411 974 411 968 q 401 985 411 979 q 379 990 390 990 q 301 944 338 990 q 265 801 265 899 l 269 625 l 610 625 l 611 710 q 693 963 614 856 q 919 1069 772 1069 q 1060 1038 1004 1069 q 1117 946 1117 1007 q 1094 890 1117 911 q 1040 868 1072 868 q 968 922 968 868 q 974 944 968 935 q 979 960 979 954 q 956 991 979 978 q 908 1004 932 1004 q 777 942 839 1004 q 715 746 715 879 l 718 625 l 1000 625 q 1100 667 1058 625 q 1124 672 1106 672 q 1150 667 1142 672 l 1172 121 q 1198 66 1174 82 q 1278 50 1222 50 q 1285 23 1285 43 q 1282 0 1285 3 l 1115 8 l 939 0 q 935 23 935 4 q 943 50 935 42 q 1024 66 999 50 q 1050 121 1050 82 l 1051 486 q 1025 547 1051 533 q 969 560 999 560 q 719 557 944 560 l 729 121 q 755 66 731 82 q 835 50 779 50 q 842 23 842 43 q 839 0 842 3 l 672 8 l 496 0 q 492 23 492 4 q 500 50 492 42 q 581 66 556 50 q 607 121 607 82 l 610 554 l 272 554 l 283 121 q 309 66 285 82 q 389 50 333 50 q 396 23 396 43 q 393 0 396 3 l 226 8 z "},"๏ฌ":{"ha":1296,"x_min":47,"x_max":1272,"o":"m 1103 8 l 926 0 q 922 23 922 4 q 931 50 922 42 q 1013 66 988 50 q 1038 121 1038 82 l 1044 901 q 1003 976 1044 947 q 901 1004 961 1004 q 779 945 842 1004 q 717 764 717 886 l 717 746 l 719 625 l 915 625 q 922 585 922 606 q 911 553 922 564 l 721 553 l 731 121 q 756 66 732 82 q 836 50 781 50 q 843 23 843 43 q 840 0 843 3 l 674 8 l 497 0 q 493 23 493 4 q 501 50 493 42 q 583 66 557 50 q 608 121 608 82 l 611 553 l 274 553 l 285 121 q 310 66 286 82 q 390 50 335 50 q 397 23 397 43 q 394 0 397 3 l 228 8 l 51 0 q 47 23 47 4 q 56 50 47 42 q 136 66 111 50 q 163 121 161 82 l 168 553 l 60 553 q 47 595 47 575 q 56 625 47 615 l 168 625 l 171 765 q 230 969 174 883 q 392 1056 286 1056 q 494 1032 453 1056 q 536 968 536 1008 q 517 908 536 928 q 465 889 497 889 q 401 936 401 889 q 407 958 401 949 q 413 974 413 968 q 402 985 413 979 q 381 990 392 990 q 302 945 338 990 q 267 808 267 900 q 271 625 267 804 l 611 625 l 613 710 q 694 963 615 856 q 921 1069 774 1069 q 1039 1047 999 1069 l 1051 1039 q 1075 1051 1065 1046 q 1106 1061 1092 1061 q 1132 1056 1119 1061 l 1160 121 q 1185 66 1161 82 q 1265 50 1210 50 q 1272 23 1272 43 q 1269 0 1272 3 l 1103 8 z "},"๏ฌ":{"ha":1079,"x_min":58,"x_max":1063,"o":"m 824 242 q 842 110 825 149 q 916 72 860 72 q 1040 110 972 72 q 1054 89 1046 104 q 1063 68 1063 74 q 1061 61 1063 63 q 874 -14 981 -14 q 706 215 706 -14 q 713 581 706 222 l 583 581 q 575 608 575 589 q 579 631 575 626 q 694 664 651 631 q 738 778 738 697 q 691 892 738 858 q 572 926 644 926 q 451 881 500 926 q 401 772 401 836 q 433 658 401 675 q 511 557 511 619 q 492 506 511 525 q 445 486 474 486 q 398 499 417 486 q 379 531 379 511 q 385 564 379 551 q 390 585 390 576 q 326 615 390 615 q 226 588 263 615 q 189 521 189 560 q 225 450 189 482 q 313 392 261 418 q 415 337 364 365 q 503 265 467 308 q 539 169 539 222 q 460 33 539 81 q 283 -14 381 -14 q 122 32 186 -14 q 58 167 58 78 q 76 216 58 197 q 126 235 94 235 q 194 188 194 235 q 178 146 194 165 q 161 119 161 126 q 196 76 161 94 q 278 58 231 58 q 377 83 325 58 q 429 160 429 107 q 307 269 429 214 q 204 317 256 292 q 117 387 153 343 q 82 486 82 431 q 149 629 82 578 q 328 681 217 681 q 372 676 351 681 q 342 790 342 742 q 410 931 342 872 q 578 990 479 990 q 745 939 676 990 q 815 786 814 888 l 818 653 l 1029 653 q 1036 613 1036 633 q 1025 581 1036 592 l 818 581 l 824 242 z "}}}
